<svg width="284" height="321" viewBox="0 0 284 321" fill="none" xmlns="http://www.w3.org/2000/svg">
<path fill-rule="evenodd" clip-rule="evenodd" d="M92 175.355L157 213.716V280.252L92 319.678L27 280.252V213.716L92 175.355ZM35 218.284V275.748L92 310.322L149 275.748V218.284L92 184.645L35 218.284Z" stroke="white"/>
<path d="M91 237.445C97.0751 237.445 102 232.52 102 226.445C102 220.37 97.0751 215.445 91 215.445C84.9249 215.445 80 220.37 80 226.445C80 232.52 84.9249 237.445 91 237.445ZM109 226.445C109 236.386 100.941 244.445 91 244.445C81.0589 244.445 73 236.386 73 226.445C73 216.504 81.0589 208.445 91 208.445C100.941 208.445 109 216.504 109 226.445Z" stroke="white"/>
<path d="M114.127 274.445H114.835L114.599 273.779C113.392 270.366 111.433 267.23 108.824 264.621C104.229 260.027 97.9978 257.445 91.5 257.445C85.0022 257.445 78.7705 260.027 74.1759 264.621C71.5674 267.23 69.6079 270.366 68.4012 273.779L68.1655 274.445H68.8726L91.5 274.445L114.127 274.445ZM113.774 259.671C117.786 263.684 120.605 268.668 122 274.07C122.618 276.463 122.956 278.937 122.996 281.445L91.5 281.445L60.004 281.445C60.0437 278.937 60.3824 276.463 61.0002 274.07C62.3952 268.668 65.2135 263.684 69.2261 259.671C75.1335 253.764 83.1457 250.445 91.5 250.445C99.8543 250.445 107.866 253.764 113.774 259.671Z" stroke="white"/>
<path d="M43.5381 60L86.0763 84.5594V133.678L43.5381 158.238L1 133.678V84.5594L43.5381 60Z" stroke="white"/>
</svg>
