<svg xmlns="http://www.w3.org/2000/svg" width="417" height="359" fill="none"><rect id="backgroundrect" width="100%" height="100%" x="0" y="0" fill="none" stroke="none" class="" style=""/>











<g class="currentLayer" style=""><title>Layer 1</title><path d="M134.49999725818634,155.4740037550926 L80.00949725818634,191.8010037550926 L65.60439725818634,182.11400375509263 L57.26799725818634,186.14900375509262 L79.99039725818633,201.42800375509262 L142.49999725818634,159.75500375509262 V92.79550375509262 L79.99139725818634,57.00000375509262 L17.99999725818634,92.80540375509263 V159.75500375509262 L40.23419725818634,174.57800375509262 C49.53799725818634,180.78000375509262 61.99999725818634,174.1110037550926 61.99999725818634,162.92900375509262 V105.11400375509263 H53.99999725818634 V162.92900375509262 C53.99999725818634,167.72100375509262 48.65909725818634,170.58000375509263 44.67179725818634,167.9210037550926 L25.99999725818634,155.4740037550926 V97.42330375509262 L80.00859725818634,66.22870375509262 L134.49999725818634,97.43320375509262 V155.4740037550926 z" stroke="white" id="svg_1" class=""/><path d="M103.77799725818635,138.0210037550926 L103.77799725818635,138.0210037550926 L103.78099725818635,138.0280037550926 C104.12599725818635,138.72100375509262 104.30499725818635,139.51900375509263 104.30499725818635,140.43100375509263 C104.27699725818634,142.34600375509262 103.36599725818634,143.89300375509262 101.47999725818634,145.0930037550926 C99.58099725818634,146.3010037550926 96.95439725818635,146.93100375509263 93.55369725818635,146.93100375509263 C92.20169725818634,146.93100375509263 90.83329725818633,146.78600375509262 89.44809725818634,146.49600375509263 C88.08379725818634,146.21000375509263 86.83839725818635,145.72500375509262 85.70829725818633,145.04300375509263 C84.61989725818634,144.36900375509262 83.69689725818634,143.48400375509263 82.93819725818634,142.38300375509263 C82.22909725818634,141.31100375509263 81.80699725818634,139.9740037550926 81.69369725818635,138.35000375509262 L81.66119725818633,137.8840037550926 H81.19489725818634 H72.99999725818634 H72.49999725818634 V138.3840037550926 C72.49999725818634,140.51200375509262 72.97559725818634,142.56100375509263 73.92269725818635,144.5280037550926 L73.92269725818635,144.5280037550926 L73.92549725818634,144.5340037550926 C74.90329725818634,146.50100375509263 76.29189725818634,148.23400375509263 78.08359725818634,149.73100375509262 L78.08359725818634,149.73100375509262 L78.09069725818634,149.7360037550926 C79.91409725818635,151.20400375509263 82.12229725818634,152.38800375509263 84.70599725818634,153.2950037550926 L84.71089725818634,153.2960037550926 C87.31189725818633,154.17900375509262 90.26179725818633,154.61500375509263 93.55369725818635,154.61500375509263 C96.42879725818634,154.61500375509263 99.08899725818634,154.26900375509263 101.53199725818634,153.57100375509262 C103.96999725818634,152.87400375509262 106.07799725818634,151.88600375509262 107.84599725818634,150.59800375509263 C109.61399725818634,149.31000375509262 110.99399725818634,147.7540037550926 111.97699725818634,145.9330037550926 C112.99399725818634,144.10200375509262 113.49999725818634,142.07200375509262 113.49999725818634,139.8550037550926 C113.49999725818634,137.79200375509262 113.05599725818634,135.95300375509262 112.15299725818635,134.35400375509263 C111.28499725818634,132.7660037550926 110.02099725818634,131.3900037550926 108.37399725818634,130.2240037550926 C106.73199725818634,129.03100375509263 104.72299725818634,128.03100375509263 102.35699725818634,127.21700375509263 C99.99899725818634,126.37700375509262 97.33519725818634,125.64400375509263 94.36579725818633,125.01600375509263 L94.36579725818633,125.01600375509263 L94.35979725818635,125.01500375509262 C92.12719725818634,124.57200375509262 90.28749725818633,124.11600375509262 88.83589725818634,123.64900375509262 C87.41779725818634,123.18300375509263 86.29849725818634,122.66600375509262 85.46339725818635,122.10700375509262 C84.66149725818634,121.55000375509262 84.12449725818634,120.94400375509262 83.81669725818634,120.29900375509263 C83.49899725818634,119.63300375509262 83.33389725818634,118.86200375509262 83.33389725818634,117.97400375509262 C83.33389725818634,117.13700375509262 83.53449725818633,116.32400375509262 83.94299725818634,115.52900375509262 C84.34779725818635,114.74200375509263 84.94509725818634,114.04100375509262 85.74749725818634,113.42800375509262 C86.57659725818634,112.81700375509261 87.61239725818633,112.32100375509262 88.86629725818634,111.94800375509261 C90.13959725818634,111.57800375509262 91.62609725818633,111.38900375509262 93.33219725818634,111.38900375509262 C94.96889725818635,111.38900375509262 96.41649725818634,111.62000375509263 97.68209725818635,112.07300375509261 L97.68539725818634,112.07400375509262 C98.99839725818634,112.53300375509262 100.09699725818633,113.13100375509262 100.98899725818634,113.86100375509263 C101.88599725818634,114.59400375509261 102.57999725818634,115.43300375509263 103.07799725818634,116.38000375509262 L103.07799725818634,116.38000375509262 L103.08099725818634,116.38600375509262 C103.57599725818633,117.29800375509262 103.81799725818634,118.22700375509262 103.81799725818634,119.17800375509262 V119.67800375509262 H104.31799725818634 H112.51299725818635 H113.01299725818635 V119.17800375509262 C113.01299725818635,116.99500375509263 112.53899725818634,114.95800375509262 111.58799725818633,113.07400375509262 C110.66899725818634,111.16600375509262 109.35399725818634,109.50600375509262 107.64899725818634,108.09700375509262 C105.93899725818633,106.68500375509262 103.87399725818634,105.58700375509262 101.46099725818634,104.79900375509263 C99.03999725818635,104.00700375509263 96.32849725818635,103.61500375509262 93.33219725818634,103.61500375509262 C90.54059725818634,103.61500375509262 87.96319725818634,103.99300375509262 85.60399725818634,104.75300375509262 L85.60219725818634,104.75400375509263 C83.28179725818634,105.51200375509262 81.26529725818634,106.54700375509262 79.56029725818634,107.86400375509263 C77.85489725818634,109.18100375509262 76.52249725818633,110.73500375509262 75.57149725818634,112.52400375509262 C74.61629725818634,114.29200375509262 74.13899725818634,116.20000375509262 74.13899725818634,118.24200375509263 C74.13899725818634,120.30900375509262 74.59979725818634,122.15100375509262 75.53629725818634,123.75300375509262 L75.53619725818633,123.75300375509262 L75.53849725818634,123.75600375509262 C76.46449725818634,125.30900375509262 77.75569725818634,126.66600375509262 79.39989725818634,127.83000375509263 L79.39979725818634,127.83000375509263 L79.40859725818635,127.83600375509263 C81.07409725818634,128.96300375509261 83.04759725818634,129.93100375509263 85.32339725818635,130.74500375509263 L85.32539725818634,130.74500375509263 C87.62379725818634,131.55600375509263 90.15629725818634,132.24500375509263 92.92149725818633,132.8140037550926 L92.92479725818635,132.8140037550926 C95.15269725818634,133.25700375509263 96.99979725818633,133.75500375509262 98.47239725818633,134.3070037550926 L98.47229725818634,134.3070037550926 L98.48049725818635,134.31000375509262 C99.95999725818633,134.83500375509263 101.12399725818634,135.41100375509262 101.98999725818634,136.0280037550926 C102.85399725818634,136.6460037550926 103.43899725818633,137.3130037550926 103.77799725818635,138.0210037550926 z" stroke="white" id="svg_2" class=""/><path d="M107.67499725818634,0.0001837550926209186 C107.52399725818634,0.0002837550926209076 107.37599725818635,0.0395837550926208 107.24499725818634,0.11421375509262077 C107.11599725818634,0.19020375509262077 107.00799725818634,0.2987137550926209 106.93299725818635,0.429053755092621 C106.85699725818634,0.559403755092621 106.81699725818633,0.7070837550926208 106.81699725818633,0.857543755092621 V22.72530375509262 C106.81699725818633,22.939903755092622 106.71699725818634,23.132103755092622 106.53099725818635,23.23980375509262 C106.43999725818634,23.29290375509262 106.33599725818634,23.320903755092623 106.23099725818633,23.320903755092623 C106.12499725818634,23.320903755092623 106.02199725818635,23.29290375509262 105.93099725818634,23.23980375509262 L102.35699725818634,21.18180375509262 C102.09599725818634,21.03100375509262 101.79999725818634,20.95160375509262 101.49899725818634,20.95160375509262 C101.19799725818633,20.95160375509262 100.90199725818634,21.03100375509262 100.64099725818635,21.18180375509262 L86.37409725818634,29.414103755092622 C85.84079725818634,29.722003755092622 85.51659725818634,30.313603755092622 85.51659725818634,30.929403755092622 V47.39440375509262 C85.51659725818634,48.00940375509262 85.84119725818634,48.57280375509262 86.37409725818634,48.88070375509262 L100.64099725818635,57.11340375509262 C100.90199725818634,57.26460375509262 101.19799725818633,57.34420375509262 101.49899725818634,57.34420375509262 C101.79999725818634,57.34420375509262 102.09599725818634,57.26460375509262 102.35699725818634,57.11340375509262 L116.62399725818634,48.88070375509262 C116.88499725818635,48.730403755092624 117.10199725818634,48.513803755092624 117.25199725818634,48.25280375509262 C117.40299725818635,47.99180375509262 117.48199725818634,47.69570375509262 117.48099725818633,47.39440375509262 V6.346143755092621 C117.48099725818633,6.03776375509262 117.39899725818634,5.735013755092621 117.24299725818634,5.468803755092621 C117.08699725818634,5.202593755092621 116.86399725818634,4.982453755092621 116.59499725818634,4.830863755092621 L108.10299725818633,0.08560375509262097 C107.96999725818634,0.01131375509262078 107.82199725818634,-0.0017982449073791207 107.67499725818634,0.0001837550926209186 V0.0001837550926209186 zM15.89659725818634,20.552903755092622 C15.62479725818634,20.563603755092622 15.36889725818634,20.61130375509262 15.12489725818634,20.75280375509262 L0.8575372581863405,28.98540375509262 C0.5961972581863404,29.13560375509262 0.3792072581863404,29.35210375509262 0.22859725818634047,29.61310375509262 C0.0779972581863404,29.874203755092623 -0.0008697418136597301,30.17040375509262 0.000007258186340397543,30.47170375509262 L0.028617258186340422,52.56870375509262 C0.028617258186340422,52.87580375509262 0.1871672581863404,53.16150375509262 0.4573872581863403,53.31170375509262 C0.5869372581863406,53.38950375509262 0.7352172581863403,53.43060375509262 0.8863472581863405,53.43060375509262 C1.0374872581863404,53.43060375509262 1.1857672581863405,53.38950375509262 1.3153172581863406,53.31170375509262 L9.77819725818634,48.45240375509262 C10.31429725818634,48.13380375509262 10.66439725818634,47.57990375509262 10.66439725818634,46.96570375509262 V36.64640375509262 C10.66439725818634,36.03060375509262 10.988297258186341,35.46570375509262 11.52229725818634,35.15980375509262 L15.124497258186341,33.07320375509262 C15.384997258186342,32.92180375509262 15.68119725818634,32.84280375509262 15.982497258186342,32.84430375509262 C16.27649725818634,32.84430375509262 16.57849725818634,32.91780375509262 16.83999725818634,33.07320375509262 L20.44259725818634,35.15980375509262 C20.70419725818634,35.30970375509262 20.92139725818634,35.52630375509262 21.07209725818634,35.78740375509262 C21.22279725818634,36.04860375509262 21.30159725818634,36.34500375509262 21.30059725818634,36.64640375509262 V46.96530375509262 C21.30059725818634,47.579503755092624 21.65419725818634,48.137303755092624 22.18669725818634,48.45200375509262 L30.64959725818634,53.31170375509262 C30.77919725818634,53.38950375509262 30.92749725818634,53.43060375509262 31.078597258186342,53.43060375509262 C31.22969725818634,53.43060375509262 31.37799725818634,53.38950375509262 31.507597258186337,53.31170375509262 C31.63799725818634,53.23620375509262 31.746197258186342,53.12780375509262 31.821597258186344,52.99740375509262 C31.896897258186343,52.86690375509262 31.93659725818634,52.71900375509262 31.936697258186342,52.56830375509262 L31.96449725818634,30.47170375509262 C31.96619725818634,30.170203755092622 31.887697258186343,29.87370375509262 31.736997258186342,29.61250375509262 C31.58629725818634,29.35130375509262 31.368897258186344,29.134903755092623 31.10699725818634,28.98540375509262 L16.83999725818634,20.75280375509262 C16.59879725818634,20.61130375509262 16.34209725818634,20.56400375509262 16.06829725818634,20.552903755092622 H15.89659725818634 zM144.09999725818633,20.75280375509262 C143.80199725818633,20.75280375509262 143.50999725818633,20.82820375509262 143.24199725818633,20.98160375509262 L128.97499725818633,29.214303755092622 C128.71399725818634,29.36450375509262 128.49699725818635,29.58110375509262 128.34599725818634,29.84210375509262 C128.19599725818634,30.103103755092622 128.11699725818633,30.39920375509262 128.11699725818633,30.700603755092622 V47.16550375509262 C128.11699725818633,47.78490375509262 128.46599725818635,48.34590375509262 129.00299725818633,48.65220375509262 L143.15599725818635,56.71330375509262 C143.67899725818634,57.01130375509262 144.31699725818635,57.033903755092624 144.84299725818633,56.741103755092624 L153.42099725818633,51.96760375509262 C153.69299725818635,51.81670375509262 153.87699725818635,51.53460375509262 153.87799725818633,51.22470375509262 C153.87899725818633,51.07380375509262 153.83999725818634,50.92530375509262 153.76499725818633,50.79450375509262 C153.68999725818634,50.66380375509262 153.58099725818633,50.55570375509262 153.44899725818635,50.48140375509262 L139.09599725818634,42.24870375509262 C138.82799725818634,42.09530375509262 138.63899725818635,41.78500375509262 138.63899725818635,41.47670375509262 V36.33180375509262 C138.63899725818635,36.02390375509262 138.82999725818635,35.74180375509262 139.09599725818634,35.58840375509262 L143.55699725818633,33.01560375509262 C143.68699725818635,32.94010375509262 143.83499725818635,32.90040375509262 143.98499725818635,32.90040375509262 C144.13599725818634,32.90040375509262 144.28399725818633,32.94010375509262 144.41399725818633,33.01560375509262 L148.87399725818634,35.58840375509262 C149.00499725818634,35.66350375509262 149.11299725818634,35.771703755092624 149.18899725818633,35.90220375509262 C149.26399725818635,36.03270375509262 149.30399725818634,36.18070375509262 149.30299725818634,36.33140375509262 V40.390503755092624 C149.30299725818634,40.541203755092624 149.34199725818635,40.68920375509262 149.41799725818635,40.81970375509262 C149.49299725818634,40.95020375509262 149.60099725818634,41.05840375509262 149.73199725818634,41.13350375509262 C149.99999725818634,41.28800375509262 150.32299725818635,41.288403755092624 150.58999725818634,41.13350375509262 L159.13899725818635,36.16050375509262 C159.39999725818635,36.00970375509262 159.61599725818635,35.792903755092624 159.76699725818634,35.53200375509262 C159.91699725818634,35.27110375509262 159.99699725818635,34.97510375509262 159.99699725818635,34.673903755092624 V30.70100375509262 C159.99699725818635,30.08710375509262 159.67099725818633,29.52260375509262 159.13899725818635,29.214303755092622 L144.95799725818634,20.98160375509262 C144.69699725818634,20.83080375509262 144.40099725818635,20.75200375509262 144.09999725818633,20.75320375509262 V20.75280375509262 zM101.44099725818634,33.04460375509262 C101.51599725818635,33.04460375509262 101.60399725818634,33.06290375509262 101.66999725818634,33.10140375509262 L106.55999725818634,35.93130375509262 C106.69199725818635,36.00800375509262 106.78799725818634,36.14980375509262 106.78799725818634,36.30280375509262 V41.96260375509262 C106.78799725818634,42.11640375509262 106.69299725818634,42.257803755092624 106.55999725818634,42.33450375509262 L101.66999725818634,45.16440375509262 C101.60499725818634,45.20170375509262 101.53099725818635,45.22130375509262 101.45599725818634,45.22130375509262 C101.38099725818634,45.22130375509262 101.30699725818634,45.20170375509262 101.24199725818634,45.16440375509262 L96.35259725818634,42.33450375509262 C96.21949725818634,42.25740375509262 96.12369725818634,42.11640375509262 96.12369725818634,41.96260375509262 V36.30280375509262 C96.12369725818634,36.14940375509262 96.21989725818634,36.00880375509262 96.35259725818634,35.93130375509262 L101.24199725818634,33.10180375509262 C101.30199725818635,33.06440375509262 101.37099725818634,33.04470375509262 101.44199725818633,33.04500375509262 V33.04460375509262 H101.44099725818634 z" stroke="white" id="svg_3" class=""/><path d="M58.756097258186344,21.16800375509262 L58.75489725818634,21.16800375509262 C58.54329725818634,21.16800375509262 58.335497258186344,21.22150375509262 58.14699725818634,21.330103755092622 L58.14659725818634,21.330303755092622 L43.87979725818634,29.534303755092623 C43.87969725818634,29.534303755092623 43.87969725818634,29.534303755092623 43.879597258186344,29.534303755092623 C43.50979725818634,29.74730375509262 43.27249725818634,30.16950375509262 43.27249725818634,30.61580375509262 V47.080803755092624 C43.27249725818634,47.51800375509262 43.50189725818634,47.91560375509262 43.88059725818634,48.13460375509262 L58.14729725818634,56.36670375509262 L58.14849725818634,56.367403755092624 C58.33279725818634,56.474403755092624 58.54199725818634,56.53080375509262 58.75509725818634,56.53080375509262 C58.96819725818634,56.53080375509262 59.17749725818634,56.474403755092624 59.36169725818634,56.367403755092624 L59.36299725818634,56.36670375509262 L73.62999725818634,48.13440375509262 L73.63039725818633,48.13410375509262 C73.81529725818633,48.027703755092624 73.96879725818634,47.87430375509262 74.07539725818634,47.68950375509262 C74.18189725818634,47.50470375509262 74.23779725818633,47.29510375509262 74.23739725818633,47.08180375509262 L74.23739725818633,47.080803755092624 L74.23739725818633,30.61580375509262 C74.23739725818633,30.168803755092622 74.00019725818635,29.74730375509262 73.63059725818634,29.534303755092623 L58.756097258186344,21.16800375509262 zM58.756097258186344,21.16800375509262 C58.96909725818634,21.16750375509262 59.178397258186344,21.22330375509262 59.36279725818634,21.32980375509262 L59.36359725818634,21.330303755092622 L73.63029725818635,29.53420375509262 L58.756097258186344,21.16800375509262 zM73.87989725818635,29.10090375509262 L59.612897258186344,20.89680375509262 L57.89739725818634,56.79970375509262 C58.15789725818634,56.95110375509262 58.45379725818634,57.03080375509262 58.75509725818634,57.03080375509262 C59.05639725818634,57.03080375509262 59.35229725818634,56.95110375509262 59.612897258186344,56.79970375509262 L73.87989725818635,48.56740375509262 C74.14109725818633,48.41700375509262 74.35789725818634,48.20040375509262 74.50849725818634,47.939303755092624 C74.65899725818635,47.67830375509262 74.73799725818634,47.38210375509262 74.73739725818633,47.080803755092624 V30.61580375509262 C74.73739725818633,30.00000375509262 74.41309725818634,29.408003755092622 73.87989725818635,29.10090375509262 zM141.48399725818635,40.31850375509262 V37.37770375509262 L144.05699725818633,35.876603755092624 L146.63099725818634,37.37770375509262 V40.31810375509262 L144.05699725818633,41.79250375509262 L141.48399725818635,40.31850375509262 z" stroke="white" id="svg_4" class=""/><path fill-rule="evenodd" clip-rule="evenodd" d="M195.0316581468582,198.69231122732162 L268.4881581468582,230.6303112273216 L254.73915814685822,317.88631122732164 L195.14065814685821,358.86031122732163 L130.7244481468582,317.86731122732164 L123.84615814685822,230.56631122732162 L195.0316581468582,198.69231122732162 zM195.07915814685822,207.43631122732162 L132.2645681468582,235.56231122732163 L138.3862581468582,313.26131122732164 L194.9700581468582,349.2693112273216 L247.37215814685823,313.24231122732164 L259.6221581468582,235.49831122732164 L195.07915814685822,207.43631122732162 z" stroke="white" id="svg_5" class=""/><path fill-rule="evenodd" clip-rule="evenodd" d="M196.0785581468582,236.28931122732163 L163.2139581468582,306.1853112273216 H168.45835814685822 L175.79325814685822,291.7003112273216 C176.43175814685821,290.43931122732164 177.7370581468582,289.6423112273216 179.16485814685822,289.6423112273216 H212.98015814685823 C214.46355814685822,289.6423112273216 215.8090581468582,290.50131122732165 216.4177581468582,291.8373112273216 L222.9571581468582,306.1853112273216 H228.9431581468582 L196.0785581468582,236.28931122732163 zM192.6594581468582,227.84731122732163 C194.0103581468582,224.97431122732164 198.14665814685821,224.97431122732164 199.4975581468582,227.84731122732163 L236.95615814685823,307.51331122732165 C238.1161581468582,309.98031122732164 236.2911581468582,312.8033112273216 233.53715814685822,312.8033112273216 H221.0609581468582 C219.57755814685822,312.8033112273216 218.2321581468582,311.94431122732163 217.6233581468582,310.6083112273216 L211.0844581468582,296.25931122732163 H180.9768581468582 L173.6419581468582,310.7453112273216 C173.0034581468582,312.00631122732165 171.69815814685822,312.8033112273216 170.2703581468582,312.8033112273216 H158.62015814685822 C155.8654581468582,312.8033112273216 154.0411581468582,309.98031122732164 155.2011581468582,307.51331122732165 L192.6594581468582,227.84731122732163 zM196.13295814685821,263.9543112273216 L190.1473581468582,275.99431122732165 H202.34025814685822 L196.13295814685821,263.9543112273216 z" stroke="white" id="svg_6" class=""/><path fill-rule="evenodd" clip-rule="evenodd" d="M327.9170777025223,0.6207975513572705 L417.4230777025223,53.48693555135728 V149.61123555135728 L327.9170777025223,199.86023555135728 L238.92307770252228,149.60523555135728 V53.493735551357275 L327.9170777025223,0.6207975513572705 zM327.92907770252225,9.919135551357272 L246.92307770252228,58.04613555135727 V144.93523555135727 L327.92907770252225,190.67923555135727 L409.4230777025223,144.92823555135726 V58.05303555135727 L327.92907770252225,9.919135551357272 z" stroke="white" id="svg_7" class=""/><path fill-rule="evenodd" clip-rule="evenodd" d="M362.12307770252227,69.94183555135727 C360.4400777025223,81.68073555135727 355.21907770252227,96.54383555135728 346.7470777025223,111.64323555135726 C338.27507770252225,126.74323555135726 328.3110777025223,138.94523555135726 319.16907770252226,146.49923555135726 C314.5890777025223,150.28423555135726 310.36107770252227,152.78123555135727 306.7570777025223,153.97123555135727 C303.1560777025223,155.16023555135726 300.5470777025223,154.94123555135727 298.71907770252227,153.91523555135726 C296.89007770252226,152.88923555135727 295.34307770252224,150.77723555135728 294.48207770252225,147.08423555135727 C293.6200777025223,143.38823555135727 293.5470777025223,138.47823555135727 294.39107770252224,132.59623555135727 C296.0740777025223,120.85723555135726 301.2950777025223,105.99423555135726 309.7670777025223,90.89503555135727 C318.2390777025223,75.79553555135728 328.20307770252225,63.59343555135726 337.3450777025223,56.03923555135728 C341.9250777025223,52.25433555135727 346.1530777025223,49.75733555135727 349.7570777025223,48.56713555135727 C353.3580777025223,47.377835551357265 355.96707770252226,47.597035551357266 357.7950777025223,48.62293555135727 C359.6240777025223,49.64883555135728 361.17107770252227,51.76153555135727 362.03207770252226,55.45463555135727 C362.8940777025223,59.15033555135727 362.96707770252226,64.06033555135727 362.12307770252227,69.94183555135727 zM368.81307770252226,53.872735551357266 C367.68607770252225,49.04063555135727 365.31807770252226,44.85973555135726 361.2020777025223,42.55043555135727 C357.08707770252227,40.24123555135727 352.2850777025223,40.39933555135727 347.57307770252226,41.95543555135727 C342.8640777025223,43.51073555135727 337.8780777025223,46.56573555135728 332.90907770252227,50.67173555135727 C322.95307770252225,58.89933555135727 312.47707770252225,71.83483555135727 303.69507770252227,87.48793555135727 C294.9120777025223,103.14123555135727 289.3310777025223,118.82323555135727 287.49807770252227,131.60823555135727 C286.58307770252225,137.98923555135727 286.5740777025223,143.83623555135728 287.7010777025223,148.66523555135726 C288.82807770252225,153.49823555135728 291.1960777025223,157.67823555135726 295.3110777025223,159.98823555135726 C299.4270777025223,162.29723555135726 304.2290777025223,162.13923555135727 308.9410777025223,160.58323555135726 C313.65007770252225,159.02723555135728 318.63607770252224,155.97223555135727 323.6050777025223,151.86623555135728 C333.5610777025223,143.63923555135727 344.0370777025223,130.70323555135727 352.8190777025223,115.05023555135728 C361.60207770252225,99.39733555135727 367.18307770252227,83.71553555135726 369.0160777025223,70.93013555135727 C369.93107770252226,64.54943555135726 369.9400777025223,58.702335551357265 368.81307770252226,53.872735551357266 z" stroke="white" id="svg_8" class=""/><path fill-rule="evenodd" clip-rule="evenodd" d="M294.3870777025223,69.94183555135727 C296.07007770252227,81.68073555135727 301.2910777025223,96.54383555135728 309.7630777025223,111.64323555135726 C318.2350777025223,126.74323555135726 328.1990777025223,138.94523555135726 337.3410777025223,146.49923555135726 C341.92107770252227,150.28423555135726 346.1490777025223,152.78123555135727 349.7530777025223,153.97123555135727 C353.35407770252226,155.16023555135726 355.9630777025223,154.94123555135727 357.7920777025223,153.91523555135726 C359.6200777025223,152.88923555135727 361.1670777025223,150.77723555135728 362.0280777025223,147.08423555135727 C362.8910777025223,143.38823555135727 362.9630777025223,138.47823555135727 362.1200777025223,132.59623555135727 C360.43607770252225,120.85723555135726 355.21507770252225,105.99423555135726 346.74307770252227,90.89503555135727 C338.2710777025223,75.79553555135728 328.3070777025223,63.59343555135726 319.16507770252224,56.03923555135728 C314.5850777025223,52.25433555135727 310.35707770252225,49.75733555135727 306.7530777025223,48.56713555135727 C303.1520777025223,47.377835551357265 300.5430777025223,47.597035551357266 298.7150777025223,48.62293555135727 C296.88607770252224,49.64883555135728 295.3390777025223,51.76153555135727 294.4780777025223,55.45463555135727 C293.61607770252226,59.15033555135727 293.5430777025223,64.06033555135727 294.3870777025223,69.94183555135727 zM287.6970777025223,53.872735551357266 C288.8240777025223,49.04063555135727 291.1920777025223,44.85973555135726 295.30807770252227,42.55043555135727 C299.4230777025223,40.24123555135727 304.2260777025223,40.39933555135727 308.9370777025223,41.95543555135727 C313.6460777025223,43.51073555135727 318.6320777025223,46.56573555135728 323.6010777025223,50.67173555135727 C333.5570777025223,58.89933555135727 344.0330777025223,71.83483555135727 352.8150777025223,87.48793555135727 C361.5980777025223,103.14123555135727 367.17907770252225,118.82323555135727 369.0120777025223,131.60823555135727 C369.9270777025223,137.98923555135727 369.93607770252225,143.83623555135728 368.8090777025223,148.66523555135726 C367.6820777025223,153.49823555135728 365.3140777025223,157.67823555135726 361.1990777025223,159.98823555135726 C357.0830777025223,162.29723555135726 352.2810777025223,162.13923555135727 347.56907770252224,160.58323555135726 C342.8600777025223,159.02723555135728 337.8740777025223,155.97223555135727 332.9060777025223,151.86623555135728 C322.9490777025223,143.63923555135727 312.4730777025223,130.70323555135727 303.6910777025223,115.05023555135728 C294.9080777025223,99.39733555135727 289.3270777025223,83.71553555135726 287.4940777025223,70.93013555135727 C286.5790777025223,64.54943555135726 286.57007770252227,58.702335551357265 287.6970777025223,53.872735551357266 z" stroke="white" id="svg_9" class=""/><path fill-rule="evenodd" clip-rule="evenodd" d="M284.36107770252227,115.47523555135729 C295.4220777025223,119.75123555135727 310.93907770252224,122.47023555135726 328.2530777025223,122.47023555135726 C345.5670777025223,122.47023555135726 361.0840777025223,119.75123555135727 372.14507770252226,115.47523555135729 C377.6870777025223,113.33223555135726 381.9340777025223,110.86723555135728 384.7350777025223,108.30723555135728 C387.53407770252227,105.74823555135727 388.6200777025223,103.36523555135727 388.6200777025223,101.26923555135727 C388.6200777025223,99.17233555135726 387.53407770252227,96.78953555135728 384.7350777025223,94.23103555135727 C381.9340777025223,91.67083555135727 377.6870777025223,89.20523555135728 372.14507770252226,87.06273555135726 C361.0840777025223,82.78663555135726 345.5670777025223,80.06753555135727 328.2530777025223,80.06753555135727 C310.93907770252224,80.06753555135727 295.4220777025223,82.78663555135726 284.36107770252227,87.06273555135726 C278.81907770252224,89.20523555135728 274.5720777025223,91.67083555135727 271.7710777025223,94.23103555135727 C268.97207770252226,96.78953555135728 267.88607770252224,99.17233555135726 267.88607770252224,101.26923555135727 C267.88607770252224,103.36523555135727 268.97207770252226,105.74823555135727 271.7710777025223,108.30723555135728 C274.5720777025223,110.86723555135728 278.81907770252224,113.33223555135726 284.36107770252227,115.47523555135729 zM267.07307770252226,113.44623555135729 C263.4110777025223,110.09923555135725 260.9230777025223,105.98823555135726 260.9230777025223,101.26923555135727 C260.9230777025223,96.54953555135727 263.4110777025223,92.43893555135728 267.07307770252226,89.09143555135726 C270.7340777025223,85.74563555135727 275.83807770252224,82.89253555135727 281.8500777025223,80.56823555135728 C293.89707770252227,75.91093555135727 310.30407770252225,73.10453555135727 328.2530777025223,73.10453555135727 C346.2010777025223,73.10453555135727 362.6080777025223,75.91093555135727 374.6560777025223,80.56823555135728 C380.6680777025223,82.89243555135727 385.77207770252227,85.74563555135727 389.4320777025223,89.09143555135726 C393.0950777025223,92.43893555135728 395.58207770252227,96.54953555135727 395.58207770252227,101.26923555135727 C395.58207770252227,105.98823555135726 393.0950777025223,110.09923555135725 389.4320777025223,113.44623555135729 C385.77207770252227,116.79223555135727 380.6680777025223,119.64523555135727 374.6560777025223,121.96923555135726 C362.6080777025223,126.62723555135727 346.2010777025223,129.43323555135726 328.2530777025223,129.43323555135726 C310.30407770252225,129.43323555135726 293.89707770252227,126.62723555135727 281.8500777025223,121.96923555135726 C275.83807770252224,119.64523555135727 270.7340777025223,116.79223555135727 267.07307770252226,113.44623555135729 z" stroke="white" id="svg_10" class=""/><path d="M337.21807770252224,101.67223555135728 C337.21807770252224,107.24523555135727 332.70007770252226,111.76323555135727 327.1270777025223,111.76323555135727 C321.55407770252225,111.76323555135727 317.0360777025223,107.24523555135727 317.0360777025223,101.67223555135728 C317.0360777025223,96.09953555135726 321.55407770252225,91.58173555135727 327.1270777025223,91.58173555135727 C332.70007770252226,91.58173555135727 337.21807770252224,96.09953555135726 337.21807770252224,101.67223555135728 z" stroke="white" id="svg_11" class=""/></g></svg>