<svg width="110" height="104" viewBox="0 0 110 104" fill="none" xmlns="http://www.w3.org/2000/svg">
<path d="M63.6102 50.4297L63.6865 50.4459H43.9032H43.4032V50.9459V54.9341V55.4341H43.9032H63.7145H64.2145V54.9341V50.9459V50.4459H64.12L64.2037 50.0421L65.0156 46.1252L65.1164 45.6388L64.6306 45.5348L45.2468 41.3873L44.754 41.2819L44.6524 41.7755L43.8406 45.7224L43.7405 46.209L44.2264 46.3122L63.6102 50.4297ZM64.6077 45.3715L65.0659 45.5882L65.2763 45.127L66.9395 41.482L67.118 41.0908L67.1183 41.0911L67.4404 40.6963L69.9641 37.6026L70.2743 37.2223L70.2489 37.2008L70.6314 36.9099L73.802 34.4987L74.1933 34.2011L73.9024 33.8049L62.0861 17.7042L61.7852 17.2941L61.3804 17.602L58.2097 20.0133L57.8185 20.3108L58.1093 20.7071L69.9256 36.8078L70.1567 37.1226L69.9 36.9051L54.6956 24.0181L54.3069 23.6887L53.9848 24.0835L51.4611 27.1773L51.1509 27.5575L51.5252 27.8748L66.7297 40.7617L66.932 40.9332L66.6987 40.8226L48.7417 32.3138L48.2813 32.0957L48.0718 32.5602L46.4181 36.2277L46.2162 36.6753L46.6601 36.8852L64.6077 45.3715ZM35.5 63V63.5H36H71.6102H72.1102V63V46.9293V46.4293H71.6102H67.6483H67.1483V46.9293V58.4819H40.4619V46.9293V46.4293H39.9619H36H35.5V46.9293V63Z" stroke="white"/>
<path d="M8.01562 94.9609C8.01562 95.9661 7.65104 96.75 6.92188 97.3125C6.19271 97.875 5.20312 98.1562 3.95312 98.1562C2.59896 98.1562 1.55729 97.9818 0.828125 97.6328V96.3516C1.29688 96.5495 1.80729 96.7057 2.35938 96.8203C2.91146 96.9349 3.45833 96.9922 4 96.9922C4.88542 96.9922 5.55208 96.8255 6 96.4922C6.44792 96.1536 6.67188 95.6849 6.67188 95.0859C6.67188 94.6901 6.59115 94.3672 6.42969 94.1172C6.27344 93.862 6.00781 93.6276 5.63281 93.4141C5.26302 93.2005 4.69792 92.9583 3.9375 92.6875C2.875 92.3073 2.11458 91.8568 1.65625 91.3359C1.20312 90.8151 0.976562 90.1354 0.976562 89.2969C0.976562 88.4167 1.30729 87.7161 1.96875 87.1953C2.63021 86.6745 3.50521 86.4141 4.59375 86.4141C5.72917 86.4141 6.77344 86.6224 7.72656 87.0391L7.3125 88.1953C6.36979 87.7995 5.45312 87.6016 4.5625 87.6016C3.85938 87.6016 3.3099 87.7526 2.91406 88.0547C2.51823 88.3568 2.32031 88.776 2.32031 89.3125C2.32031 89.7083 2.39323 90.0339 2.53906 90.2891C2.6849 90.5391 2.92969 90.7708 3.27344 90.9844C3.6224 91.1927 4.15365 91.4245 4.86719 91.6797C6.0651 92.1068 6.88802 92.5651 7.33594 93.0547C7.78906 93.5443 8.01562 94.1797 8.01562 94.9609ZM13.4019 97.0859C13.631 97.0859 13.8524 97.0703 14.0659 97.0391C14.2795 97.0026 14.4487 96.9661 14.5737 96.9297V97.9219C14.4331 97.9896 14.2248 98.0443 13.9487 98.0859C13.6779 98.1328 13.4331 98.1562 13.2144 98.1562C11.5581 98.1562 10.73 97.2839 10.73 95.5391V90.4453H9.50344V89.8203L10.73 89.2812L11.2769 87.4531H12.0269V89.4375H14.5112V90.4453H12.0269V95.4844C12.0269 96 12.1493 96.3958 12.3941 96.6719C12.6389 96.9479 12.9748 97.0859 13.4019 97.0859ZM22.0381 98L21.7803 96.7812H21.7178C21.2907 97.3177 20.8636 97.6823 20.4366 97.875C20.0147 98.0625 19.486 98.1562 18.8506 98.1562C18.0017 98.1562 17.335 97.9375 16.8506 97.5C16.3715 97.0625 16.1319 96.4401 16.1319 95.6328C16.1319 93.9036 17.5147 92.9974 20.2803 92.9141L21.7334 92.8672V92.3359C21.7334 91.6641 21.5876 91.1693 21.2959 90.8516C21.0095 90.5286 20.5485 90.3672 19.9131 90.3672C19.1996 90.3672 18.3923 90.5859 17.4913 91.0234L17.0928 90.0312C17.5147 89.8021 17.9756 89.6224 18.4756 89.4922C18.9808 89.362 19.486 89.2969 19.9913 89.2969C21.0121 89.2969 21.7673 89.5234 22.2569 89.9766C22.7517 90.4297 22.9991 91.1562 22.9991 92.1562V98H22.0381ZM19.1084 97.0859C19.9157 97.0859 20.5485 96.8646 21.0069 96.4219C21.4704 95.9792 21.7022 95.3594 21.7022 94.5625V93.7891L20.4053 93.8438C19.3741 93.8802 18.6293 94.0417 18.1709 94.3281C17.7178 94.6094 17.4913 95.0495 17.4913 95.6484C17.4913 96.1172 17.6319 96.474 17.9131 96.7188C18.1996 96.9635 18.598 97.0859 19.1084 97.0859ZM29.5806 98.1562C28.341 98.1562 27.3801 97.776 26.6978 97.0156C26.0207 96.25 25.6822 95.1693 25.6822 93.7734C25.6822 92.3411 26.0259 91.2344 26.7134 90.4531C27.4061 89.6719 28.3905 89.2812 29.6666 89.2812C30.078 89.2812 30.4895 89.3255 30.9009 89.4141C31.3124 89.5026 31.6353 89.6068 31.8697 89.7266L31.4713 90.8281C31.1848 90.7135 30.8723 90.6198 30.5338 90.5469C30.1952 90.4688 29.8957 90.4297 29.6353 90.4297C27.8957 90.4297 27.0259 91.5391 27.0259 93.7578C27.0259 94.8099 27.2369 95.6172 27.6588 96.1797C28.0858 96.7422 28.716 97.0234 29.5494 97.0234C30.2629 97.0234 30.9947 96.8698 31.7447 96.5625V97.7109C31.1718 98.0078 30.4504 98.1562 29.5806 98.1562ZM35.545 93.6172C35.769 93.2995 36.1101 92.8828 36.5684 92.3672L39.3341 89.4375H40.8731L37.4044 93.0859L41.1153 98H39.545L36.5216 93.9531L35.545 94.7969V98H34.2637V85.8438H35.545V92.2891C35.545 92.5755 35.5242 93.0182 35.4825 93.6172H35.545ZM50.5406 93.7109C50.5406 95.1068 50.1891 96.1979 49.4859 96.9844C48.7828 97.7656 47.8115 98.1562 46.5719 98.1562C45.8063 98.1562 45.1266 97.9766 44.5328 97.6172C43.9391 97.2578 43.4807 96.7422 43.1578 96.0703C42.8349 95.3984 42.6734 94.612 42.6734 93.7109C42.6734 92.3151 43.0224 91.2292 43.7203 90.4531C44.4182 89.6719 45.387 89.2812 46.6266 89.2812C47.8245 89.2812 48.775 89.6797 49.4781 90.4766C50.1865 91.2734 50.5406 92.3516 50.5406 93.7109ZM44.0172 93.7109C44.0172 94.8047 44.2359 95.638 44.6734 96.2109C45.1109 96.7839 45.7542 97.0703 46.6031 97.0703C47.4521 97.0703 48.0953 96.7865 48.5328 96.2188C48.9755 95.6458 49.1969 94.8099 49.1969 93.7109C49.1969 92.6224 48.9755 91.7969 48.5328 91.2344C48.0953 90.6667 47.4469 90.3828 46.5875 90.3828C45.7385 90.3828 45.0979 90.6615 44.6656 91.2188C44.2333 91.776 44.0172 92.6068 44.0172 93.7109ZM55.1769 98L51.9269 89.4375H53.3175L55.1613 94.5156C55.5779 95.7031 55.8227 96.474 55.8956 96.8281H55.9581C56.0154 96.5521 56.1951 95.9818 56.4972 95.1172C56.8045 94.2474 57.4894 92.3542 58.5519 89.4375H59.9425L56.6925 98H55.1769ZM65.4147 98.1562C64.1491 98.1562 63.1491 97.7708 62.4147 97C61.6855 96.2292 61.3209 95.1589 61.3209 93.7891C61.3209 92.4089 61.6595 91.3125 62.3366 90.5C63.0189 89.6875 63.9329 89.2812 65.0788 89.2812C66.1517 89.2812 67.0006 89.6354 67.6256 90.3438C68.2506 91.0469 68.5631 91.9766 68.5631 93.1328V93.9531H62.6647C62.6907 94.9583 62.9433 95.7214 63.4225 96.2422C63.9069 96.763 64.5866 97.0234 65.4616 97.0234C66.3834 97.0234 67.2949 96.8307 68.1959 96.4453V97.6016C67.7376 97.7995 67.3027 97.9401 66.8913 98.0234C66.485 98.112 65.9928 98.1562 65.4147 98.1562ZM65.0631 90.3672C64.3756 90.3672 63.8261 90.5911 63.4147 91.0391C63.0084 91.487 62.7689 92.1068 62.6959 92.8984H67.1725C67.1725 92.0807 66.9902 91.4557 66.6256 91.0234C66.261 90.5859 65.7402 90.3672 65.0631 90.3672ZM75.1681 89.2812C75.5483 89.2812 75.8895 89.3125 76.1916 89.375L76.0119 90.5781C75.6577 90.5 75.3452 90.4609 75.0744 90.4609C74.3817 90.4609 73.7879 90.7422 73.2931 91.3047C72.8035 91.8672 72.5587 92.5677 72.5587 93.4062V98H71.2619V89.4375H72.3322L72.4806 91.0234H72.5431C72.8608 90.4661 73.2436 90.0365 73.6916 89.7344C74.1395 89.4323 74.6317 89.2812 75.1681 89.2812ZM82.1325 90.4453H79.9528V98H78.6559V90.4453H77.1247V89.8594L78.6559 89.3906V88.9141C78.6559 86.8099 79.5752 85.7578 81.4137 85.7578C81.8669 85.7578 82.3981 85.849 83.0075 86.0312L82.6716 87.0703C82.1716 86.9089 81.7445 86.8281 81.3903 86.8281C80.9007 86.8281 80.5387 86.9922 80.3044 87.3203C80.07 87.6432 79.9528 88.1641 79.9528 88.8828V89.4375H82.1325V90.4453ZM84.9919 98H83.695V85.8438H84.9919V98ZM95.6125 93.7109C95.6125 95.1068 95.2609 96.1979 94.5578 96.9844C93.8547 97.7656 92.8833 98.1562 91.6438 98.1562C90.8781 98.1562 90.1984 97.9766 89.6047 97.6172C89.0109 97.2578 88.5526 96.7422 88.2297 96.0703C87.9068 95.3984 87.7453 94.612 87.7453 93.7109C87.7453 92.3151 88.0943 91.2292 88.7922 90.4531C89.4901 89.6719 90.4589 89.2812 91.6984 89.2812C92.8964 89.2812 93.8469 89.6797 94.55 90.4766C95.2583 91.2734 95.6125 92.3516 95.6125 93.7109ZM89.0891 93.7109C89.0891 94.8047 89.3078 95.638 89.7453 96.2109C90.1828 96.7839 90.826 97.0703 91.675 97.0703C92.524 97.0703 93.1672 96.7865 93.6047 96.2188C94.0474 95.6458 94.2688 94.8099 94.2688 93.7109C94.2688 92.6224 94.0474 91.7969 93.6047 91.2344C93.1672 90.6667 92.5188 90.3828 91.6594 90.3828C90.8104 90.3828 90.1698 90.6615 89.7375 91.2188C89.3052 91.776 89.0891 92.6068 89.0891 93.7109ZM105.366 98L103.796 92.9766C103.697 92.6693 103.512 91.9714 103.241 90.8828H103.178C102.97 91.7943 102.788 92.4974 102.632 92.9922L101.014 98H99.5144L97.1784 89.4375H98.5378C99.0899 91.5885 99.5092 93.2266 99.7956 94.3516C100.087 95.4766 100.254 96.2344 100.296 96.625H100.358C100.415 96.3281 100.507 95.9453 100.632 95.4766C100.762 95.0026 100.874 94.6276 100.967 94.3516L102.538 89.4375H103.944L105.475 94.3516C105.767 95.2474 105.965 96 106.069 96.6094H106.132C106.152 96.4219 106.207 96.1328 106.296 95.7422C106.389 95.3516 106.934 93.25 107.928 89.4375H109.272L106.905 98H105.366Z" fill="white"/>
</svg>
