<svg width="86" height="104" viewBox="0 0 86 104" fill="none" xmlns="http://www.w3.org/2000/svg">
<path fill-rule="evenodd" clip-rule="evenodd" d="M51.1487 30.0736L50.6574 28.9913C47.9879 23.1101 42.0372 19 35.125 19C25.7192 19 18.1091 26.5633 18.11 35.8829C18.11 36.0172 18.1185 36.1608 18.1328 36.3164L18.2087 37.1423L17.4111 37.3697C15.0222 38.0506 12.9116 39.8078 11.3863 41.9832C9.8572 44.1641 9 46.6468 9 48.646V49.83C9 52.3995 10.4078 55.0899 12.8255 57.1665C15.232 59.2337 18.5669 60.623 22.254 60.623H64.234C67.9138 60.623 71.2494 59.2339 73.6586 57.1663C76.0789 55.0891 77.49 52.3987 77.49 49.83V48.646C77.49 46.2357 76.2499 43.3941 74.1022 41.0613C71.9657 38.7407 69.0265 37.0297 65.7678 36.7575L64.8789 36.6833L64.8515 35.7917C64.7182 31.4574 61.1473 27.986 56.738 27.986C55.0227 27.986 53.4366 28.515 52.131 29.4045L51.1487 30.0736ZM24.91 37.93H29.8205L34.7096 56.377H29.8742L28.8512 52.348H25.5512L24.4872 56.377H19.6307L24.91 37.93ZM24.781 51.348H29.629L30.652 55.377H33.41L29.051 38.93H25.664L20.957 55.377H23.717L24.781 51.348ZM42.967 38.93L45.193 51.781H45.24L47.394 38.93H50.016L46.724 55.377H43.666L41.533 42.986H41.484L39.373 55.377H36.31L33.113 38.93H35.781L37.957 51.713H38.006L40.183 38.93H42.967ZM37.9817 45.8992L39.3389 37.93H43.8087L45.2007 45.9662L46.5477 37.93H51.236L47.5437 56.377H42.8234L41.5135 48.7673L40.217 56.377H35.4857L31.8999 37.93H36.6252L37.9817 45.8992ZM61.4277 42.309C61.2965 40.6582 60.5154 38.608 56.767 38.608C53.66 38.608 51.619 40.268 51.619 43.266C51.619 45.612 52.66 46.856 55.072 47.774L56.881 48.401C58.369 48.835 59.248 49.598 59.248 51.323C59.248 52.544 58.41 53.721 56.742 53.721C54.914 53.721 54.031 52.705 54.031 50.703V50.285H51.385V50.678C51.385 50.8779 51.392 51.0809 51.4075 51.285C51.5702 53.4336 52.6707 55.698 56.416 55.698C59.756 55.698 61.893 54.249 61.893 50.751C61.892 48.49 60.869 47.221 58.527 46.394L56.742 45.746C54.98 45.08 54.262 44.365 54.262 42.963C54.262 41.209 55.352 40.588 56.485 40.588C58.131 40.588 58.805 41.463 58.805 42.963V43.309H61.451V42.936C61.451 42.7377 61.445 42.5268 61.4277 42.309ZM57.0895 44.8083C56.2555 44.4925 55.817 44.2157 55.5793 43.9557C55.3827 43.7407 55.262 43.4709 55.262 42.963C55.262 42.3027 55.4593 42.0042 55.6194 41.8595C55.799 41.697 56.0884 41.588 56.485 41.588C57.1376 41.588 57.4049 41.7582 57.5268 41.8905C57.6632 42.0387 57.805 42.3421 57.805 42.963V44.309H62.451V42.936C62.451 42.0323 62.3425 40.6772 61.5052 39.5409C60.6232 38.344 59.1051 37.608 56.767 37.608C55.0444 37.608 53.4976 38.0686 52.3677 39.0616C51.2202 40.0701 50.619 41.5263 50.619 43.266C50.619 44.5928 50.9165 45.7286 51.653 46.6712C52.3738 47.5937 53.4284 48.2184 54.7163 48.7086L54.7303 48.7139L56.5771 49.354L56.601 49.361C57.2605 49.5534 57.6451 49.7812 57.8721 50.0389C58.0788 50.2735 58.248 50.6391 58.248 51.323C58.248 51.7104 58.1151 52.0563 57.8902 52.2968C57.6783 52.5233 57.3251 52.721 56.742 52.721C56.0113 52.721 55.6485 52.523 55.4477 52.2975C55.2269 52.0497 55.031 51.5788 55.031 50.703V49.285H50.385V50.678C50.385 51.9383 50.6349 53.4487 51.5705 54.6628C52.5436 55.9254 54.1246 56.698 56.416 56.698C58.2085 56.698 59.8476 56.3122 61.0502 55.3019C62.285 54.2647 62.893 52.7121 62.893 50.751C62.8924 49.4649 62.5982 48.345 61.8763 47.4197C61.167 46.5104 60.1311 45.9005 58.8643 45.4526C58.8629 45.4521 58.8614 45.4516 58.86 45.4511L57.0895 44.8083ZM51.568 28.578C51.8443 28.3897 52.1319 28.2159 52.4296 28.0576C53.71 27.377 55.1769 26.986 56.738 26.986C61.683 26.986 65.701 30.882 65.851 35.761C72.964 36.355 78.49 43.2 78.49 48.646V49.83C78.49 55.693 72.095 61.623 64.234 61.623H22.254C14.379 61.623 8 55.693 8 49.83V48.646C8 44.144 11.801 37.929 17.137 36.408C17.121 36.234 17.11 36.058 17.11 35.883C17.109 26.004 25.174 18 35.125 18C42.0822 18 48.1184 21.9334 51.125 27.6711C51.2809 27.9686 51.4287 28.271 51.568 28.578ZM25.271 49.252H29.189L27.287 41.141H27.244L25.271 49.252ZM26.5434 48.252L27.2481 45.3551L27.9274 48.252H26.5434Z" fill="white"/>
<path d="M8.75 98L7.32812 94.3672H2.75L1.34375 98H0L4.51562 86.5312H5.63281L10.125 98H8.75ZM6.91406 93.1719L5.58594 89.6328C5.41406 89.1849 5.23698 88.6354 5.05469 87.9844C4.9401 88.4844 4.77604 89.0339 4.5625 89.6328L3.21875 93.1719H6.91406ZM22.1441 98H20.8316L18.5269 90.3516C18.4175 90.013 18.2951 89.5859 18.1597 89.0703C18.0243 88.5547 17.954 88.2448 17.9487 88.1406C17.8342 88.8281 17.6519 89.5807 17.4019 90.3984L15.1675 98H13.855L10.8159 86.5781H12.2222L14.0269 93.6328C14.2769 94.6224 14.4592 95.5182 14.5737 96.3203C14.7144 95.3672 14.9227 94.4349 15.1987 93.5234L17.2456 86.5781H18.6519L20.8003 93.5859C21.0503 94.3932 21.2612 95.3047 21.4331 96.3203C21.5321 95.5807 21.7196 94.6797 21.9956 93.6172L23.7925 86.5781H25.1987L22.1441 98ZM33.9131 94.9609C33.9131 95.9661 33.5485 96.75 32.8194 97.3125C32.0902 97.875 31.1006 98.1562 29.8506 98.1562C28.4965 98.1562 27.4548 97.9818 26.7256 97.6328V96.3516C27.1944 96.5495 27.7048 96.7057 28.2569 96.8203C28.809 96.9349 29.3558 96.9922 29.8975 96.9922C30.7829 96.9922 31.4496 96.8255 31.8975 96.4922C32.3454 96.1536 32.5694 95.6849 32.5694 95.0859C32.5694 94.6901 32.4886 94.3672 32.3272 94.1172C32.1709 93.862 31.9053 93.6276 31.5303 93.4141C31.1605 93.2005 30.5954 92.9583 29.835 92.6875C28.7725 92.3073 28.0121 91.8568 27.5537 91.3359C27.1006 90.8151 26.8741 90.1354 26.8741 89.2969C26.8741 88.4167 27.2048 87.7161 27.8662 87.1953C28.5277 86.6745 29.4027 86.4141 30.4912 86.4141C31.6267 86.4141 32.6709 86.6224 33.6241 87.0391L33.21 88.1953C32.2673 87.7995 31.3506 87.6016 30.46 87.6016C29.7569 87.6016 29.2074 87.7526 28.8116 88.0547C28.4157 88.3568 28.2178 88.776 28.2178 89.3125C28.2178 89.7083 28.2907 90.0339 28.4366 90.2891C28.5824 90.5391 28.8272 90.7708 29.1709 90.9844C29.5199 91.1927 30.0511 91.4245 30.7647 91.6797C31.9626 92.1068 32.7855 92.5651 33.2334 93.0547C33.6866 93.5443 33.9131 94.1797 33.9131 94.9609ZM46.2559 87.6016C45.0007 87.6016 44.0085 88.0208 43.2794 88.8594C42.5554 89.6927 42.1934 90.8359 42.1934 92.2891C42.1934 93.7839 42.5424 94.9401 43.2403 95.7578C43.9434 96.5703 44.9434 96.9766 46.2403 96.9766C47.0372 96.9766 47.946 96.8333 48.9669 96.5469V97.7109C48.1752 98.0078 47.1986 98.1562 46.0372 98.1562C44.3549 98.1562 43.0554 97.6458 42.1387 96.625C41.2273 95.6042 40.7716 94.1536 40.7716 92.2734C40.7716 91.0964 40.9903 90.0651 41.4278 89.1797C41.8705 88.2943 42.5059 87.612 43.3341 87.1328C44.1674 86.6536 45.1466 86.4141 46.2716 86.4141C47.4695 86.4141 48.5164 86.6328 49.4122 87.0703L48.8497 88.2109C47.9851 87.8047 47.1205 87.6016 46.2559 87.6016ZM53.0406 98H51.7438V85.8438H53.0406V98ZM63.6613 93.7109C63.6613 95.1068 63.3097 96.1979 62.6066 96.9844C61.9034 97.7656 60.9321 98.1562 59.6925 98.1562C58.9269 98.1562 58.2472 97.9766 57.6534 97.6172C57.0597 97.2578 56.6014 96.7422 56.2784 96.0703C55.9555 95.3984 55.7941 94.612 55.7941 93.7109C55.7941 92.3151 56.143 91.2292 56.8409 90.4531C57.5389 89.6719 58.5076 89.2812 59.7472 89.2812C60.9451 89.2812 61.8956 89.6797 62.5988 90.4766C63.3071 91.2734 63.6613 92.3516 63.6613 93.7109ZM57.1378 93.7109C57.1378 94.8047 57.3566 95.638 57.7941 96.2109C58.2316 96.7839 58.8748 97.0703 59.7238 97.0703C60.5727 97.0703 61.2159 96.7865 61.6534 96.2188C62.0961 95.6458 62.3175 94.8099 62.3175 93.7109C62.3175 92.6224 62.0961 91.7969 61.6534 91.2344C61.2159 90.6667 60.5675 90.3828 59.7081 90.3828C58.8592 90.3828 58.2185 90.6615 57.7863 91.2188C57.354 91.776 57.1378 92.6068 57.1378 93.7109ZM67.6413 89.4375V94.9922C67.6413 95.6901 67.8001 96.2109 68.1178 96.5547C68.4355 96.8984 68.9329 97.0703 69.61 97.0703C70.5058 97.0703 71.1595 96.8255 71.5709 96.3359C71.9876 95.8464 72.1959 95.0469 72.1959 93.9375V89.4375H73.4928V98H72.4225L72.235 96.8516H72.1647C71.8991 97.2734 71.5293 97.5964 71.0553 97.8203C70.5866 98.0443 70.0501 98.1562 69.4459 98.1562C68.4043 98.1562 67.623 97.9089 67.1022 97.4141C66.5866 96.9193 66.3288 96.1276 66.3288 95.0391V89.4375H67.6413ZM82.5587 96.8516H82.4884C81.8895 97.7214 80.9936 98.1562 79.8009 98.1562C78.6811 98.1562 77.8087 97.7734 77.1837 97.0078C76.564 96.2422 76.2541 95.1536 76.2541 93.7422C76.2541 92.3307 76.5666 91.2344 77.1916 90.4531C77.8166 89.6719 78.6864 89.2812 79.8009 89.2812C80.9624 89.2812 81.853 89.7031 82.4728 90.5469H82.5744L82.5197 89.9297L82.4884 89.3281V85.8438H83.7853V98H82.7306L82.5587 96.8516ZM79.965 97.0703C80.8504 97.0703 81.491 96.8307 81.8869 96.3516C82.2879 95.8672 82.4884 95.0885 82.4884 94.0156V93.7422C82.4884 92.5286 82.2853 91.6641 81.8791 91.1484C81.478 90.6276 80.8348 90.3672 79.9494 90.3672C79.189 90.3672 78.6056 90.6641 78.1994 91.2578C77.7983 91.8464 77.5978 92.6797 77.5978 93.7578C77.5978 94.8516 77.7983 95.6771 78.1994 96.2344C78.6004 96.7917 79.189 97.0703 79.965 97.0703Z" fill="white"/>
</svg>
