<svg width="80" height="104" viewBox="0 0 80 104" fill="none" xmlns="http://www.w3.org/2000/svg">
<path fill-rule="evenodd" clip-rule="evenodd" d="M53.1287 26.3714C54.4958 29.8153 53.6353 32.3559 53.3789 32.9876C54.9811 34.7378 55.9485 36.9656 55.9485 39.6969C55.9485 48.5954 50.9287 51.0646 45.7611 51.8721C45.3515 51.9361 44.9409 51.9897 44.5319 52.0352C44.8051 52.2704 45.0688 52.5742 45.3035 52.9485C45.8423 53.8075 46.2287 55.0377 46.2287 56.6616C46.2287 58.8945 46.2137 60.8386 46.2037 62.1286C46.1988 62.7692 46.1951 63.2486 46.1951 63.522C46.1951 64.1873 46.6498 64.9654 47.9163 64.7213C57.8437 61.4102 65 52.0413 65 41C65 27.1938 53.8062 16 40 16C26.1938 16 15 27.1938 15 41C15 52.0474 22.1625 61.4163 32.0975 64.7213C33.3472 64.9502 33.8034 64.1781 33.8034 63.5189C33.8034 63.2328 33.7981 62.6285 33.7913 61.8461C33.7862 61.2704 33.7803 60.5983 33.7751 59.8855C33.7726 59.5523 33.7703 59.2102 33.7683 58.865C33.4219 58.9403 33.0891 59.0007 32.7694 59.0476C26.6736 59.9423 25.347 55.917 25.347 55.917C24.2087 53.03 22.5714 52.261 22.5714 52.261C20.2994 50.7107 22.7437 50.7412 22.7437 50.7412C25.2538 50.9151 26.5753 53.3169 26.5753 53.3169C28.8062 57.1377 32.4286 56.033 33.8507 55.3921C33.9921 54.3894 34.2961 53.5828 34.6772 52.9666C34.9086 52.5925 35.1684 52.2886 35.4376 52.0535C35.0315 52.0072 34.6238 51.9529 34.217 51.8881C29.0648 51.0679 24.05 48.5753 24.05 39.6969C24.05 36.9655 25.025 34.7378 26.6211 32.9876C26.3663 32.3528 25.5057 29.8092 26.8683 26.3684C26.8683 26.3684 28.9648 25.697 33.7438 28.9318C35.7366 28.3749 37.8744 28.1002 40 28.0911C42.124 28.1002 44.2632 28.3779 46.2591 28.9349C51.0291 25.697 53.1287 26.3714 53.1287 26.3714ZM46.0806 27.8519C48.3545 26.3609 50.067 25.7151 51.2765 25.4604C51.9156 25.3258 52.412 25.3009 52.7726 25.3177C52.9525 25.3261 53.0973 25.3448 53.2078 25.3648C53.263 25.3748 53.3094 25.3852 53.3472 25.3946C53.3661 25.3994 53.3828 25.4039 53.3973 25.4081L53.4175 25.414L53.4264 25.4167L53.4305 25.418L53.4325 25.4187C53.4335 25.419 53.4345 25.4193 53.1287 26.3714L53.4345 25.4193L53.8839 25.5637L54.0581 26.0024C55.2885 29.1018 54.8739 31.5624 54.5128 32.7688C56.0399 34.6245 56.9485 36.9378 56.9485 39.6969C56.9485 44.7175 55.4088 47.9607 52.9707 50.0019C51.0578 51.6033 48.6903 52.3784 46.364 52.7859C46.8946 53.7857 47.2287 55.0845 47.2287 56.6616C47.2287 58.3357 47.2202 59.8474 47.2118 61.043C47.209 61.449 47.2061 61.8173 47.2036 62.1429C47.1987 62.7797 47.1951 63.2524 47.1951 63.522C47.1951 63.6502 47.241 63.7114 47.2533 63.7226C47.2567 63.7257 47.2743 63.7419 47.3298 63.7542C47.3858 63.7667 47.4932 63.7776 47.6684 63.7497C57.1641 60.5505 64 51.5727 64 41C64 27.7461 53.2539 17 40 17C26.7461 17 16 27.7461 16 41C16 51.5768 22.8394 60.5532 32.3399 63.7479C32.5079 63.7725 32.6114 63.761 32.6661 63.7484C32.7223 63.7354 32.7405 63.7186 32.7447 63.7147C32.7595 63.7012 32.8034 63.64 32.8034 63.5189C32.8034 63.2347 32.7982 62.638 32.7914 61.8624C32.7867 61.3303 32.7813 60.7139 32.7763 60.0565C29.7374 60.4722 27.6868 59.758 26.3513 58.7579C25.6163 58.2075 25.1359 57.5982 24.8371 57.1199C24.6876 56.8805 24.5824 56.6722 24.5124 56.5174C24.4774 56.4399 24.451 56.3754 24.4322 56.3267C24.4229 56.3024 24.4154 56.2821 24.4096 56.2659C23.8924 54.9611 23.278 54.1675 22.8242 53.7125C22.5951 53.4827 22.4034 53.3358 22.2803 53.2515C22.2187 53.2094 22.1741 53.1828 22.1504 53.1694C22.1432 53.1653 22.1379 53.1624 22.1347 53.1607L22.0738 53.1321L22.0078 53.087C21.4315 52.6938 20.9312 52.2648 20.7178 51.7566C20.5902 51.4527 20.5472 51.0736 20.7111 50.6985C20.8613 50.3548 21.1242 50.1569 21.3109 50.0506C21.6632 49.8502 22.0727 49.7904 22.2877 49.7667C22.415 49.7526 22.5273 49.7464 22.608 49.7435C22.6489 49.7421 22.6828 49.7415 22.7079 49.7413L22.7391 49.7412L22.7495 49.7412L22.7549 49.7413C22.7552 49.7413 22.7562 49.7413 22.7437 50.7412L22.7562 49.7413L22.7846 49.7416L22.8129 49.7436C24.3848 49.8525 25.5527 50.6575 26.2955 51.375C26.6704 51.7371 26.9528 52.0914 27.1428 52.3569C27.2382 52.4902 27.3116 52.6029 27.3629 52.6854C27.3885 52.7267 27.4088 52.7606 27.4235 52.7858L27.4415 52.8172L27.443 52.8197C28.3903 54.4378 29.5589 54.9384 30.605 55.0316C31.4776 55.1093 32.3263 54.9053 32.9616 54.6745C33.1102 53.9671 33.3371 53.3413 33.6205 52.8018C31.2966 52.3884 28.9302 51.6049 27.0187 49.9956C24.5875 47.9488 23.05 44.7057 23.05 39.6969C23.05 36.9355 23.9665 34.6229 25.4883 32.7688C25.1287 31.5637 24.7109 29.1002 25.9385 26.0002L26.1127 25.5603L26.5633 25.416L26.8683 26.3684C26.5633 25.416 26.5643 25.4157 26.5652 25.4154L26.5672 25.4147L26.5714 25.4134L26.5802 25.4107L26.6005 25.4048C26.615 25.4006 26.6317 25.3961 26.6506 25.3914C26.6884 25.382 26.7348 25.3717 26.7899 25.3618C26.9003 25.3418 27.045 25.3233 27.2249 25.315C27.5852 25.2986 28.0813 25.3238 28.7203 25.4585C29.9298 25.7136 31.6434 26.3592 33.9216 27.8489C35.8781 27.3464 37.946 27.0999 39.9956 27.0911L40.0043 27.091C42.0534 27.0999 44.1223 27.3492 46.0806 27.8519Z" fill="white"/>
<path d="M19.5938 92.0156H23.4766V97.5703C22.8724 97.763 22.2578 97.9089 21.6328 98.0078C21.0078 98.1068 20.2839 98.1562 19.4609 98.1562C17.7318 98.1562 16.3854 97.6432 15.4219 96.6172C14.4583 95.5859 13.9766 94.1432 13.9766 92.2891C13.9766 91.1016 14.2135 90.0625 14.6875 89.1719C15.1667 88.276 15.8542 87.5938 16.75 87.125C17.6458 86.651 18.6953 86.4141 19.8984 86.4141C21.1172 86.4141 22.2526 86.638 23.3047 87.0859L22.7891 88.2578C21.7578 87.8203 20.7656 87.6016 19.8125 87.6016C18.4219 87.6016 17.3359 88.0156 16.5547 88.8438C15.7734 89.6719 15.3828 90.8203 15.3828 92.2891C15.3828 93.8307 15.7578 95 16.5078 95.7969C17.263 96.5938 18.3698 96.9922 19.8281 96.9922C20.6198 96.9922 21.3932 96.901 22.1484 96.7188V93.2031H19.5938V92.0156ZM27.8081 98H26.5112V89.4375H27.8081V98ZM26.4019 87.1172C26.4019 86.8203 26.4748 86.6042 26.6206 86.4688C26.7665 86.3281 26.9487 86.2578 27.1675 86.2578C27.3758 86.2578 27.5555 86.3281 27.7066 86.4688C27.8576 86.6094 27.9331 86.8255 27.9331 87.1172C27.9331 87.4089 27.8576 87.6276 27.7066 87.7734C27.5555 87.9141 27.3758 87.9844 27.1675 87.9844C26.9487 87.9844 26.7665 87.9141 26.6206 87.7734C26.4748 87.6276 26.4019 87.4089 26.4019 87.1172ZM33.8037 97.0859C34.0329 97.0859 34.2543 97.0703 34.4678 97.0391C34.6814 97.0026 34.8506 96.9661 34.9756 96.9297V97.9219C34.835 97.9896 34.6267 98.0443 34.3506 98.0859C34.0798 98.1328 33.835 98.1562 33.6162 98.1562C31.96 98.1562 31.1319 97.2839 31.1319 95.5391V90.4453H29.9053V89.8203L31.1319 89.2812L31.6787 87.4531H32.4287V89.4375H34.9131V90.4453H32.4287V95.4844C32.4287 96 32.5511 96.3958 32.7959 96.6719C33.0407 96.9479 33.3767 97.0859 33.8037 97.0859ZM43.0338 98V92.4609C43.0338 91.763 42.8749 91.2422 42.5572 90.8984C42.2395 90.5547 41.7421 90.3828 41.065 90.3828C40.164 90.3828 39.5051 90.6276 39.0884 91.1172C38.677 91.6068 38.4713 92.4089 38.4713 93.5234V98H37.1744V85.8438H38.4713V89.5234C38.4713 89.9661 38.4504 90.3333 38.4088 90.625H38.4869C38.7421 90.2135 39.1041 89.8906 39.5728 89.6562C40.0468 89.4167 40.5858 89.2969 41.19 89.2969C42.2369 89.2969 43.0207 89.5469 43.5416 90.0469C44.0676 90.5417 44.3306 91.3307 44.3306 92.4141V98H43.0338ZM48.7012 89.4375V94.9922C48.7012 95.6901 48.8601 96.2109 49.1778 96.5547C49.4955 96.8984 49.9929 97.0703 50.67 97.0703C51.5658 97.0703 52.2195 96.8255 52.6309 96.3359C53.0476 95.8464 53.2559 95.0469 53.2559 93.9375V89.4375H54.5528V98H53.4825L53.295 96.8516H53.2247C52.9591 97.2734 52.5893 97.5964 52.1153 97.8203C51.6466 98.0443 51.1101 98.1562 50.5059 98.1562C49.4643 98.1562 48.683 97.9089 48.1622 97.4141C47.6466 96.9193 47.3887 96.1276 47.3887 95.0391V89.4375H48.7012ZM61.775 89.2969C62.9 89.2969 63.7724 89.6823 64.3922 90.4531C65.0172 91.2188 65.3297 92.3047 65.3297 93.7109C65.3297 95.1172 65.0146 96.2109 64.3844 96.9922C63.7594 97.7682 62.8896 98.1562 61.775 98.1562C61.2177 98.1562 60.7073 98.0547 60.2438 97.8516C59.7854 97.6432 59.4 97.3255 59.0875 96.8984H58.9938L58.7203 98H57.7906V85.8438H59.0875V88.7969C59.0875 89.4583 59.0667 90.0521 59.025 90.5781H59.0875C59.6917 89.724 60.5875 89.2969 61.775 89.2969ZM61.5875 90.3828C60.7021 90.3828 60.0641 90.638 59.6734 91.1484C59.2828 91.6536 59.0875 92.5078 59.0875 93.7109C59.0875 94.9141 59.288 95.776 59.6891 96.2969C60.0901 96.8125 60.7333 97.0703 61.6188 97.0703C62.4156 97.0703 63.0094 96.7812 63.4 96.2031C63.7906 95.6198 63.9859 94.7839 63.9859 93.6953C63.9859 92.5807 63.7906 91.75 63.4 91.2031C63.0094 90.6562 62.4052 90.3828 61.5875 90.3828Z" fill="white"/>
</svg>
