<svg width="106" height="104" viewBox="0 0 106 104" fill="none" xmlns="http://www.w3.org/2000/svg">
<path fill-rule="evenodd" clip-rule="evenodd" d="M40.6324 65L64.5176 65C65.7646 65 66.8782 64.3066 67.5728 63.334L80.7711 41.9441C81.4657 40.6971 81.4657 39.3054 80.6327 38.1943L73.2754 26.1108L73.2728 26.1108L73.2714 26.1108L67.5838 16.666C66.8892 15.6933 65.7781 15 64.5286 15H40.6322C39.3852 15 38.2717 15.6933 37.5771 16.666L29.5 30L24.521 38.1943C24.1801 38.7603 24 39.4085 24 40.0692C24 40.7299 24.1801 41.3781 24.521 41.9441L37.5772 63.334C38.2718 64.4451 39.3829 65 40.6324 65ZM38.4251 62.8039L38.4278 62.8081C38.9267 63.6033 39.704 64 40.6324 64L53.4471 64L59.2187 54.8892H44.1104L29.5185 31.8954L25.3776 38.7103L25.3767 38.7118C25.1302 39.1217 25 39.5909 25 40.0692C25 40.5471 25.1301 41.0161 25.3762 41.4257L25.3776 41.4281L38.4251 62.8039ZM44.6602 53.8892L60 54L69.2425 40L60.4935 26.1108L44.6601 26.1108L35.8585 40L29.5 30L44.6602 53.8892ZM30.1346 31L35.2114 39L44.1099 25.1108H71.5019L66.7486 17.2176C66.2054 16.4741 65.3863 16 64.5286 16H40.6322C39.7764 16 38.9546 16.4749 38.4115 17.2185L30.1346 31ZM61.5 26.1108L70.4253 40.0015L60.8651 54.1589L60.444 54.8239V54.8892H60.4027L54.6342 64H64.5176C65.3747 64 66.1975 63.5238 66.7406 62.7784L79.9076 41.4391C80.4318 40.485 80.3877 39.5346 79.8326 38.7942L79.8037 38.7556L72.162 26.1108L61.5 26.1108ZM63.688 22.9346L63.6882 22.9359C64.332 22.9359 64.9466 22.7174 65.4027 22.2612C65.8588 21.8051 66.0773 21.1905 66.0773 20.5467C66.0773 19.9056 65.8619 19.2913 65.4078 18.834C64.9531 18.376 64.339 18.1563 63.6944 18.1563C63.0509 18.1563 62.4366 18.3749 61.9806 18.8307C61.5244 19.2865 61.3052 19.901 61.3052 20.5454C61.3052 21.1899 61.5244 21.8044 61.9806 22.2602C62.4351 22.7144 63.0469 22.9332 63.688 22.9346ZM63.6944 21.9358C63.7277 21.9357 63.7609 21.9347 63.7933 21.9328C64.5687 21.888 65.0773 21.3454 65.0773 20.5467C65.0773 19.7124 64.5274 19.1563 63.6944 19.1563C62.8614 19.1563 62.3052 19.7112 62.3052 20.5454C62.3052 21.3439 62.8147 21.8864 63.5887 21.9316C63.6213 21.9335 63.6544 21.9345 63.6879 21.9346C63.69 21.9346 63.6923 21.9346 63.6944 21.9346L63.6882 21.9359C63.6902 21.9359 63.6923 21.9358 63.6944 21.9358ZM39.7578 22.2597C39.302 21.8037 39.0836 21.1892 39.0836 20.5454C39.0836 19.9017 39.302 19.2872 39.7578 18.8311C40.2136 18.375 40.8279 18.1563 41.4715 18.1563C42.1156 18.1563 42.7298 18.3757 43.1856 18.8314C43.6413 19.2871 43.8607 19.9013 43.8607 20.5454C43.8607 21.1889 43.642 21.8033 43.1862 22.2593C42.7304 22.7154 42.1159 22.9346 41.4715 22.9346C40.8279 22.9346 40.2136 22.7159 39.7578 22.2597ZM28.6409 41.7052C28.1848 41.2497 27.9654 40.6355 27.9654 39.9913C27.9654 39.3471 28.1848 38.7329 28.6405 38.2772C29.0962 37.8215 29.7104 37.6021 30.3545 37.6021C30.998 37.6021 31.6123 37.8208 32.0684 38.2765C32.5245 38.7323 32.7437 39.3468 32.7437 39.9913C32.7437 40.6358 32.5244 41.2502 32.0679 41.7059C31.6116 42.1612 30.9974 42.3792 30.3545 42.3792C29.7111 42.3792 29.0969 42.1605 28.6409 41.7052ZM39.7515 61.1495C39.2961 60.6935 39.0774 60.0793 39.0774 59.4358C39.0774 58.7924 39.2961 58.1782 39.7515 57.7222C40.207 57.2661 40.8212 57.0467 41.4654 57.0467C42.1089 57.0467 42.7232 57.2654 43.1792 57.7211C43.6353 58.1769 43.8545 58.7914 43.8545 59.4358C43.8545 60.0797 43.636 60.6942 43.1799 61.1504C42.7238 61.6065 42.1092 61.825 41.4654 61.825C40.8212 61.825 40.207 61.6056 39.7515 61.1495ZM61.9731 61.1499C61.5173 60.6942 61.298 60.08 61.298 59.4358C61.298 58.7917 61.5173 58.1775 61.9731 57.7218C62.4288 57.2661 63.043 57.0467 63.6871 57.0467C64.3306 57.0467 64.9449 57.2653 65.401 57.7211C65.8571 58.1769 66.0763 58.7914 66.0763 59.4358C66.0763 60.0796 65.8578 60.6942 65.4017 61.1504C64.9455 61.6065 64.3309 61.825 63.6871 61.825C63.043 61.825 62.4288 61.6056 61.9731 61.1499ZM73.0849 41.7049C72.6288 41.2491 72.41 40.6348 72.41 39.9913C72.41 39.3478 72.6287 38.7334 73.0844 38.2774C73.5403 37.8213 74.1548 37.6021 74.7992 37.6021C75.4431 37.6021 76.0576 37.8206 76.5136 38.2772C76.9694 38.7336 77.1871 39.3481 77.1871 39.9913C77.1871 40.6351 76.9686 41.2495 76.5124 41.7054C76.0563 42.1612 75.4421 42.3792 74.7992 42.3792C74.1554 42.3792 73.541 42.1607 73.0849 41.7049ZM41.4715 21.9346C40.6385 21.9346 40.0836 21.3797 40.0836 20.5454C40.0836 19.7112 40.6385 19.1563 41.4715 19.1563C42.3045 19.1563 42.8607 19.7124 42.8607 20.5454C42.8607 21.3784 42.3057 21.9346 41.4715 21.9346ZM63.6871 60.825C62.8541 60.825 62.298 60.2688 62.298 59.4358C62.298 58.6028 62.8541 58.0467 63.6871 58.0467C64.5201 58.0467 65.0763 58.6016 65.0763 59.4358C65.0763 60.2701 64.5214 60.825 63.6871 60.825ZM74.7992 41.3792C73.965 41.3792 73.41 40.8243 73.41 39.9913C73.41 39.1583 73.965 38.6021 74.7992 38.6021C75.6334 38.6021 76.1871 39.157 76.1871 39.9913C76.1871 40.8255 75.6322 41.3792 74.7992 41.3792ZM30.3545 41.3792C29.5215 41.3792 28.9654 40.8243 28.9654 39.9913C28.9654 39.1583 29.5215 38.6021 30.3545 38.6021C31.1875 38.6021 31.7437 39.157 31.7437 39.9913C31.7437 40.8255 31.1875 41.3792 30.3545 41.3792ZM41.4654 60.825C40.6324 60.825 40.0774 60.2688 40.0774 59.4358C40.0774 58.6028 40.6324 58.0467 41.4654 58.0467C42.2984 58.0467 42.8545 58.6016 42.8545 59.4358C42.8545 60.2701 42.2996 60.825 41.4654 60.825Z" fill="white"/>
<path d="M6.59375 92.0156H10.4766V97.5703C9.8724 97.763 9.25781 97.9089 8.63281 98.0078C8.00781 98.1068 7.28385 98.1562 6.46094 98.1562C4.73177 98.1562 3.38542 97.6432 2.42188 96.6172C1.45833 95.5859 0.976562 94.1432 0.976562 92.2891C0.976562 91.1016 1.21354 90.0625 1.6875 89.1719C2.16667 88.276 2.85417 87.5938 3.75 87.125C4.64583 86.651 5.69531 86.4141 6.89844 86.4141C8.11719 86.4141 9.2526 86.638 10.3047 87.0859L9.78906 88.2578C8.75781 87.8203 7.76562 87.6016 6.8125 87.6016C5.42188 87.6016 4.33594 88.0156 3.55469 88.8438C2.77344 89.6719 2.38281 90.8203 2.38281 92.2891C2.38281 93.8307 2.75781 95 3.50781 95.7969C4.26302 96.5938 5.36979 96.9922 6.82812 96.9922C7.61979 96.9922 8.39323 96.901 9.14844 96.7188V93.2031H6.59375V92.0156ZM20.9019 93.7109C20.9019 95.1068 20.5503 96.1979 19.8472 96.9844C19.1441 97.7656 18.1727 98.1562 16.9331 98.1562C16.1675 98.1562 15.4878 97.9766 14.8941 97.6172C14.3003 97.2578 13.842 96.7422 13.5191 96.0703C13.1961 95.3984 13.0347 94.612 13.0347 93.7109C13.0347 92.3151 13.3836 91.2292 14.0816 90.4531C14.7795 89.6719 15.7482 89.2812 16.9878 89.2812C18.1857 89.2812 19.1362 89.6797 19.8394 90.4766C20.5477 91.2734 20.9019 92.3516 20.9019 93.7109ZM14.3784 93.7109C14.3784 94.8047 14.5972 95.638 15.0347 96.2109C15.4722 96.7839 16.1154 97.0703 16.9644 97.0703C17.8133 97.0703 18.4566 96.7865 18.8941 96.2188C19.3368 95.6458 19.5581 94.8099 19.5581 93.7109C19.5581 92.6224 19.3368 91.7969 18.8941 91.2344C18.4566 90.6667 17.8081 90.3828 16.9487 90.3828C16.0998 90.3828 15.4592 90.6615 15.0269 91.2188C14.5946 91.776 14.3784 92.6068 14.3784 93.7109ZM31.0537 93.7109C31.0537 95.1068 30.7022 96.1979 29.9991 96.9844C29.2959 97.7656 28.3246 98.1562 27.085 98.1562C26.3194 98.1562 25.6397 97.9766 25.0459 97.6172C24.4522 97.2578 23.9939 96.7422 23.6709 96.0703C23.348 95.3984 23.1866 94.612 23.1866 93.7109C23.1866 92.3151 23.5355 91.2292 24.2334 90.4531C24.9314 89.6719 25.9001 89.2812 27.1397 89.2812C28.3376 89.2812 29.2881 89.6797 29.9912 90.4766C30.6996 91.2734 31.0537 92.3516 31.0537 93.7109ZM24.5303 93.7109C24.5303 94.8047 24.7491 95.638 25.1866 96.2109C25.6241 96.7839 26.2673 97.0703 27.1162 97.0703C27.9652 97.0703 28.6084 96.7865 29.0459 96.2188C29.4886 95.6458 29.71 94.8099 29.71 93.7109C29.71 92.6224 29.4886 91.7969 29.0459 91.2344C28.6084 90.6667 27.96 90.3828 27.1006 90.3828C26.2517 90.3828 25.611 90.6615 25.1787 91.2188C24.7465 91.776 24.5303 92.6068 24.5303 93.7109ZM40.8228 89.4375V90.2578L39.2369 90.4453C39.3827 90.6276 39.5129 90.8672 39.6275 91.1641C39.7421 91.4557 39.7994 91.7865 39.7994 92.1562C39.7994 92.9948 39.5129 93.6641 38.94 94.1641C38.3671 94.6641 37.5806 94.9141 36.5806 94.9141C36.3254 94.9141 36.0858 94.8932 35.8619 94.8516C35.3098 95.1432 35.0337 95.5104 35.0337 95.9531C35.0337 96.1875 35.1301 96.362 35.3228 96.4766C35.5155 96.5859 35.8462 96.6406 36.315 96.6406H37.8306C38.7577 96.6406 39.4686 96.8359 39.9634 97.2266C40.4634 97.6172 40.7134 98.1849 40.7134 98.9297C40.7134 99.8776 40.3332 100.599 39.5728 101.094C38.8124 101.594 37.703 101.844 36.2447 101.844C35.1249 101.844 34.2603 101.635 33.6509 101.219C33.0468 100.802 32.7447 100.214 32.7447 99.4531C32.7447 98.9323 32.9114 98.4818 33.2447 98.1016C33.578 97.7214 34.0468 97.4635 34.6509 97.3281C34.4322 97.2292 34.2473 97.0755 34.0962 96.8672C33.9504 96.6589 33.8775 96.4167 33.8775 96.1406C33.8775 95.8281 33.9608 95.5547 34.1275 95.3203C34.2942 95.0859 34.5572 94.8594 34.9166 94.6406C34.4739 94.4583 34.1119 94.1484 33.8306 93.7109C33.5546 93.2734 33.4166 92.7734 33.4166 92.2109C33.4166 91.2734 33.6978 90.5521 34.2603 90.0469C34.8228 89.5365 35.6197 89.2812 36.6509 89.2812C37.0989 89.2812 37.5025 89.3333 37.8619 89.4375H40.8228ZM33.9947 99.4375C33.9947 99.901 34.19 100.253 34.5806 100.492C34.9712 100.732 35.5311 100.852 36.2603 100.852C37.3489 100.852 38.1535 100.688 38.6744 100.359C39.2004 100.036 39.4634 99.5964 39.4634 99.0391C39.4634 98.5755 39.3202 98.2526 39.0337 98.0703C38.7473 97.8932 38.2082 97.8047 37.4166 97.8047H35.8619C35.2733 97.8047 34.815 97.9453 34.4869 98.2266C34.1587 98.5078 33.9947 98.9115 33.9947 99.4375ZM34.6978 92.1797C34.6978 92.7786 34.8671 93.2318 35.2056 93.5391C35.5442 93.8464 36.0155 94 36.6197 94C37.8853 94 38.5181 93.3854 38.5181 92.1562C38.5181 90.8698 37.8775 90.2266 36.5962 90.2266C35.9869 90.2266 35.5181 90.3906 35.19 90.7188C34.8619 91.0469 34.6978 91.5339 34.6978 92.1797ZM44.3575 98H43.0606V85.8438H44.3575V98ZM51.2047 98.1562C49.9391 98.1562 48.9391 97.7708 48.2047 97C47.4755 96.2292 47.1109 95.1589 47.1109 93.7891C47.1109 92.4089 47.4495 91.3125 48.1266 90.5C48.8089 89.6875 49.7229 89.2812 50.8688 89.2812C51.9417 89.2812 52.7906 89.6354 53.4156 90.3438C54.0406 91.0469 54.3531 91.9766 54.3531 93.1328V93.9531H48.4547C48.4807 94.9583 48.7333 95.7214 49.2125 96.2422C49.6969 96.763 50.3766 97.0234 51.2516 97.0234C52.1734 97.0234 53.0849 96.8307 53.9859 96.4453V97.6016C53.5276 97.7995 53.0927 97.9401 52.6813 98.0234C52.275 98.112 51.7828 98.1562 51.2047 98.1562ZM50.8531 90.3672C50.1656 90.3672 49.6161 90.5911 49.2047 91.0391C48.7984 91.487 48.5589 92.1068 48.4859 92.8984H52.9625C52.9625 92.0807 52.7802 91.4557 52.4156 91.0234C52.051 90.5859 51.5302 90.3672 50.8531 90.3672ZM66.7741 87.6016C65.5189 87.6016 64.5267 88.0208 63.7975 88.8594C63.0735 89.6927 62.7116 90.8359 62.7116 92.2891C62.7116 93.7839 63.0605 94.9401 63.7584 95.7578C64.4616 96.5703 65.4616 96.9766 66.7584 96.9766C67.5553 96.9766 68.4642 96.8333 69.485 96.5469V97.7109C68.6933 98.0078 67.7168 98.1562 66.5553 98.1562C64.873 98.1562 63.5735 97.6458 62.6569 96.625C61.7454 95.6042 61.2897 94.1536 61.2897 92.2734C61.2897 91.0964 61.5084 90.0651 61.9459 89.1797C62.3886 88.2943 63.0241 87.612 63.8522 87.1328C64.6855 86.6536 65.6647 86.4141 66.7897 86.4141C67.9876 86.4141 69.0345 86.6328 69.9303 87.0703L69.3678 88.2109C68.5032 87.8047 67.6386 87.6016 66.7741 87.6016ZM73.5587 98H72.2619V85.8438H73.5587V98ZM84.1794 93.7109C84.1794 95.1068 83.8278 96.1979 83.1247 96.9844C82.4216 97.7656 81.4502 98.1562 80.2106 98.1562C79.445 98.1562 78.7653 97.9766 78.1716 97.6172C77.5778 97.2578 77.1195 96.7422 76.7966 96.0703C76.4736 95.3984 76.3122 94.612 76.3122 93.7109C76.3122 92.3151 76.6611 91.2292 77.3591 90.4531C78.057 89.6719 79.0257 89.2812 80.2653 89.2812C81.4632 89.2812 82.4137 89.6797 83.1169 90.4766C83.8252 91.2734 84.1794 92.3516 84.1794 93.7109ZM77.6559 93.7109C77.6559 94.8047 77.8747 95.638 78.3122 96.2109C78.7497 96.7839 79.3929 97.0703 80.2419 97.0703C81.0908 97.0703 81.7341 96.7865 82.1716 96.2188C82.6143 95.6458 82.8356 94.8099 82.8356 93.7109C82.8356 92.6224 82.6143 91.7969 82.1716 91.2344C81.7341 90.6667 81.0856 90.3828 80.2262 90.3828C79.3773 90.3828 78.7367 90.6615 78.3044 91.2188C77.8721 91.776 77.6559 92.6068 77.6559 93.7109ZM88.1594 89.4375V94.9922C88.1594 95.6901 88.3182 96.2109 88.6359 96.5547C88.9536 96.8984 89.451 97.0703 90.1281 97.0703C91.024 97.0703 91.6776 96.8255 92.0891 96.3359C92.5057 95.8464 92.7141 95.0469 92.7141 93.9375V89.4375H94.0109V98H92.9406L92.7531 96.8516H92.6828C92.4172 97.2734 92.0474 97.5964 91.5734 97.8203C91.1047 98.0443 90.5682 98.1562 89.9641 98.1562C88.9224 98.1562 88.1411 97.9089 87.6203 97.4141C87.1047 96.9193 86.8469 96.1276 86.8469 95.0391V89.4375H88.1594ZM103.077 96.8516H103.007C102.408 97.7214 101.512 98.1562 100.319 98.1562C99.1993 98.1562 98.3269 97.7734 97.7019 97.0078C97.0821 96.2422 96.7722 95.1536 96.7722 93.7422C96.7722 92.3307 97.0847 91.2344 97.7097 90.4531C98.3347 89.6719 99.2045 89.2812 100.319 89.2812C101.481 89.2812 102.371 89.7031 102.991 90.5469H103.092L103.038 89.9297L103.007 89.3281V85.8438H104.303V98H103.249L103.077 96.8516ZM100.483 97.0703C101.369 97.0703 102.009 96.8307 102.405 96.3516C102.806 95.8672 103.007 95.0885 103.007 94.0156V93.7422C103.007 92.5286 102.803 91.6641 102.397 91.1484C101.996 90.6276 101.353 90.3672 100.467 90.3672C99.7071 90.3672 99.1237 90.6641 98.7175 91.2578C98.3165 91.8464 98.1159 92.6797 98.1159 93.7578C98.1159 94.8516 98.3165 95.6771 98.7175 96.2344C99.1185 96.7917 99.7071 97.0703 100.483 97.0703Z" fill="white"/>
</svg>
