<svg width="80" height="104" viewBox="0 0 80 104" fill="none" xmlns="http://www.w3.org/2000/svg">
<path fill-rule="evenodd" clip-rule="evenodd" d="M53.1562 48.5625V49.5625C53.1562 51.7177 51.2183 53.25 48.9708 53.25C47.427 53.25 45.6153 52.634 44.4478 51.1995L33.7188 38.4301V49.5604C33.7188 51.6071 32.0912 53.2479 30.0646 53.2479H29.9062C27.8364 53.2479 26.2188 51.5345 26.2188 49.5604V30.4375C26.2188 28.3005 28.1026 26.75 30.3438 26.75C31.9094 26.75 33.7554 27.3601 34.928 28.8015L45.5938 41.5593V30.4375C45.5938 28.3676 47.3071 26.75 49.2813 26.75H49.4375C51.5048 26.75 53.125 28.4629 53.125 30.4375V48.5625H53.1562ZM46.5938 44.3146L34.1562 29.4375C33.2187 28.2812 31.6896 27.75 30.3438 27.75C28.5312 27.75 27.2188 28.9687 27.2188 30.4375V49.5604C27.2188 50.9979 28.4042 52.2479 29.9062 52.2479H30.0646C31.5312 52.2479 32.7188 51.0625 32.7188 49.5604V35.6854L45.2188 50.5625C46.1562 51.7187 47.6563 52.25 48.9708 52.25C50.3693 52.25 51.4825 51.5456 51.9359 50.5625C52.0259 50.3673 52.0899 50.1611 52.125 49.9472C52.1456 49.8214 52.1562 49.6929 52.1562 49.5625H52.125V30.4375C52.125 29 50.9375 27.75 49.4375 27.75H49.2813C47.8438 27.75 46.5938 28.9354 46.5938 30.4375V44.3146ZM19 28.0774V51.9226L39.6562 63.8454L60.3125 51.9226V28.0774L39.6562 16.1546L19 28.0774ZM39.6562 15L18 27.5V52.5L39.6562 65L61.3125 52.5V27.5L39.6562 15Z" fill="white"/>
<path d="M27.4922 98H25.9766L19.7344 88.4141H19.6719C19.7552 89.5391 19.7969 90.5703 19.7969 91.5078V98H18.5703V86.5781H20.0703L26.2969 96.125H26.3594C26.349 95.9844 26.3255 95.5339 26.2891 94.7734C26.2526 94.0078 26.2396 93.4609 26.25 93.1328V86.5781H27.4922V98ZM37.9253 89.4375V90.2578L36.3394 90.4453C36.4852 90.6276 36.6154 90.8672 36.73 91.1641C36.8446 91.4557 36.9019 91.7865 36.9019 92.1562C36.9019 92.9948 36.6154 93.6641 36.0425 94.1641C35.4696 94.6641 34.6831 94.9141 33.6831 94.9141C33.4279 94.9141 33.1883 94.8932 32.9644 94.8516C32.4123 95.1432 32.1362 95.5104 32.1362 95.9531C32.1362 96.1875 32.2326 96.362 32.4253 96.4766C32.618 96.5859 32.9487 96.6406 33.4175 96.6406H34.9331C35.8602 96.6406 36.5711 96.8359 37.0659 97.2266C37.5659 97.6172 37.8159 98.1849 37.8159 98.9297C37.8159 99.8776 37.4357 100.599 36.6753 101.094C35.9149 101.594 34.8055 101.844 33.3472 101.844C32.2274 101.844 31.3628 101.635 30.7534 101.219C30.1493 100.802 29.8472 100.214 29.8472 99.4531C29.8472 98.9323 30.0139 98.4818 30.3472 98.1016C30.6805 97.7214 31.1493 97.4635 31.7534 97.3281C31.5347 97.2292 31.3498 97.0755 31.1987 96.8672C31.0529 96.6589 30.98 96.4167 30.98 96.1406C30.98 95.8281 31.0633 95.5547 31.23 95.3203C31.3967 95.0859 31.6597 94.8594 32.0191 94.6406C31.5764 94.4583 31.2144 94.1484 30.9331 93.7109C30.6571 93.2734 30.5191 92.7734 30.5191 92.2109C30.5191 91.2734 30.8003 90.5521 31.3628 90.0469C31.9253 89.5365 32.7222 89.2812 33.7534 89.2812C34.2014 89.2812 34.605 89.3333 34.9644 89.4375H37.9253ZM31.0972 99.4375C31.0972 99.901 31.2925 100.253 31.6831 100.492C32.0737 100.732 32.6336 100.852 33.3628 100.852C34.4514 100.852 35.256 100.688 35.7769 100.359C36.3029 100.036 36.5659 99.5964 36.5659 99.0391C36.5659 98.5755 36.4227 98.2526 36.1362 98.0703C35.8498 97.8932 35.3107 97.8047 34.5191 97.8047H32.9644C32.3758 97.8047 31.9175 97.9453 31.5894 98.2266C31.2612 98.5078 31.0972 98.9115 31.0972 99.4375ZM31.8003 92.1797C31.8003 92.7786 31.9696 93.2318 32.3081 93.5391C32.6467 93.8464 33.118 94 33.7222 94C34.9878 94 35.6206 93.3854 35.6206 92.1562C35.6206 90.8698 34.98 90.2266 33.6987 90.2266C33.0894 90.2266 32.6206 90.3906 32.2925 90.7188C31.9644 91.0469 31.8003 91.5339 31.8003 92.1797ZM41.46 98H40.1631V89.4375H41.46V98ZM40.0537 87.1172C40.0537 86.8203 40.1267 86.6042 40.2725 86.4688C40.4183 86.3281 40.6006 86.2578 40.8194 86.2578C41.0277 86.2578 41.2074 86.3281 41.3584 86.4688C41.5095 86.6094 41.585 86.8255 41.585 87.1172C41.585 87.4089 41.5095 87.6276 41.3584 87.7734C41.2074 87.9141 41.0277 87.9844 40.8194 87.9844C40.6006 87.9844 40.4183 87.9141 40.2725 87.7734C40.1267 87.6276 40.0537 87.4089 40.0537 87.1172ZM50.5494 98V92.4609C50.5494 91.763 50.3905 91.2422 50.0728 90.8984C49.7551 90.5547 49.2577 90.3828 48.5806 90.3828C47.6848 90.3828 47.0285 90.625 46.6119 91.1094C46.1952 91.5938 45.9869 92.3932 45.9869 93.5078V98H44.69V89.4375H45.7447L45.9556 90.6094H46.0181C46.2838 90.1875 46.6561 89.862 47.1353 89.6328C47.6145 89.3984 48.1483 89.2812 48.7369 89.2812C49.7681 89.2812 50.5442 89.5312 51.065 90.0312C51.5858 90.526 51.8463 91.3203 51.8463 92.4141V98H50.5494ZM57.0606 93.6172L54.0841 89.4375H55.5606L57.8184 92.7188L60.0684 89.4375H61.5294L58.5528 93.6172L61.6856 98H60.2169L57.8184 94.5312L55.3966 98H53.9278L57.0606 93.6172Z" fill="white"/>
</svg>
