<svg width="16" height="16" viewBox="0 0 16 16" fill="none" xmlns="http://www.w3.org/2000/svg">
<g clip-path="url(#clip0)">
<path d="M6.25145 7.14141C6.56678 6.98279 6.80518 6.80613 6.96854 6.61523C7.25917 6.27141 7.40259 5.81551 7.40259 5.25039C7.40259 4.70047 7.25917 4.23033 6.97234 3.83617C6.49365 3.19412 5.68349 2.8655 4.53805 2.8484H0V12.1116H4.23127C4.70806 12.1116 5.14971 12.0708 5.55812 11.9872C5.96652 11.9027 6.31984 11.7478 6.61902 11.5218C6.88496 11.3252 7.10721 11.0811 7.28387 10.7933C7.5631 10.3583 7.70272 9.86538 7.70272 9.3164C7.70272 8.78453 7.5802 8.33148 7.33705 7.95917C7.09106 7.58685 6.73014 7.31427 6.25145 7.14141ZM1.87202 4.45733H3.91595C4.36519 4.45733 4.73561 4.50577 5.02624 4.60169C5.36246 4.74131 5.53057 5.0253 5.53057 5.4584C5.53057 5.84686 5.40235 6.11849 5.14876 6.27141C4.89327 6.42432 4.5618 6.50125 4.15529 6.50125H1.87202V4.45733ZM5.10412 10.3412C4.87807 10.4504 4.5599 10.5046 4.15244 10.5046H1.87202V8.0342H4.18378C4.58649 8.03705 4.89992 8.09024 5.12407 8.18996C5.52297 8.37042 5.72148 8.70094 5.72148 9.18438C5.72148 9.75425 5.51632 10.138 5.10412 10.3412Z" fill="#171718"/>
<path d="M13.7352 3.28058H9.71094V4.43361H13.7352V3.28058Z" fill="#171718"/>
<path d="M15.1327 7.83118C15.0491 7.29455 14.8649 6.82251 14.578 6.41506C14.2637 5.95346 13.8647 5.61534 13.3794 5.40164C12.896 5.18699 12.3517 5.07967 11.7458 5.08062C10.7286 5.08062 9.90227 5.39879 9.26307 6.0304C8.62577 6.6639 8.30664 7.57474 8.30664 8.76196C8.30664 10.028 8.65901 10.9427 9.36754 11.504C10.0732 12.0662 10.8881 12.3464 11.8132 12.3464C12.933 12.3464 13.804 12.0131 14.4261 11.3482C14.824 10.9284 15.0491 10.5153 15.0985 10.1097H13.2445C13.1372 10.3101 13.0128 10.4668 12.8703 10.5808C12.612 10.7897 12.2758 10.8942 11.8636 10.8942C11.4713 10.8942 11.1389 10.8078 10.8615 10.6359C10.4038 10.3604 10.1644 9.87795 10.134 9.19126H15.1935C15.2011 8.59955 15.1821 8.1446 15.1327 7.83118ZM10.1796 8.00879C10.2461 7.56334 10.4076 7.21002 10.664 6.94883C10.9204 6.68859 11.2832 6.55752 11.7477 6.55657C12.176 6.55657 12.5341 6.67909 12.8257 6.92509C13.1135 7.17298 13.2759 7.53295 13.3091 8.00879H10.1796Z" fill="#171718"/>
</g>
<defs>
<clipPath id="clip0">
<rect y="-0.00062561" width="15.1952" height="15.1952" fill="white"/>
</clipPath>
</defs>
</svg>
