<svg width="17" height="17" viewBox="0 0 17 17" fill="none" xmlns="http://www.w3.org/2000/svg">
<g clip-path="url(#clip0)">
<path d="M8.52115 0.64266C4.1771 0.64266 0.642578 4.17718 0.642578 8.52123C0.642578 12.8653 4.1771 16.3998 8.52115 16.3998C12.8652 16.3998 16.3997 12.8653 16.3997 8.52123C16.3997 4.17718 12.8652 0.64266 8.52115 0.64266ZM8.52115 15.415C4.71974 15.415 1.6274 12.3217 1.6274 8.52123C1.6274 4.71982 4.71974 1.62748 8.52115 1.62748C12.3216 1.62748 15.4149 4.71982 15.4149 8.52123C15.4149 12.3217 12.3216 15.415 8.52115 15.415Z" fill="#171718"/>
<path d="M8.52184 2.61209C8.10822 2.61209 7.70444 2.65543 7.31445 2.73618C8.0314 3.75252 8.68237 4.81021 9.25554 5.90632C10.3398 5.40111 11.3601 4.74915 12.2917 3.97115C11.2685 3.12223 9.95476 2.61209 8.52184 2.61209Z" fill="#171718"/>
<path d="M12.9936 4.66679C11.9802 5.52063 10.8654 6.22871 9.68164 6.78218C9.94065 7.32186 10.1809 7.86844 10.4035 8.42388C11.7114 8.15502 13.0724 8.1304 14.4216 8.35396C14.3822 6.94566 13.8524 5.66146 12.9936 4.66679Z" fill="#171718"/>
<path d="M6.32572 3.03856C4.55206 3.7496 3.20679 5.2938 2.76953 7.18958C4.68205 7.27132 6.57488 6.95224 8.33673 6.27961C7.74485 5.15593 7.07419 4.07263 6.32572 3.03856Z" fill="#171718"/>
<path d="M8.77631 7.17095C7.0706 7.83571 5.24868 8.19812 3.39623 8.19812C3.14116 8.19812 2.88511 8.18236 2.62905 8.16858C2.62216 8.28577 2.61133 8.40198 2.61133 8.52114C2.61133 9.97178 3.13624 11.2993 4.00387 12.3275C5.42299 10.5656 7.33059 9.30309 9.44205 8.66886C9.23622 8.16267 9.01365 7.66435 8.77631 7.17095Z" fill="#171718"/>
<path d="M10.7637 9.35652C11.2334 10.6663 11.6018 12.0126 11.8716 13.3854C13.2031 12.4666 14.1327 11.0159 14.3661 9.33978C13.1588 9.12608 11.9386 9.13592 10.7637 9.35652Z" fill="#171718"/>
<path d="M9.79661 9.58517C7.81122 10.1652 6.01786 11.3569 4.70312 13.0281C5.73325 13.9016 7.06374 14.4305 8.52029 14.4305C9.39481 14.4305 10.223 14.2355 10.9695 13.8938C10.6987 12.4224 10.3048 10.9826 9.79661 9.58517Z" fill="#171718"/>
</g>
<defs>
<clipPath id="clip0">
<rect x="0.642578" y="0.64266" width="15.7571" height="15.7571" fill="white"/>
</clipPath>
</defs>
</svg>
