<svg width="14" height="14" viewBox="0 0 14 14" fill="none" xmlns="http://www.w3.org/2000/svg">
<g clip-path="url(#clip0)">
<path d="M11.3973 0.0708828H1.69012C0.797875 0.0708828 0.0722656 0.796492 0.0722656 1.68874V11.3959C0.0722656 12.2881 0.797875 13.0137 1.69012 13.0137H6.54369V8.56463H4.92584V6.54231H6.54369V4.92445C6.54369 3.58406 7.63009 2.49767 8.97048 2.49767H10.5883V4.51999H9.77941C9.33288 4.51999 8.97048 4.47793 8.97048 4.92445V6.54231H10.9928L10.1839 8.56463H8.97048V13.0137H11.3973C12.2895 13.0137 13.0151 12.2881 13.0151 11.3959V1.68874C13.0151 0.796492 12.2895 0.0708828 11.3973 0.0708828Z" fill="#171718"/>
</g>
<defs>
<clipPath id="clip0">
<rect x="0.0722656" y="0.0708828" width="12.9429" height="12.9429" fill="white"/>
</clipPath>
</defs>
</svg>
