<svg width="14" height="14" viewBox="0 0 14 14" fill="none" xmlns="http://www.w3.org/2000/svg">
<g clip-path="url(#clip0)">
<path d="M2.96466 4.11559H0.0703125V13.0138H2.96466V4.11559Z" fill="#171718"/>
<path d="M10.8488 4.21994C10.818 4.21023 10.7889 4.19972 10.7565 4.19082C10.7177 4.18192 10.6789 4.17464 10.6392 4.16817C10.4855 4.13743 10.3173 4.11559 10.1199 4.11559C8.43249 4.11559 7.36227 5.34273 7.00958 5.81677V4.11559H4.11523V13.0138H7.00958V8.16023C7.00958 8.16023 9.19692 5.11381 10.1199 7.3513C10.1199 9.34855 10.1199 13.0138 10.1199 13.0138H13.0134V7.00913C13.0134 5.66469 12.0921 4.54432 10.8488 4.21994Z" fill="#171718"/>
<path d="M1.48594 2.90213C2.26777 2.90213 2.90156 2.26834 2.90156 1.48651C2.90156 0.70468 2.26777 0.0708828 1.48594 0.0708828C0.704109 0.0708828 0.0703125 0.70468 0.0703125 1.48651C0.0703125 2.26834 0.704109 2.90213 1.48594 2.90213Z" fill="#171718"/>
</g>
<defs>
<clipPath id="clip0">
<rect x="0.0703125" y="0.0708828" width="12.9429" height="12.9429" fill="white"/>
</clipPath>
</defs>
</svg>
