<svg width="80" height="80" viewBox="0 0 80 80" fill="none" xmlns="http://www.w3.org/2000/svg">
<path d="M55.8288 55.7278L40.503 65.9449L36.4515 63.2206L34.1069 64.3554L40.4977 68.6527L58.0788 56.9319V38.0992L40.4979 28.0315L23.0625 38.102V56.9319L29.316 61.1009C31.9327 62.8454 35.4378 60.9696 35.4378 57.8247V41.5639H33.1877V57.8247C33.1877 59.1725 31.6856 59.9764 30.5641 59.2288L25.3125 55.7278V39.4008L40.5028 30.6271L55.8288 39.4036V55.7278Z" stroke="white"/>
<path d="M46.8636 50.974L46.8636 50.974L46.8669 50.9807C46.9357 51.1191 46.9762 51.2866 46.9766 51.4941C46.97 51.8934 46.7914 52.2229 46.3486 52.5046C45.8925 52.7947 45.2294 52.9654 44.3121 52.9654C43.9576 52.9654 43.5975 52.9275 43.2311 52.8507C42.8857 52.7783 42.5741 52.6566 42.293 52.4873C42.0324 52.3256 41.8098 52.1131 41.6243 51.8446C41.4669 51.6055 41.3633 51.2933 41.3349 50.8863L41.3025 50.4211H40.8361H38.5312H38.0312V50.9211C38.0312 51.575 38.1779 52.2046 38.467 52.805L38.4669 52.805L38.4697 52.8106C38.7684 53.4115 39.1912 53.9374 39.7306 54.3881L39.7306 54.3881L39.7377 54.3939C40.2876 54.8365 40.9463 55.1877 41.7046 55.4538L41.7046 55.4538L41.7096 55.4555C42.4852 55.7186 43.355 55.8455 44.3121 55.8455C45.1496 55.8455 45.9315 55.7445 46.6546 55.538C47.3742 55.3324 48.0068 55.0376 48.5435 54.6466C49.0808 54.2552 49.5055 53.7785 49.8089 53.2167C50.126 52.6452 50.2815 52.0143 50.2815 51.3347C50.2815 50.7025 50.1451 50.1236 49.8573 49.6129C49.5842 49.1138 49.1901 48.6885 48.69 48.3339C48.1938 47.9739 47.5964 47.6784 46.9069 47.4411C46.2263 47.1986 45.4616 46.9886 44.6148 46.8096L44.6148 46.8096L44.6088 46.8084C43.9892 46.6854 43.4867 46.5604 43.0963 46.4348C42.7186 46.3106 42.4377 46.1785 42.2392 46.046C42.0531 45.9163 41.951 45.7912 41.8979 45.6798C41.8349 45.5478 41.7971 45.3851 41.7971 45.1807C41.7971 45.0053 41.8385 44.8326 41.9286 44.6573C42.0151 44.4891 42.1455 44.3325 42.3322 44.1894C42.5247 44.0481 42.7753 43.9257 43.0951 43.8305C43.4132 43.7382 43.796 43.6878 44.2498 43.6878C44.6766 43.6878 45.0418 43.7481 45.3522 43.8591L45.3522 43.8591L45.3555 43.8603C45.6922 43.9781 45.9625 44.1275 46.1759 44.3019C46.3934 44.4797 46.5567 44.6789 46.6728 44.8996L46.6728 44.8996L46.6758 44.9051C46.7886 45.1131 46.8396 45.3158 46.8396 45.5191V46.0191H47.3396H49.6444H50.1444V45.5191C50.1444 44.8523 49.9994 44.2247 49.7067 43.6435C49.4247 43.059 49.022 42.5526 48.5053 42.1256L48.1932 42.5032L48.5053 42.1256C47.9849 41.6955 47.3624 41.367 46.6478 41.1333C45.9247 40.8969 45.1235 40.7827 44.2498 40.7827C43.4322 40.7827 42.6695 40.8933 41.9659 41.1202L41.9659 41.1201L41.9641 41.1207C41.278 41.3448 40.6731 41.6537 40.1567 42.0526C39.6399 42.4518 39.2308 42.927 38.9377 43.478C38.6406 44.0283 38.4922 44.6236 38.4922 45.2559C38.4922 45.8923 38.6347 46.4747 38.9344 46.9872L38.9343 46.9872L38.9366 46.9909C39.2258 47.476 39.6256 47.8933 40.1236 48.2459L40.1236 48.246L40.1323 48.2519C40.6304 48.589 41.2137 48.874 41.8763 49.1108L41.8783 49.1115C42.5424 49.3457 43.2707 49.5436 44.0619 49.7063L44.0652 49.7069C44.68 49.829 45.1793 49.9646 45.5694 50.1108L45.5693 50.1109L45.5776 50.1138C45.9741 50.2546 46.2685 50.4029 46.4759 50.5509C46.6825 50.6984 46.8006 50.8422 46.8636 50.974Z" stroke="white"/>
<path d="M48.2841 12.0001C48.2418 12.0001 48.2002 12.0111 48.1634 12.0321C48.1269 12.0535 48.0965 12.084 48.0754 12.1207C48.0542 12.1573 48.043 12.1989 48.0428 12.2412V18.3916C48.0428 18.452 48.0148 18.506 47.9624 18.5363C47.9368 18.5513 47.9077 18.5591 47.878 18.5591C47.8483 18.5591 47.8192 18.5513 47.7936 18.5363L46.7884 17.9575C46.715 17.9151 46.6318 17.8928 46.5471 17.8928C46.4624 17.8928 46.3792 17.9151 46.3059 17.9575L42.2932 20.2729C42.1432 20.3595 42.052 20.5259 42.052 20.6991V25.3299C42.052 25.5029 42.1433 25.6614 42.2932 25.748L46.3059 28.0635C46.3792 28.106 46.4624 28.1284 46.5471 28.1284C46.6319 28.1284 46.7151 28.106 46.7884 28.0635L50.801 25.748C50.8745 25.7057 50.9355 25.6448 50.9779 25.5714C51.0202 25.498 51.0425 25.4147 51.0423 25.3299V13.7849C51.0422 13.6982 51.0191 13.613 50.9753 13.5381C50.9315 13.4633 50.8686 13.4013 50.7931 13.3587L48.4047 12.0241C48.3673 12.0032 48.3257 11.9995 48.2841 12.0001V12.0001ZM22.471 17.7806C22.3946 17.7836 22.3226 17.7971 22.254 17.8368L18.2412 20.1523C18.1677 20.1945 18.1067 20.2554 18.0643 20.3289C18.0219 20.4023 17.9998 20.4856 18 20.5703L18.008 26.7853C18.008 26.8716 18.0526 26.952 18.1286 26.9942C18.1651 27.0161 18.2068 27.0277 18.2493 27.0277C18.2918 27.0277 18.3335 27.0161 18.3699 26.9942L20.7502 25.6275C20.901 25.5379 20.9994 25.3821 20.9994 25.2094V22.307C20.9994 22.1338 21.0905 21.9749 21.2407 21.8889L22.2539 21.302C22.3271 21.2594 22.4104 21.2372 22.4952 21.2377C22.5779 21.2377 22.6628 21.2583 22.7363 21.302L23.7496 21.8889C23.8232 21.9311 23.8843 21.992 23.9267 22.0654C23.969 22.1389 23.9912 22.2222 23.9909 22.307V25.2093C23.9909 25.382 24.0904 25.5389 24.2401 25.6274L26.6204 26.9942C26.6568 27.0161 26.6985 27.0277 26.741 27.0277C26.7835 27.0277 26.8252 27.0161 26.8617 26.9942C26.8984 26.973 26.9288 26.9425 26.95 26.9058C26.9712 26.8691 26.9824 26.8275 26.9824 26.7851L26.9902 20.5703C26.9907 20.4855 26.9686 20.4021 26.9262 20.3287C26.8838 20.2552 26.8227 20.1944 26.749 20.1523L22.7363 17.8368C22.6685 17.7971 22.5963 17.7838 22.5193 17.7806H22.471ZM58.5289 17.8368C58.445 17.8368 58.3629 17.8581 58.2877 17.9012L54.275 20.2167C54.2015 20.2589 54.1405 20.3199 54.0981 20.3933C54.0558 20.4667 54.0335 20.55 54.0337 20.6347V25.2656C54.0337 25.4398 54.1318 25.5976 54.2829 25.6837L58.2635 27.9509C58.4105 28.0347 58.59 28.0411 58.738 27.9588L61.1504 26.6162C61.227 26.5737 61.2787 26.4944 61.2791 26.4072C61.2795 26.3648 61.2685 26.323 61.2473 26.2862C61.2261 26.2495 61.1954 26.2191 61.1585 26.1982L57.1216 23.8827C57.0461 23.8395 56.993 23.7523 56.993 23.6656V22.2185C56.993 22.1319 57.0467 22.0526 57.1216 22.0095L58.3761 21.2858C58.4128 21.2646 58.4544 21.2534 58.4967 21.2534C58.5391 21.2534 58.5807 21.2646 58.6174 21.2858L59.8717 22.0095C59.9085 22.0306 59.939 22.061 59.9602 22.0977C59.9814 22.1344 59.9925 22.176 59.9924 22.2184V23.3601C59.9923 23.4024 60.0034 23.4441 60.0246 23.4808C60.0458 23.5175 60.0763 23.5479 60.113 23.569C60.1882 23.6125 60.2792 23.6126 60.3542 23.569L62.7587 22.1704C62.8321 22.1279 62.893 22.067 62.9353 21.9936C62.9777 21.9202 63 21.837 63 21.7522V20.6348C63 20.4622 62.9084 20.3034 62.7587 20.2167L58.7702 17.9012C58.6968 17.8588 58.6136 17.8366 58.5289 17.8369V17.8368ZM46.531 21.294C46.552 21.294 46.5766 21.2991 46.5953 21.31L47.9705 22.1059C48.0078 22.1275 48.0349 22.1673 48.0349 22.2104V23.8022C48.0349 23.8455 48.008 23.8852 47.9705 23.9068L46.5953 24.7027C46.577 24.7132 46.5562 24.7187 46.5351 24.7187C46.5139 24.7187 46.4931 24.7132 46.4748 24.7027L45.0997 23.9068C45.0623 23.8851 45.0353 23.8455 45.0353 23.8022V22.2104C45.0353 22.1672 45.0624 22.1277 45.0997 22.1059L46.4748 21.3101C46.4917 21.2996 46.5112 21.294 46.5311 21.2941V21.294H46.531Z" stroke="white"/>
<path d="M34.5265 18.3153L38.5216 20.6127V25.2319L34.5265 27.5371L30.5312 25.2318V20.6127L34.5265 18.3153ZM58.1537 22.719L58.5182 22.5065L58.8826 22.719V23.1313L58.5181 23.3401L58.1537 23.1314V22.719Z" stroke="white"/>
</svg>
