<svg width="80" height="104" viewBox="0 0 80 104" fill="none" xmlns="http://www.w3.org/2000/svg">
<path d="M53.7289 60.5891L39.69 64.4811L25.691 60.5949L22.5466 25.3262H56.8766L53.7289 60.5891Z" stroke="white"/>
<path d="M32.582 19.9922H35.207V21.2383H30.8359V15.5H35.207V16.7461H32.582H32.082V17.2461V19.4922V19.9922H32.582ZM41.6523 17.8438V21.3359H37.2813V20.2852H39.9063H40.4063V19.7852V19.3945V18.8945H39.9063H37.2813V15.5H41.6523V16.4531H39.0273H38.5273V16.9531V17.3438V17.8438H39.0273H41.6523ZM45.4727 17.8438H48.0977V21.3359H43.7266V20.2852H46.3516H46.8516V19.7852V19.3945V18.8945H46.3516H43.7266V15.5H48.0977V16.4531H45.4727H44.9727V16.9531V17.3438V17.8438H45.4727Z" stroke="white"/>
<path d="M29.1393 32.7173H39.7117H50.2586L49.5066 41.1478L49.5066 41.1486L49.3984 42.3386L49.3984 42.3394L48.3204 54.4187L39.6914 56.8109L31.0746 54.4188L30.5326 48.345H33.9803L34.2554 51.4263L34.2864 51.7736L34.6231 51.8645L39.5619 53.1981L39.6923 53.2333L39.8226 53.1981L44.7727 51.8617L45.1093 51.7708L45.1404 51.4236L45.6551 45.6722L45.7039 45.1276H45.1571H39.7117H30.2451L29.9372 41.6931H39.7117H45.5417H45.9992L46.0397 41.2373L46.4433 36.6962L46.4916 36.152H45.9452H39.7117H29.4515L29.1393 32.7173Z" stroke="white"/>
<path d="M25.4609 87.6016C24.2057 87.6016 23.2135 88.0208 22.4844 88.8594C21.7604 89.6927 21.3984 90.8359 21.3984 92.2891C21.3984 93.7839 21.7474 94.9401 22.4453 95.7578C23.1484 96.5703 24.1484 96.9766 25.4453 96.9766C26.2422 96.9766 27.151 96.8333 28.1719 96.5469V97.7109C27.3802 98.0078 26.4036 98.1562 25.2422 98.1562C23.5599 98.1562 22.2604 97.6458 21.3438 96.625C20.4323 95.6042 19.9766 94.1536 19.9766 92.2734C19.9766 91.0964 20.1953 90.0651 20.6328 89.1797C21.0755 88.2943 21.7109 87.612 22.5391 87.1328C23.3724 86.6536 24.3516 86.4141 25.4766 86.4141C26.6745 86.4141 27.7214 86.6328 28.6172 87.0703L28.0547 88.2109C27.1901 87.8047 26.3255 87.6016 25.4609 87.6016ZM37.5894 94.9609C37.5894 95.9661 37.2248 96.75 36.4956 97.3125C35.7665 97.875 34.7769 98.1562 33.5269 98.1562C32.1727 98.1562 31.131 97.9818 30.4019 97.6328V96.3516C30.8706 96.5495 31.381 96.7057 31.9331 96.8203C32.4852 96.9349 33.0321 96.9922 33.5737 96.9922C34.4592 96.9922 35.1258 96.8255 35.5737 96.4922C36.0217 96.1536 36.2456 95.6849 36.2456 95.0859C36.2456 94.6901 36.1649 94.3672 36.0034 94.1172C35.8472 93.862 35.5816 93.6276 35.2066 93.4141C34.8368 93.2005 34.2717 92.9583 33.5112 92.6875C32.4487 92.3073 31.6883 91.8568 31.23 91.3359C30.7769 90.8151 30.5503 90.1354 30.5503 89.2969C30.5503 88.4167 30.881 87.7161 31.5425 87.1953C32.204 86.6745 33.079 86.4141 34.1675 86.4141C35.3029 86.4141 36.3472 86.6224 37.3003 87.0391L36.8862 88.1953C35.9435 87.7995 35.0269 87.6016 34.1362 87.6016C33.4331 87.6016 32.8836 87.7526 32.4878 88.0547C32.092 88.3568 31.8941 88.776 31.8941 89.3125C31.8941 89.7083 31.967 90.0339 32.1128 90.2891C32.2586 90.5391 32.5034 90.7708 32.8472 90.9844C33.1961 91.1927 33.7274 91.4245 34.4409 91.6797C35.6389 92.1068 36.4618 92.5651 36.9097 93.0547C37.3628 93.5443 37.5894 94.1797 37.5894 94.9609ZM46.8506 94.9609C46.8506 95.9661 46.486 96.75 45.7569 97.3125C45.0277 97.875 44.0381 98.1562 42.7881 98.1562C41.434 98.1562 40.3923 97.9818 39.6631 97.6328V96.3516C40.1319 96.5495 40.6423 96.7057 41.1944 96.8203C41.7465 96.9349 42.2933 96.9922 42.835 96.9922C43.7204 96.9922 44.3871 96.8255 44.835 96.4922C45.2829 96.1536 45.5069 95.6849 45.5069 95.0859C45.5069 94.6901 45.4261 94.3672 45.2647 94.1172C45.1084 93.862 44.8428 93.6276 44.4678 93.4141C44.098 93.2005 43.5329 92.9583 42.7725 92.6875C41.71 92.3073 40.9496 91.8568 40.4912 91.3359C40.0381 90.8151 39.8116 90.1354 39.8116 89.2969C39.8116 88.4167 40.1423 87.7161 40.8037 87.1953C41.4652 86.6745 42.3402 86.4141 43.4287 86.4141C44.5642 86.4141 45.6084 86.6224 46.5616 87.0391L46.1475 88.1953C45.2048 87.7995 44.2881 87.6016 43.3975 87.6016C42.6944 87.6016 42.1449 87.7526 41.7491 88.0547C41.3532 88.3568 41.1553 88.776 41.1553 89.3125C41.1553 89.7083 41.2282 90.0339 41.3741 90.2891C41.5199 90.5391 41.7647 90.7708 42.1084 90.9844C42.4574 91.1927 42.9886 91.4245 43.7022 91.6797C44.9001 92.1068 45.723 92.5651 46.1709 93.0547C46.6241 93.5443 46.8506 94.1797 46.8506 94.9609ZM60.5919 89.2656C60.5919 89.9948 60.3861 90.5911 59.9747 91.0547C59.5684 91.5182 58.9903 91.8281 58.2403 91.9844V92.0469C59.157 92.1615 59.8367 92.4531 60.2794 92.9219C60.7221 93.3906 60.9434 94.0052 60.9434 94.7656C60.9434 95.8542 60.5658 96.6927 59.8106 97.2812C59.0554 97.8646 57.9825 98.1562 56.5919 98.1562C55.9877 98.1562 55.433 98.1094 54.9278 98.0156C54.4278 97.9271 53.9408 97.7682 53.4669 97.5391V96.3047C53.9617 96.5495 54.4877 96.737 55.045 96.8672C55.6075 96.9922 56.1387 97.0547 56.6387 97.0547C58.6127 97.0547 59.5997 96.2812 59.5997 94.7344C59.5997 93.349 58.5111 92.6562 56.3341 92.6562H55.2091V91.5391H56.3497C57.2403 91.5391 57.946 91.3438 58.4669 90.9531C58.9877 90.5573 59.2481 90.0104 59.2481 89.3125C59.2481 88.7552 59.0554 88.3177 58.67 88C58.2898 87.6823 57.7716 87.5234 57.1153 87.5234C56.6153 87.5234 56.144 87.5911 55.7012 87.7266C55.2585 87.862 54.7533 88.112 54.1856 88.4766L53.5294 87.6016C53.9981 87.2318 54.5372 86.9427 55.1466 86.7344C55.7611 86.5208 56.407 86.4141 57.0841 86.4141C58.1934 86.4141 59.0554 86.6693 59.67 87.1797C60.2846 87.6849 60.5919 88.3802 60.5919 89.2656Z" fill="white"/>
</svg>
