<svg width="80" height="104" viewBox="0 0 80 104" fill="none" xmlns="http://www.w3.org/2000/svg">
<path d="M22.5466 25.3352H56.8686L53.7216 60.59L39.686 64.4811L25.6903 60.5958L22.5466 25.3352Z" stroke="white"/>
<path d="M25.7949 15.5H27.048V17.2261V17.7261H27.548H29.6091H30.1091V17.2261V15.5H31.3623V21.2411H30.1092V19.4838V18.9838H29.6092H27.5481H27.0481V19.4838V21.2411H25.795L25.7949 15.5ZM45.5694 15.5H47.1388V21.2411H45.895V18.3998V16.706L44.9751 18.1283L43.8253 19.9061L42.6746 18.1282L41.7549 16.707V18.3998V21.2411H40.5503V15.5H42.119L43.418 17.629L43.8451 18.3289L44.2718 17.6288L45.5694 15.5ZM36.5785 21.2411H35.3253L35.3252 17.2354L35.3252 16.7354H34.8252H33.3417V15.5H38.5629V16.7354H37.0785H36.5785V17.2354V21.2411ZM51.0139 20.0129H53.6825V21.2411H49.2601V15.5H50.5139V19.5129V20.0129H51.0139Z" stroke="white"/>
<path d="M33.4333 36.1472H32.8867L32.9353 36.6916L33.3404 41.2317L33.3811 41.6873H33.8385H39.7053H49.4484L49.3897 42.3326L49.3897 42.3334L48.3119 54.4098L39.69 56.7994L31.0702 54.4098L30.5284 48.3377H33.9751L34.2501 51.4182L34.2811 51.7656L34.6178 51.8565L39.5555 53.1898L39.6859 53.225L39.8162 53.1898L44.7652 51.8537L45.1018 51.7628L45.1329 51.4155L45.6475 45.6654L45.6962 45.1209H45.1495H39.7053H30.2411L29.1345 32.7135H39.7206H50.2495L49.9421 36.1472H39.7053H33.4333Z" stroke="white"/>
<path d="M20.2422 98H18.9141V92.625H12.8984V98H11.5703V86.5781H12.8984V91.4375H18.9141V86.5781H20.2422V98ZM27.3784 98H26.0503V87.7578H22.4331V86.5781H30.9956V87.7578H27.3784V98ZM38.2569 98L34.3819 87.875H34.3194C34.3923 88.6771 34.4287 89.6302 34.4287 90.7344V98H33.2022V86.5781H35.2022L38.8194 96H38.8819L42.5303 86.5781H44.5147V98H43.1866V90.6406C43.1866 89.7969 43.223 88.8802 43.2959 87.8906H43.2334L39.3272 98H38.2569ZM48.1353 98V86.5781H49.4634V96.7969H54.5025V98H48.1353ZM64.3453 91.0234C65.5484 91.0234 66.4938 91.3229 67.1813 91.9219C67.874 92.5156 68.2203 93.3307 68.2203 94.3672C68.2203 95.5495 67.8427 96.4766 67.0875 97.1484C66.3375 97.8203 65.301 98.1562 63.9781 98.1562C62.6917 98.1562 61.7099 97.9505 61.0328 97.5391V96.2891C61.3974 96.5234 61.8505 96.7083 62.3922 96.8438C62.9339 96.974 63.4677 97.0391 63.9938 97.0391C64.9104 97.0391 65.6214 96.8229 66.1266 96.3906C66.637 95.9583 66.8922 95.3333 66.8922 94.5156C66.8922 92.9219 65.9156 92.125 63.9625 92.125C63.4677 92.125 62.8063 92.2005 61.9781 92.3516L61.3063 91.9219L61.7359 86.5781H67.4156V87.7734H62.8453L62.5563 91.2031C63.1552 91.0833 63.7516 91.0234 64.3453 91.0234Z" fill="white"/>
</svg>
