<svg width="80" height="104" viewBox="0 0 80 104" fill="none" xmlns="http://www.w3.org/2000/svg">
<path d="M37.9011 16.07L37.9037 16.0686C38.985 15.4496 40.4033 15.4475 41.4814 16.068L41.4848 16.0699C44.0554 17.5225 46.626 18.9739 49.1966 20.4252C52.8314 22.4775 56.466 24.5297 60.0999 26.5846L60.1007 26.585C61.1149 27.1563 61.7917 28.2898 61.7815 29.4453V29.4497L61.7815 50.5434L61.7815 50.5465C61.789 51.7465 61.0468 52.9105 59.9702 53.4723L59.963 53.4761L59.956 53.48C56.702 55.3146 53.4481 57.1508 50.1945 58.9868C47.2651 60.6399 44.336 62.2928 41.407 63.9444L41.4044 63.9459C40.3093 64.5721 38.8684 64.5255 37.8011 63.844L37.7921 63.8382L37.7828 63.8329C36.7742 63.2482 35.7629 62.664 34.7521 62.0802C33.907 61.592 33.0622 61.1041 32.2195 60.6161C32.1342 60.5653 32.0463 60.5165 31.9658 60.4717C31.9502 60.4631 31.9349 60.4545 31.9199 60.4462C31.8615 60.4136 31.8069 60.3828 31.7549 60.3522C31.7557 60.3519 31.7566 60.3516 31.7575 60.3514L31.7748 60.346C31.86 60.3197 31.9627 60.2878 32.0649 60.2475C32.8318 60.0013 33.5366 59.6204 34.1912 59.2666C34.2374 59.2416 34.2833 59.2168 34.3289 59.1922L34.3453 59.1834C34.3468 59.1839 34.3483 59.1844 34.3499 59.185C34.3623 59.1897 34.3775 59.1971 34.394 59.2077L34.4041 59.2141L34.4145 59.2201C35.0841 59.604 35.7573 59.9962 36.4323 60.3895C37.3407 60.9188 38.2523 61.45 39.1628 61.9653C39.5058 62.1624 39.8434 62.1121 40.0891 62.0214C40.2588 61.9588 40.4394 61.8523 40.5539 61.7848C40.5831 61.7675 40.6081 61.7528 40.6274 61.742L40.63 61.7406C43.5219 60.1061 46.4181 58.4732 49.3145 56.8401C52.488 55.0507 55.6618 53.2612 58.8306 51.4694C59.2392 51.2641 59.4507 50.838 59.4276 50.4186C59.4303 45.9957 59.43 41.5722 59.4297 37.149C59.4295 34.6251 59.4294 32.1012 59.4297 29.5777C59.4635 29.091 59.1832 28.66 58.7699 28.4622C55.3345 26.5275 51.9004 24.5913 48.4662 22.6551C45.7506 21.124 43.035 19.5929 40.3186 18.0625C40.1333 17.9411 39.9164 17.8761 39.6945 17.8758C39.4722 17.8754 39.2549 17.9399 39.0691 18.0611C36.3407 19.5988 33.6134 21.1375 30.8864 22.676C27.4642 24.6067 24.0424 26.5372 20.619 28.4654C20.2189 28.6575 19.9172 29.0788 19.9574 29.5808C19.9581 34.212 19.9579 38.8437 19.9576 43.4757C19.9575 45.7892 19.9574 48.1028 19.9574 50.4165C19.9434 50.6299 19.9926 50.843 20.099 51.029C20.2062 51.2163 20.3665 51.3674 20.5593 51.4635C21.6435 52.0782 22.7289 52.6904 23.8138 53.3022C24.3704 53.6161 24.9268 53.9299 25.4828 54.2439L25.4827 54.2439L25.4917 54.2488C26.4743 54.7777 27.7715 55.1445 28.987 54.6911C30.0877 54.2947 30.8495 53.1851 30.8308 52.0179C30.8349 48.7217 30.8341 45.4294 30.8333 42.1376C30.8325 38.5157 30.8316 34.8944 30.8372 31.2693L30.8372 31.2506L30.8369 31.2465C30.8372 31.2462 30.8376 31.2458 30.838 31.2455C30.8431 31.2408 30.8492 31.2373 30.8543 31.2355C30.8555 31.235 30.8564 31.2348 30.8571 31.2346C30.8574 31.2345 30.8577 31.2345 30.8579 31.2344L30.8821 31.2368L30.9079 31.2366C31.6989 31.2313 32.4844 31.226 33.2678 31.2387L33.2746 31.2388C33.2753 31.2396 33.276 31.2405 33.2768 31.2416C33.283 31.2496 33.2892 31.2612 33.293 31.275C33.2968 31.2885 33.297 31.2994 33.2961 31.306L33.2918 31.3385L33.2918 31.3711C33.2906 33.9367 33.2915 36.5018 33.2923 39.0667C33.2938 43.4631 33.2952 47.8588 33.2865 52.2552L33.2865 52.2568C33.2885 54.0074 32.5679 55.8059 31.0785 56.5951C29.1388 57.599 26.6992 57.3998 24.7189 56.4042L24.7176 56.4035C23.6006 55.846 22.532 55.2352 21.4494 54.6164C20.7842 54.2363 20.1138 53.8531 19.4236 53.4773L19.4236 53.4772L19.4144 53.4724C18.3376 52.9151 17.5982 51.7473 17.6056 50.5467V50.5436V29.4497H17.6056L17.6056 29.445C17.5945 28.2653 18.2985 27.1108 19.3444 26.5478L19.3444 26.5479L19.3531 26.543C24.014 23.9127 28.6742 21.2808 33.3342 18.6491C34.8565 17.7894 36.3788 16.9297 37.9011 16.07Z" stroke="white"/>
<path d="M50.82 31.9106L50.8219 31.9117C52.4801 32.8102 53.448 34.7069 53.5114 36.618C53.5033 36.6219 53.4932 36.6258 53.4813 36.6287C53.4642 36.6329 53.4477 36.6341 53.4341 36.6331L53.4165 36.6318L53.3989 36.6318C53.1462 36.6315 52.8961 36.6324 52.6476 36.6334C52.1154 36.6354 51.5902 36.6374 51.0609 36.6266L51.0462 36.6263L51.0416 36.6265C51.041 36.6257 51.0402 36.6249 51.0395 36.624C51.0301 36.613 51.0172 36.5935 51.005 36.5644C50.9929 36.5354 50.984 36.5026 50.9793 36.4695L50.9764 36.4496L50.972 36.43C50.729 35.3502 50.1236 34.1995 49.0027 33.6251L49.0027 33.6251L48.9985 33.623C47.4827 32.8641 45.7498 32.8819 44.2449 32.8974C44.1896 32.8979 44.1346 32.8985 44.0799 32.899L44.0691 32.8991L44.0582 32.8997C42.9264 32.9598 41.5495 33.0564 40.4436 33.8233C39.4741 34.4883 39.2264 35.7738 39.5439 36.7642L39.5506 36.7852L39.5592 36.8056C39.7453 37.2479 40.0877 37.5183 40.4216 37.6948C40.7156 37.8503 41.0434 37.9526 41.2995 38.0326C41.3254 38.0407 41.3506 38.0486 41.375 38.0562L41.3867 38.0599L41.3986 38.063C42.8513 38.443 44.342 38.6402 45.796 38.8327C46.0057 38.8604 46.2146 38.888 46.4225 38.9161C48.0868 39.1409 49.7001 39.3943 51.2415 39.9352L51.2438 39.9359C52.4936 40.3678 53.6114 41.1735 53.9941 42.3415C54.5427 44.0628 54.2864 46.0815 53.1098 47.409L53.1075 47.4118C52.1371 48.5228 50.6981 49.154 49.1956 49.5044C47.201 49.9488 45.1169 49.9632 43.054 49.7624C41.1155 49.541 39.1908 49.0383 37.7858 47.7982L37.7827 47.7956C36.6197 46.7857 36.0284 45.1925 36.0792 43.6274C36.0841 43.6241 36.0905 43.6209 36.0976 43.6187C36.1062 43.6161 36.1119 43.6162 36.1136 43.6163L36.137 43.6183L36.1604 43.6181C36.9467 43.6118 37.7309 43.6097 38.5141 43.6192L38.535 43.6194L38.5525 43.6182C38.5535 43.619 38.5548 43.6201 38.5562 43.6216C38.5619 43.6275 38.5691 43.6373 38.5751 43.651C38.581 43.6646 38.5844 43.6791 38.5851 43.6925L38.5864 43.7168L38.5901 43.7408C38.7423 44.7371 39.1318 45.9105 40.136 46.5933L40.136 46.5934L40.1461 46.6C41.7417 47.6294 43.6994 47.6488 45.3767 47.6655C45.5385 47.6671 45.6978 47.6686 45.8538 47.6711L45.8688 47.6713L45.8838 47.6707C45.962 47.6672 46.0413 47.6638 46.1216 47.6605C46.8058 47.6315 47.5603 47.5996 48.2873 47.4686C49.1068 47.3208 49.9326 47.0413 50.6406 46.4679L50.648 46.4618L50.6553 46.4555C51.4815 45.7321 51.6896 44.5693 51.4859 43.6193L51.4829 43.6053L51.4791 43.5915C51.3426 43.0955 51.0175 42.7522 50.6698 42.5141C50.3277 42.2797 49.9365 42.1282 49.6129 42.0184L49.6129 42.0183L49.6031 42.0152C48.0232 41.5154 46.3844 41.3413 44.8042 41.1734C44.7225 41.1647 44.641 41.1561 44.5597 41.1474C42.8858 40.9686 41.2782 40.7779 39.7541 40.2273L39.7508 40.2262C38.5322 39.7955 37.4432 39.0106 37.0201 37.8806C36.3842 36.1545 36.6926 34.0527 37.9838 32.7785L37.9838 32.7785L37.9873 32.7749C39.2812 31.4723 41.1822 30.9391 43.086 30.745C45.7678 30.5727 48.5279 30.6558 50.82 31.9106Z" stroke="white"/>
<path d="M2.33594 101.844C1.84115 101.844 1.4401 101.779 1.13281 101.648V100.594C1.49219 100.698 1.84635 100.75 2.19531 100.75C2.60156 100.75 2.89844 100.638 3.08594 100.414C3.27865 100.195 3.375 99.8594 3.375 99.4062V89.4375H4.67188V99.3125C4.67188 101 3.89323 101.844 2.33594 101.844ZM3.26562 87.1172C3.26562 86.8203 3.33854 86.6042 3.48438 86.4688C3.63021 86.3281 3.8125 86.2578 4.03125 86.2578C4.23958 86.2578 4.41927 86.3281 4.57031 86.4688C4.72135 86.6094 4.79688 86.8255 4.79688 87.1172C4.79688 87.4089 4.72135 87.6276 4.57031 87.7734C4.41927 87.9141 4.23958 87.9844 4.03125 87.9844C3.8125 87.9844 3.63021 87.9141 3.48438 87.7734C3.33854 87.6276 3.26562 87.4089 3.26562 87.1172ZM13.1675 98L12.9097 96.7812H12.8472C12.4201 97.3177 11.993 97.6823 11.5659 97.875C11.1441 98.0625 10.6154 98.1562 9.98 98.1562C9.13104 98.1562 8.46438 97.9375 7.98 97.5C7.50083 97.0625 7.26125 96.4401 7.26125 95.6328C7.26125 93.9036 8.64406 92.9974 11.4097 92.9141L12.8628 92.8672V92.3359C12.8628 91.6641 12.717 91.1693 12.4253 90.8516C12.1389 90.5286 11.6779 90.3672 11.0425 90.3672C10.329 90.3672 9.52167 90.5859 8.62063 91.0234L8.22219 90.0312C8.64406 89.8021 9.105 89.6224 9.605 89.4922C10.1102 89.362 10.6154 89.2969 11.1206 89.2969C12.1415 89.2969 12.8967 89.5234 13.3863 89.9766C13.881 90.4297 14.1284 91.1562 14.1284 92.1562V98H13.1675ZM10.2378 97.0859C11.0451 97.0859 11.6779 96.8646 12.1363 96.4219C12.5998 95.9792 12.8316 95.3594 12.8316 94.5625V93.7891L11.5347 93.8438C10.5034 93.8802 9.75865 94.0417 9.30031 94.3281C8.84719 94.6094 8.62063 95.0495 8.62063 95.6484C8.62063 96.1172 8.76125 96.474 9.0425 96.7188C9.32896 96.9635 9.7274 97.0859 10.2378 97.0859ZM19.1631 98L15.9131 89.4375H17.3038L19.1475 94.5156C19.5642 95.7031 19.809 96.474 19.8819 96.8281H19.9444C20.0017 96.5521 20.1814 95.9818 20.4834 95.1172C20.7907 94.2474 21.4756 92.3542 22.5381 89.4375H23.9288L20.6788 98H19.1631ZM31.0494 98L30.7916 96.7812H30.7291C30.302 97.3177 29.8749 97.6823 29.4478 97.875C29.0259 98.0625 28.4973 98.1562 27.8619 98.1562C27.0129 98.1562 26.3463 97.9375 25.8619 97.5C25.3827 97.0625 25.1431 96.4401 25.1431 95.6328C25.1431 93.9036 26.5259 92.9974 29.2916 92.9141L30.7447 92.8672V92.3359C30.7447 91.6641 30.5989 91.1693 30.3072 90.8516C30.0207 90.5286 29.5598 90.3672 28.9244 90.3672C28.2108 90.3672 27.4035 90.5859 26.5025 91.0234L26.1041 90.0312C26.5259 89.8021 26.9869 89.6224 27.4869 89.4922C27.9921 89.362 28.4973 89.2969 29.0025 89.2969C30.0233 89.2969 30.7785 89.5234 31.2681 89.9766C31.7629 90.4297 32.0103 91.1562 32.0103 92.1562V98H31.0494ZM28.1197 97.0859C28.927 97.0859 29.5598 96.8646 30.0181 96.4219C30.4817 95.9792 30.7134 95.3594 30.7134 94.5625V93.7891L29.4166 93.8438C28.3853 93.8802 27.6405 94.0417 27.1822 94.3281C26.7291 94.6094 26.5025 95.0495 26.5025 95.6484C26.5025 96.1172 26.6431 96.474 26.9244 96.7188C27.2108 96.9635 27.6093 97.0859 28.1197 97.0859ZM40.6934 95.6641C40.6934 96.4609 40.3966 97.0755 39.8028 97.5078C39.2091 97.9401 38.3757 98.1562 37.3028 98.1562C36.1674 98.1562 35.282 97.9766 34.6466 97.6172V96.4141C35.058 96.6224 35.4981 96.7865 35.9669 96.9062C36.4408 97.026 36.8966 97.0859 37.3341 97.0859C38.0111 97.0859 38.532 96.9792 38.8966 96.7656C39.2611 96.5469 39.4434 96.2161 39.4434 95.7734C39.4434 95.4401 39.2976 95.1562 39.0059 94.9219C38.7195 94.6823 38.157 94.401 37.3184 94.0781C36.5216 93.7812 35.9539 93.5234 35.6153 93.3047C35.282 93.0807 35.032 92.8281 34.8653 92.5469C34.7039 92.2656 34.6231 91.9297 34.6231 91.5391C34.6231 90.8411 34.907 90.2917 35.4747 89.8906C36.0424 89.4844 36.821 89.2812 37.8106 89.2812C38.7325 89.2812 39.6335 89.4688 40.5138 89.8438L40.0528 90.8984C39.1934 90.5443 38.4148 90.3672 37.7169 90.3672C37.1023 90.3672 36.6388 90.4635 36.3263 90.6562C36.0138 90.849 35.8575 91.1146 35.8575 91.4531C35.8575 91.6823 35.9148 91.8776 36.0294 92.0391C36.1492 92.2005 36.3393 92.3542 36.5997 92.5C36.8601 92.6458 37.3601 92.8568 38.0997 93.1328C39.1153 93.5026 39.8002 93.875 40.1544 94.25C40.5138 94.625 40.6934 95.0964 40.6934 95.6641ZM46.7125 98.1562C45.4729 98.1562 44.512 97.776 43.8297 97.0156C43.1526 96.25 42.8141 95.1693 42.8141 93.7734C42.8141 92.3411 43.1578 91.2344 43.8453 90.4531C44.538 89.6719 45.5224 89.2812 46.7984 89.2812C47.2099 89.2812 47.6214 89.3255 48.0328 89.4141C48.4443 89.5026 48.7672 89.6068 49.0016 89.7266L48.6031 90.8281C48.3167 90.7135 48.0042 90.6198 47.6656 90.5469C47.3271 90.4688 47.0276 90.4297 46.7672 90.4297C45.0276 90.4297 44.1578 91.5391 44.1578 93.7578C44.1578 94.8099 44.3688 95.6172 44.7906 96.1797C45.2177 96.7422 45.8479 97.0234 46.6813 97.0234C47.3948 97.0234 48.1266 96.8698 48.8766 96.5625V97.7109C48.3036 98.0078 47.5823 98.1562 46.7125 98.1562ZM55.3019 89.2812C55.6821 89.2812 56.0232 89.3125 56.3253 89.375L56.1456 90.5781C55.7915 90.5 55.479 90.4609 55.2081 90.4609C54.5154 90.4609 53.9217 90.7422 53.4269 91.3047C52.9373 91.8672 52.6925 92.5677 52.6925 93.4062V98H51.3956V89.4375H52.4659L52.6144 91.0234H52.6769C52.9946 90.4661 53.3774 90.0365 53.8253 89.7344C54.2732 89.4323 54.7654 89.2812 55.3019 89.2812ZM59.7038 98H58.4069V89.4375H59.7038V98ZM58.2975 87.1172C58.2975 86.8203 58.3704 86.6042 58.5163 86.4688C58.6621 86.3281 58.8444 86.2578 59.0631 86.2578C59.2715 86.2578 59.4511 86.3281 59.6022 86.4688C59.7532 86.6094 59.8288 86.8255 59.8288 87.1172C59.8288 87.4089 59.7532 87.6276 59.6022 87.7734C59.4511 87.9141 59.2715 87.9844 59.0631 87.9844C58.8444 87.9844 58.6621 87.9141 58.5163 87.7734C58.3704 87.6276 58.2975 87.4089 58.2975 87.1172ZM66.9181 98.1562C66.3608 98.1562 65.8504 98.0547 65.3869 97.8516C64.9285 97.6432 64.5431 97.3255 64.2306 96.8984H64.1369C64.1994 97.3984 64.2306 97.8724 64.2306 98.3203V101.844H62.9338V89.4375H63.9884L64.1681 90.6094H64.2306C64.564 90.1406 64.952 89.8021 65.3947 89.5938C65.8374 89.3854 66.3452 89.2812 66.9181 89.2812C68.0535 89.2812 68.9285 89.6693 69.5431 90.4453C70.1629 91.2214 70.4728 92.3099 70.4728 93.7109C70.4728 95.1172 70.1577 96.2109 69.5275 96.9922C68.9025 97.7682 68.0327 98.1562 66.9181 98.1562ZM66.7306 90.3828C65.8556 90.3828 65.2228 90.625 64.8322 91.1094C64.4416 91.5938 64.241 92.3646 64.2306 93.4219V93.7109C64.2306 94.9141 64.4311 95.776 64.8322 96.2969C65.2332 96.8125 65.8765 97.0703 66.7619 97.0703C67.5015 97.0703 68.0796 96.7708 68.4963 96.1719C68.9181 95.5729 69.1291 94.7474 69.1291 93.6953C69.1291 92.6276 68.9181 91.8099 68.4963 91.2422C68.0796 90.6693 67.491 90.3828 66.7306 90.3828ZM75.9919 97.0859C76.221 97.0859 76.4424 97.0703 76.6559 97.0391C76.8695 97.0026 77.0387 96.9661 77.1637 96.9297V97.9219C77.0231 97.9896 76.8148 98.0443 76.5387 98.0859C76.2679 98.1328 76.0231 98.1562 75.8044 98.1562C74.1481 98.1562 73.32 97.2839 73.32 95.5391V90.4453H72.0934V89.8203L73.32 89.2812L73.8669 87.4531H74.6169V89.4375H77.1012V90.4453H74.6169V95.4844C74.6169 96 74.7393 96.3958 74.9841 96.6719C75.2289 96.9479 75.5648 97.0859 75.9919 97.0859Z" fill="white"/>
</svg>
