<svg width="80" height="104" viewBox="0 0 80 104" fill="none" xmlns="http://www.w3.org/2000/svg">
<path fill-rule="evenodd" clip-rule="evenodd" d="M51.8966 29.1974C51.3162 33.2454 49.5157 38.3706 46.5944 43.5773C43.673 48.784 40.2371 52.9916 37.0848 55.5965C35.5054 56.9016 34.0474 57.7627 32.8048 58.1731C31.5631 58.5832 30.6634 58.5076 30.0329 58.1539C29.4024 57.8001 28.869 57.0716 28.5719 55.7981C28.2746 54.5237 28.2497 52.8306 28.5405 50.8025C29.1209 46.7546 30.9214 41.6294 33.8427 36.4227C36.7641 31.216 40.2 27.0083 43.3523 24.4034C44.9317 23.0983 46.3897 22.2373 47.6322 21.8269C48.874 21.4167 49.7737 21.4923 50.4042 21.8461C51.0347 22.1998 51.5681 22.9284 51.8652 24.2019C52.1625 25.4762 52.1874 27.1693 51.8966 29.1974ZM54.2034 23.6564C53.8147 21.9901 52.9983 20.5484 51.5791 19.7521C50.1598 18.9558 48.5039 19.0104 46.8792 19.547C45.2554 20.0833 43.5362 21.1367 41.8228 22.5526C38.3895 25.3897 34.7772 29.8502 31.7488 35.2478C28.7203 40.6454 26.7959 46.053 26.1637 50.4617C25.8483 52.662 25.8451 54.6782 26.2336 56.3436C26.6224 58.0098 27.4388 59.4515 28.858 60.2478C30.2773 61.0441 31.9332 60.9896 33.5578 60.453C35.1817 59.9167 36.9008 58.8633 38.6143 57.4474C42.0476 54.6103 45.6599 50.1498 48.6883 44.7521C51.7168 39.3545 53.6412 33.947 54.2733 29.5382C54.5888 27.338 54.5919 25.3218 54.2034 23.6564Z" stroke="white"/>
<path fill-rule="evenodd" clip-rule="evenodd" d="M28.5389 29.1974C29.1193 33.2454 30.9198 38.3706 33.8412 43.5773C36.7625 48.784 40.1984 52.9916 43.3507 55.5965C44.9301 56.9016 46.3881 57.7627 47.6307 58.1731C48.8724 58.5832 49.7722 58.5076 50.4027 58.1539C51.0332 57.8001 51.5666 57.0716 51.8637 55.7981C52.161 54.5237 52.1859 52.8306 51.8951 50.8025C51.3147 46.7546 49.5142 41.6294 46.5928 36.4227C43.6715 31.216 40.2356 27.0083 37.0833 24.4034C35.5039 23.0983 34.0459 22.2373 32.8033 21.8269C31.5616 21.4167 30.6619 21.4923 30.0313 21.8461C29.4008 22.1998 28.8674 22.9284 28.5704 24.2019C28.2731 25.4762 28.2481 27.1693 28.5389 29.1974ZM26.2321 23.6564C26.6208 21.9901 27.4372 20.5484 28.8565 19.7521C30.2757 18.9558 31.9316 19.0104 33.5563 19.547C35.1801 20.0833 36.8993 21.1367 38.6127 22.5526C42.046 25.3897 45.6583 29.8502 48.6868 35.2478C51.7152 40.6454 53.6396 46.053 54.2718 50.4617C54.5873 52.662 54.5904 54.6782 54.2019 56.3436C53.8132 58.0098 52.9968 59.4515 51.5775 60.2478C50.1583 61.0441 48.5024 60.9896 46.8777 60.453C45.2539 59.9167 43.5347 58.8633 41.8213 57.4474C38.388 54.6103 34.7757 50.1498 31.7472 44.7521C28.7188 39.3545 26.7944 33.947 26.1622 29.5382C25.8467 27.338 25.8436 25.3218 26.2321 23.6564Z" stroke="white"/>
<path fill-rule="evenodd" clip-rule="evenodd" d="M25.0819 44.8986C28.8961 46.3731 34.2469 47.3107 40.2172 47.3107C46.1874 47.3107 51.5382 46.3731 55.3524 44.8986C57.2634 44.1598 58.7278 43.3096 59.6937 42.4268C60.659 41.5445 61.0333 40.7229 61.0333 39.9999C61.0333 39.2769 60.659 38.4553 59.6937 37.5731C58.7278 36.6902 57.2634 35.84 55.3524 35.1012C51.5382 33.6267 46.1874 32.6891 40.2172 32.6891C34.2469 32.6891 28.8961 33.6267 25.0819 35.1012C23.1709 35.84 21.7065 36.6902 20.7406 37.5731C19.7754 38.4553 19.401 39.2769 19.401 39.9999C19.401 40.7229 19.7754 41.5445 20.7406 42.4268C21.7065 43.3096 23.1709 44.1598 25.0819 44.8986ZM19.1208 44.199C17.8578 43.0447 17 41.6273 17 39.9999C17 38.3725 17.8578 36.9551 19.1208 35.8008C20.383 34.6471 22.143 33.6632 24.2162 32.8617C28.3704 31.2558 34.028 30.2881 40.2172 30.2881C46.4063 30.2881 52.0639 31.2558 56.2182 32.8617C58.2914 33.6632 60.0513 34.647 61.3136 35.8008C62.5765 36.9551 63.4343 38.3725 63.4343 39.9999C63.4343 41.6273 62.5765 43.0447 61.3136 44.199C60.0513 45.3528 58.2914 46.3366 56.2182 47.1381C52.0639 48.7441 46.4063 49.7118 40.2172 49.7118C34.028 49.7118 28.3704 48.7441 24.2162 47.1381C22.143 46.3366 20.383 45.3528 19.1208 44.199Z" stroke="white"/>
<path d="M43.3088 40.1391C43.3088 42.0608 41.751 43.6187 39.8292 43.6187C37.9075 43.6187 36.3496 42.0608 36.3496 40.1391C36.3496 38.2174 37.9075 36.6595 39.8292 36.6595C41.751 36.6595 43.3088 38.2174 43.3088 40.1391Z" stroke="white"/>
<path d="M21.8984 93.25V98H20.5703V86.5781H23.7031C25.1042 86.5781 26.138 86.8464 26.8047 87.3828C27.4766 87.9193 27.8125 88.7266 27.8125 89.8047C27.8125 91.3151 27.0469 92.3359 25.5156 92.8672L28.6172 98H27.0469L24.2812 93.25H21.8984ZM21.8984 92.1094H23.7188C24.6562 92.1094 25.3438 91.9245 25.7812 91.5547C26.2188 91.1797 26.4375 90.6198 26.4375 89.875C26.4375 89.1198 26.2135 88.5755 25.7656 88.2422C25.3229 87.9089 24.6094 87.7422 23.625 87.7422H21.8984V92.1094ZM34.3628 98.1562C33.0972 98.1562 32.0972 97.7708 31.3628 97C30.6336 96.2292 30.2691 95.1589 30.2691 93.7891C30.2691 92.4089 30.6076 91.3125 31.2847 90.5C31.967 89.6875 32.881 89.2812 34.0269 89.2812C35.0998 89.2812 35.9487 89.6354 36.5737 90.3438C37.1987 91.0469 37.5112 91.9766 37.5112 93.1328V93.9531H31.6128C31.6389 94.9583 31.8915 95.7214 32.3706 96.2422C32.855 96.763 33.5347 97.0234 34.4097 97.0234C35.3316 97.0234 36.243 96.8307 37.1441 96.4453V97.6016C36.6857 97.7995 36.2508 97.9401 35.8394 98.0234C35.4331 98.112 34.9409 98.1562 34.3628 98.1562ZM34.0112 90.3672C33.3237 90.3672 32.7743 90.5911 32.3628 91.0391C31.9566 91.487 31.717 92.1068 31.6441 92.8984H36.1206C36.1206 92.0807 35.9383 91.4557 35.5737 91.0234C35.2092 90.5859 34.6883 90.3672 34.0112 90.3672ZM45.4756 98L45.2178 96.7812H45.1553C44.7282 97.3177 44.3011 97.6823 43.8741 97.875C43.4522 98.0625 42.9235 98.1562 42.2881 98.1562C41.4392 98.1562 40.7725 97.9375 40.2881 97.5C39.809 97.0625 39.5694 96.4401 39.5694 95.6328C39.5694 93.9036 40.9522 92.9974 43.7178 92.9141L45.1709 92.8672V92.3359C45.1709 91.6641 45.0251 91.1693 44.7334 90.8516C44.447 90.5286 43.986 90.3672 43.3506 90.3672C42.6371 90.3672 41.8298 90.5859 40.9287 91.0234L40.5303 90.0312C40.9522 89.8021 41.4131 89.6224 41.9131 89.4922C42.4183 89.362 42.9235 89.2969 43.4287 89.2969C44.4496 89.2969 45.2048 89.5234 45.6944 89.9766C46.1892 90.4297 46.4366 91.1562 46.4366 92.1562V98H45.4756ZM42.5459 97.0859C43.3532 97.0859 43.986 96.8646 44.4444 96.4219C44.9079 95.9792 45.1397 95.3594 45.1397 94.5625V93.7891L43.8428 93.8438C42.8116 93.8802 42.0668 94.0417 41.6084 94.3281C41.1553 94.6094 40.9287 95.0495 40.9287 95.6484C40.9287 96.1172 41.0694 96.474 41.3506 96.7188C41.6371 96.9635 42.0355 97.0859 42.5459 97.0859ZM53.0181 98.1562C51.7785 98.1562 50.8176 97.776 50.1353 97.0156C49.4582 96.25 49.1197 95.1693 49.1197 93.7734C49.1197 92.3411 49.4634 91.2344 50.1509 90.4531C50.8436 89.6719 51.828 89.2812 53.1041 89.2812C53.5155 89.2812 53.927 89.3255 54.3384 89.4141C54.7499 89.5026 55.0728 89.6068 55.3072 89.7266L54.9088 90.8281C54.6223 90.7135 54.3098 90.6198 53.9713 90.5469C53.6327 90.4688 53.3332 90.4297 53.0728 90.4297C51.3332 90.4297 50.4634 91.5391 50.4634 93.7578C50.4634 94.8099 50.6744 95.6172 51.0963 96.1797C51.5233 96.7422 52.1535 97.0234 52.9869 97.0234C53.7004 97.0234 54.4322 96.8698 55.1822 96.5625V97.7109C54.6093 98.0078 53.8879 98.1562 53.0181 98.1562ZM60.4669 97.0859C60.696 97.0859 60.9174 97.0703 61.1309 97.0391C61.3445 97.0026 61.5137 96.9661 61.6387 96.9297V97.9219C61.4981 97.9896 61.2898 98.0443 61.0137 98.0859C60.7429 98.1328 60.4981 98.1562 60.2794 98.1562C58.6231 98.1562 57.795 97.2839 57.795 95.5391V90.4453H56.5684V89.8203L57.795 89.2812L58.3419 87.4531H59.0919V89.4375H61.5762V90.4453H59.0919V95.4844C59.0919 96 59.2143 96.3958 59.4591 96.6719C59.7039 96.9479 60.0398 97.0859 60.4669 97.0859Z" fill="white"/>
</svg>
