<svg width="80" height="104" viewBox="0 0 80 104" fill="none" xmlns="http://www.w3.org/2000/svg">
<path fill-rule="evenodd" clip-rule="evenodd" d="M39.455 26.2552V18L20.4827 29.0437L27.719 33.3118L39.455 26.2552ZM39.1046 18.6094V18.6093L21.1756 29.0457L27.7173 32.904L27.7175 32.9039L21.1759 29.0456L39.1046 18.6094ZM27.7151 32.3399L38.6201 25.783V19.4521L38.6204 19.4519V25.7829L27.7152 32.34L27.7151 32.3399ZM38.2698 20.0613V25.5848L27.7132 31.9323L22.827 29.0505L38.2698 20.0613ZM27.0985 34.1604L20 29.8593V52.1818L27.0985 47.8807V34.1604ZM20.3507 30.4814V51.5597L20.3503 51.5599V30.4812L20.3507 30.4814ZM26.2636 34.6307V47.4104L20.8352 50.6995V50.6997L26.2639 47.4103V34.6306L20.8352 31.3413V31.3416L26.2636 34.6307ZM25.9133 47.2131L21.1852 50.0779V31.9633L25.9133 34.8281V47.2131ZM27.9484 48.2477L20.9717 52.5557L39.455 63V54.5013L27.9484 48.2477ZM27.9596 48.6525L21.6602 52.5424L39.1046 62.3997V62.3994L21.6605 52.5423L27.9597 48.6526L27.9596 48.6525ZM38.6201 61.569V54.9978L27.9752 49.2125L27.9754 49.2124L38.6204 54.9977V61.5692L38.6201 61.569ZM23.3009 52.5105L27.9863 49.6173L38.2698 55.2061V60.9689L23.3009 52.5105ZM40.4503 54.5013V62.996L59.1894 52.5522L51.9535 48.2496L40.4503 54.5013ZM40.8006 54.7096V62.3997L40.801 62.3995V54.7095L51.9458 48.6526L51.9457 48.6525L40.8006 54.7096ZM41.2856 61.5747L57.5164 52.5288L51.935 49.2099L51.9353 49.2098L57.5168 52.5287L41.2856 61.5748V61.5747ZM41.6355 60.9786V55.2061L51.9272 49.6128L56.8145 52.519L41.6355 60.9786ZM53.0491 47.8873L60.1476 51.9196V29.8593L53.0491 34.1604V47.8873ZM53.3994 47.6834V34.3577L59.7973 30.4812V30.4813L53.3998 34.3576V47.6833L59.7973 51.3174V51.3177L53.3994 47.6834ZM59.3128 31.3415V50.4848L59.3131 50.485V31.3413L59.3128 31.3415ZM54.2343 47.1975L58.9624 49.8832V31.9633L54.2343 34.8281V47.1975ZM52.678 33.3116L59.6585 29.036L40.4503 18.0041V26.2594L52.678 33.3116ZM40.801 18.6095V26.0569L52.6728 32.9039L52.6726 32.904L40.8006 26.057V18.6093L40.801 18.6095ZM41.2856 19.4466V19.4463L58.0227 29.059L52.6655 32.3403L52.6654 32.3402L58.0223 29.0591L41.2856 19.4466ZM41.6355 25.5748V20.0516L57.3358 29.0688L52.6598 31.9328L41.6355 25.5748ZM28.4441 35.0846V47.1988L39.1046 53.0137V53.0134L28.4445 47.1987V35.0848L28.4441 35.0846ZM38.6201 52.1971V41.6605L28.929 35.934V35.9337L38.6204 41.6604V52.1973L38.6201 52.1971ZM29.279 46.7032V36.5477L38.2698 41.8604V51.6072L29.279 46.7032ZM28.0938 34.4707V47.4068L39.455 53.6038V41.1841L28.0938 34.4707ZM40.0719 27.4181L28.704 33.6187L40.0718 40.336L51.6981 33.6187L40.0719 27.4181ZM29.4133 33.6309L40.0738 39.9303L40.074 39.9301L29.4136 33.6308L40.0739 27.8161L40.0738 27.8161L29.4133 33.6309ZM40.0768 39.3689L49.9787 33.6479L40.0765 28.3667L40.0767 28.3665L49.979 33.6478L40.0769 39.369L40.0768 39.3689ZM40.0782 28.7647L49.2572 33.6601L40.0785 38.9633L31.1036 33.6599L40.0782 28.7647ZM40.6927 41.1841V53.6156L52.0538 47.1604V34.4707L40.6927 41.1841ZM51.7034 35.0846L41.043 41.384V53.0137L41.0433 53.0135V41.3839L51.7034 35.0847V35.0846ZM41.5279 52.1808L51.2189 46.6745V35.9339L51.2192 35.9337V46.6744L41.5279 52.1809V52.1808ZM50.8685 36.5477V46.4707L41.8779 51.579V41.8604L50.8685 36.5477Z" fill="white"/>
<path d="M15.5391 98H14.2266L11.9219 90.3516C11.8125 90.013 11.6901 89.5859 11.5547 89.0703C11.4193 88.5547 11.349 88.2448 11.3438 88.1406C11.2292 88.8281 11.0469 89.5807 10.7969 90.3984L8.5625 98H7.25L4.21094 86.5781H5.61719L7.42188 93.6328C7.67188 94.6224 7.85417 95.5182 7.96875 96.3203C8.10938 95.3672 8.31771 94.4349 8.59375 93.5234L10.6406 86.5781H12.0469L14.1953 93.5859C14.4453 94.3932 14.6562 95.3047 14.8281 96.3203C14.9271 95.5807 15.1146 94.6797 15.3906 93.6172L17.1875 86.5781H18.5938L15.5391 98ZM24.2847 98.1562C23.0191 98.1562 22.0191 97.7708 21.2847 97C20.5555 96.2292 20.1909 95.1589 20.1909 93.7891C20.1909 92.4089 20.5295 91.3125 21.2066 90.5C21.8889 89.6875 22.8029 89.2812 23.9487 89.2812C25.0217 89.2812 25.8706 89.6354 26.4956 90.3438C27.1206 91.0469 27.4331 91.9766 27.4331 93.1328V93.9531H21.5347C21.5607 94.9583 21.8133 95.7214 22.2925 96.2422C22.7769 96.763 23.4566 97.0234 24.3316 97.0234C25.2534 97.0234 26.1649 96.8307 27.0659 96.4453V97.6016C26.6076 97.7995 26.1727 97.9401 25.7612 98.0234C25.355 98.112 24.8628 98.1562 24.2847 98.1562ZM23.9331 90.3672C23.2456 90.3672 22.6961 90.5911 22.2847 91.0391C21.8784 91.487 21.6389 92.1068 21.5659 92.8984H26.0425C26.0425 92.0807 25.8602 91.4557 25.4956 91.0234C25.131 90.5859 24.6102 90.3672 23.9331 90.3672ZM34.1162 89.2969C35.2412 89.2969 36.1136 89.6823 36.7334 90.4531C37.3584 91.2188 37.6709 92.3047 37.6709 93.7109C37.6709 95.1172 37.3558 96.2109 36.7256 96.9922C36.1006 97.7682 35.2308 98.1562 34.1162 98.1562C33.559 98.1562 33.0485 98.0547 32.585 97.8516C32.1267 97.6432 31.7412 97.3255 31.4287 96.8984H31.335L31.0616 98H30.1319V85.8438H31.4287V88.7969C31.4287 89.4583 31.4079 90.0521 31.3662 90.5781H31.4287C32.0329 89.724 32.9287 89.2969 34.1162 89.2969ZM33.9287 90.3828C33.0433 90.3828 32.4053 90.638 32.0147 91.1484C31.6241 91.6536 31.4287 92.5078 31.4287 93.7109C31.4287 94.9141 31.6293 95.776 32.0303 96.2969C32.4314 96.8125 33.0746 97.0703 33.96 97.0703C34.7569 97.0703 35.3506 96.7812 35.7412 96.2031C36.1319 95.6198 36.3272 94.7839 36.3272 93.6953C36.3272 92.5807 36.1319 91.75 35.7412 91.2031C35.3506 90.6562 34.7465 90.3828 33.9287 90.3828ZM44.4087 98.1562C43.8515 98.1562 43.341 98.0547 42.8775 97.8516C42.4192 97.6432 42.0337 97.3255 41.7212 96.8984H41.6275C41.69 97.3984 41.7212 97.8724 41.7212 98.3203V101.844H40.4244V89.4375H41.4791L41.6587 90.6094H41.7212C42.0546 90.1406 42.4426 89.8021 42.8853 89.5938C43.328 89.3854 43.8358 89.2812 44.4087 89.2812C45.5442 89.2812 46.4192 89.6693 47.0337 90.4453C47.6535 91.2214 47.9634 92.3099 47.9634 93.7109C47.9634 95.1172 47.6483 96.2109 47.0181 96.9922C46.3931 97.7682 45.5233 98.1562 44.4087 98.1562ZM44.2212 90.3828C43.3462 90.3828 42.7134 90.625 42.3228 91.1094C41.9322 91.5938 41.7317 92.3646 41.7212 93.4219V93.7109C41.7212 94.9141 41.9218 95.776 42.3228 96.2969C42.7239 96.8125 43.3671 97.0703 44.2525 97.0703C44.9921 97.0703 45.5702 96.7708 45.9869 96.1719C46.4087 95.5729 46.6197 94.7474 46.6197 93.6953C46.6197 92.6276 46.4087 91.8099 45.9869 91.2422C45.5702 90.6693 44.9817 90.3828 44.2212 90.3828ZM55.9825 98L55.7247 96.7812H55.6622C55.2351 97.3177 54.808 97.6823 54.3809 97.875C53.9591 98.0625 53.4304 98.1562 52.795 98.1562C51.946 98.1562 51.2794 97.9375 50.795 97.5C50.3158 97.0625 50.0762 96.4401 50.0762 95.6328C50.0762 93.9036 51.4591 92.9974 54.2247 92.9141L55.6778 92.8672V92.3359C55.6778 91.6641 55.532 91.1693 55.2403 90.8516C54.9539 90.5286 54.4929 90.3672 53.8575 90.3672C53.144 90.3672 52.3367 90.5859 51.4356 91.0234L51.0372 90.0312C51.4591 89.8021 51.92 89.6224 52.42 89.4922C52.9252 89.362 53.4304 89.2969 53.9356 89.2969C54.9565 89.2969 55.7117 89.5234 56.2012 89.9766C56.696 90.4297 56.9434 91.1562 56.9434 92.1562V98H55.9825ZM53.0528 97.0859C53.8601 97.0859 54.4929 96.8646 54.9512 96.4219C55.4148 95.9792 55.6466 95.3594 55.6466 94.5625V93.7891L54.3497 93.8438C53.3184 93.8802 52.5736 94.0417 52.1153 94.3281C51.6622 94.6094 51.4356 95.0495 51.4356 95.6484C51.4356 96.1172 51.5762 96.474 51.8575 96.7188C52.144 96.9635 52.5424 97.0859 53.0528 97.0859ZM63.525 98.1562C62.2854 98.1562 61.3245 97.776 60.6422 97.0156C59.9651 96.25 59.6266 95.1693 59.6266 93.7734C59.6266 92.3411 59.9703 91.2344 60.6578 90.4531C61.3505 89.6719 62.3349 89.2812 63.6109 89.2812C64.0224 89.2812 64.4339 89.3255 64.8453 89.4141C65.2568 89.5026 65.5797 89.6068 65.8141 89.7266L65.4156 90.8281C65.1292 90.7135 64.8167 90.6198 64.4781 90.5469C64.1396 90.4688 63.8401 90.4297 63.5797 90.4297C61.8401 90.4297 60.9703 91.5391 60.9703 93.7578C60.9703 94.8099 61.1813 95.6172 61.6031 96.1797C62.0302 96.7422 62.6604 97.0234 63.4938 97.0234C64.2073 97.0234 64.9391 96.8698 65.6891 96.5625V97.7109C65.1161 98.0078 64.3948 98.1562 63.525 98.1562ZM69.4894 93.6172C69.7133 93.2995 70.0545 92.8828 70.5128 92.3672L73.2784 89.4375H74.8175L71.3488 93.0859L75.0597 98H73.4894L70.4659 93.9531L69.4894 94.7969V98H68.2081V85.8438H69.4894V92.2891C69.4894 92.5755 69.4685 93.0182 69.4269 93.6172H69.4894Z" fill="white"/>
</svg>
