<svg width="835" height="1422" viewBox="0 0 835 1422" fill="none" xmlns="http://www.w3.org/2000/svg">
<path d="M279 2H533.75C573.929 2 606.5 34.5713 606.5 74.75V74.75C606.5 114.929 573.929 147.5 533.75 147.5H168.25C124.481 147.5 89 182.981 89 226.75V226.75C89 270.519 124.481 306 168.25 306H585C619.794 306 648 334.206 648 369V369C648 403.794 619.794 432 585 432H365C328.825 432 299.5 461.325 299.5 497.5V497.5C299.5 533.675 328.825 563 365 563H487.75C529.586 563 563.5 596.914 563.5 638.75V638.75C563.5 680.586 529.586 714.5 487.75 714.5H134.75C92.3622 714.5 58 748.862 58 791.25V791.25C58 833.638 92.3621 868 134.75 868H480.5H767.738C803.149 868 832.045 896.345 832.726 931.75V931.75C833.426 968.131 804.126 998 767.738 998H560.5C516.317 998 480.5 1033.82 480.5 1078V1202C480.5 1246.18 444.683 1282 400.5 1282H71C32.8924 1282 2 1312.89 2 1351V1351C2 1389.11 32.8924 1420 71 1420H315" stroke="#CCCCCC" stroke-width="4"/>
</svg>
