<svg width="1191" height="389" viewBox="0 0 1191 389" fill="none" xmlns="http://www.w3.org/2000/svg">
<g opacity="0.05">
<path fill-rule="evenodd" clip-rule="evenodd" d="M1289.06 222.836L1097.93 381.375C1084.26 392.235 1064.48 389.834 1053.74 376.014L1047.76 368.314C1037.02 354.484 1039.39 334.471 1053.05 323.606L1208.85 194.377L1053.74 65.2147C1040.15 54.3734 1037.79 34.392 1048.47 20.5968L1054.43 12.9071C1065.1 -0.888109 1084.78 -3.28826 1098.37 7.55918L1288.37 165.774C1296.2 172.02 1300.17 181.312 1300.2 190.69C1302.83 202.325 1298.95 214.974 1289.06 222.836Z" fill="#04D5D9"/>
<path fill-rule="evenodd" clip-rule="evenodd" d="M713.657 64.5595C643.413 64.5595 586.472 122.367 586.472 193.679V322.798H713.657C783.901 322.798 840.842 264.991 840.842 193.679C840.842 122.367 783.901 64.5595 713.657 64.5595ZM522.88 193.679C522.88 86.7154 608.296 0 713.657 0C819.018 0 904.434 86.7154 904.434 193.679C904.434 300.642 819.018 387.357 713.657 387.357H522.88V193.679Z" fill="#04D5D9"/>
<path fill-rule="evenodd" clip-rule="evenodd" d="M193.132 63.1584C121.249 63.1584 62.98 121.592 62.98 193.679C62.98 265.765 121.249 324.199 193.132 324.199C265.015 324.199 323.285 265.765 323.285 193.679C323.285 121.592 265.015 63.1584 193.132 63.1584ZM0 193.679C0 86.7106 86.4668 0 193.132 0C299.798 0 386.265 86.7106 386.265 193.679C386.265 300.647 299.798 387.357 193.132 387.357C86.4668 387.357 0 300.647 0 193.679Z" fill="#04D5D9"/>
</g>
</svg>
