<svg width="103" height="104" viewBox="0 0 103 104" fill="none" xmlns="http://www.w3.org/2000/svg">
<path fill-rule="evenodd" clip-rule="evenodd" d="M31.0002 40.4869C30.9906 42.7779 31.3343 45.0566 32.0192 47.2427H62.0051C62.8889 47.2402 63.7635 47.0634 64.5789 46.7223C65.3943 46.3812 66.1343 45.8826 66.7566 45.255C67.3789 44.6275 67.8713 43.8833 68.2055 43.0651C68.5397 42.2469 68.7092 41.3708 68.7042 40.4869C68.7067 39.5991 68.5337 38.7194 68.1951 37.8987C67.8564 37.0779 67.3589 36.3322 66.7311 35.7043C66.1032 35.0765 65.3575 34.579 64.5367 34.2403C63.716 33.9017 62.8363 33.7287 61.9485 33.7312H32.0192C31.3399 35.8636 31.0002 38.1281 31.0002 40.4869ZM32.7642 34.7312C32.2561 36.5555 32.0002 38.4817 32.0002 40.4869V40.4911C31.9921 42.4355 32.2504 44.3706 32.767 46.2427H62.0036C62.7554 46.2404 63.4994 46.0899 64.193 45.7998C64.887 45.5095 65.5169 45.0851 66.0465 44.5509C66.5762 44.0168 66.9953 43.3833 67.2798 42.6869C67.5642 41.9905 67.7085 41.2448 67.7043 40.4926L67.7042 40.4841C67.7064 39.728 67.559 38.979 67.2706 38.2801C66.9823 37.5811 66.5586 36.9461 66.024 36.4114C65.4893 35.8768 64.8543 35.4531 64.1553 35.1648C63.4564 34.8764 62.7074 34.729 61.9513 34.7312L61.9485 34.7312L32.7642 34.7312ZM49.4006 50.5072H34.4384C36.1287 53.721 38.6186 56.4567 41.6785 58.4437L41.6871 58.4493C45.1905 60.7758 49.3049 62.0114 53.5104 61.9999L53.5132 61.9999C60.6916 61.9999 67.0109 58.4824 70.9401 53.1247C70.1003 52.3802 69.145 51.7743 68.1098 51.3316C66.8235 50.7817 65.4401 50.4949 64.0412 50.4884L49.4006 50.5072ZM64.0431 49.4884C65.5765 49.4952 67.093 49.8093 68.5029 50.4122C69.9129 51.015 71.1877 51.8944 72.252 52.9983C68.1947 58.9993 61.3446 62.9999 53.5132 62.9999C49.1099 63.0119 44.802 61.7182 41.1339 59.2823C37.7833 57.1067 35.0856 54.0736 33.3154 50.5072C33.1522 50.1783 32.9968 49.8449 32.8495 49.5072H49.3993L64.0431 49.4884ZM72.252 27.9944C69.9998 24.6378 66.8875 21.9477 63.2403 20.2051C59.593 18.4625 55.5448 17.7313 51.5184 18.0881C47.492 18.4448 43.6353 19.8763 40.3513 22.2331C37.3669 24.3748 34.955 27.2091 33.3187 30.4855C33.1545 30.8145 32.998 31.1479 32.8495 31.4855H64.0431C67.2512 31.4855 70.1762 30.1268 72.252 27.9944ZM34.4431 30.4855H64.0431C66.6714 30.4855 69.0967 29.4842 70.9399 27.863C68.8346 24.9752 66.0417 22.6519 62.8092 21.1074C59.3235 19.442 55.4546 18.7432 51.6066 19.0842C47.7587 19.4251 44.0729 20.7932 40.9344 23.0455C38.2188 24.9943 35.9991 27.5432 34.4431 30.4855Z" fill="white"/>
<path d="M7.9375 98H1.57031V86.5781H7.9375V87.7578H2.89844V91.4375H7.63281V92.6094H2.89844V96.8125H7.9375V98ZM12.0581 98H10.7612V85.8438H12.0581V98ZM20.5538 98L20.2959 96.7812H20.2334C19.8064 97.3177 19.3793 97.6823 18.9522 97.875C18.5303 98.0625 18.0017 98.1562 17.3663 98.1562C16.5173 98.1562 15.8506 97.9375 15.3663 97.5C14.8871 97.0625 14.6475 96.4401 14.6475 95.6328C14.6475 93.9036 16.0303 92.9974 18.7959 92.9141L20.2491 92.8672V92.3359C20.2491 91.6641 20.1032 91.1693 19.8116 90.8516C19.5251 90.5286 19.0642 90.3672 18.4288 90.3672C17.7152 90.3672 16.9079 90.5859 16.0069 91.0234L15.6084 90.0312C16.0303 89.8021 16.4913 89.6224 16.9913 89.4922C17.4965 89.362 18.0017 89.2969 18.5069 89.2969C19.5277 89.2969 20.2829 89.5234 20.7725 89.9766C21.2673 90.4297 21.5147 91.1562 21.5147 92.1562V98H20.5538ZM17.6241 97.0859C18.4314 97.0859 19.0642 96.8646 19.5225 96.4219C19.986 95.9792 20.2178 95.3594 20.2178 94.5625V93.7891L18.9209 93.8438C17.8897 93.8802 17.1449 94.0417 16.6866 94.3281C16.2334 94.6094 16.0069 95.0495 16.0069 95.6484C16.0069 96.1172 16.1475 96.474 16.4288 96.7188C16.7152 96.9635 17.1136 97.0859 17.6241 97.0859ZM30.1978 95.6641C30.1978 96.4609 29.9009 97.0755 29.3072 97.5078C28.7134 97.9401 27.8801 98.1562 26.8072 98.1562C25.6718 98.1562 24.7864 97.9766 24.1509 97.6172V96.4141C24.5624 96.6224 25.0025 96.7865 25.4713 96.9062C25.9452 97.026 26.4009 97.0859 26.8384 97.0859C27.5155 97.0859 28.0364 96.9792 28.4009 96.7656C28.7655 96.5469 28.9478 96.2161 28.9478 95.7734C28.9478 95.4401 28.802 95.1562 28.5103 94.9219C28.2239 94.6823 27.6614 94.401 26.8228 94.0781C26.0259 93.7812 25.4582 93.5234 25.1197 93.3047C24.7864 93.0807 24.5364 92.8281 24.3697 92.5469C24.2082 92.2656 24.1275 91.9297 24.1275 91.5391C24.1275 90.8411 24.4114 90.2917 24.9791 89.8906C25.5468 89.4844 26.3254 89.2812 27.315 89.2812C28.2369 89.2812 29.1379 89.4688 30.0181 89.8438L29.5572 90.8984C28.6978 90.5443 27.9192 90.3672 27.2213 90.3672C26.6067 90.3672 26.1431 90.4635 25.8306 90.6562C25.5181 90.849 25.3619 91.1146 25.3619 91.4531C25.3619 91.6823 25.4192 91.8776 25.5338 92.0391C25.6535 92.2005 25.8436 92.3542 26.1041 92.5C26.3645 92.6458 26.8645 92.8568 27.6041 93.1328C28.6197 93.5026 29.3046 93.875 29.6588 94.25C30.0181 94.625 30.1978 95.0964 30.1978 95.6641ZM35.5606 97.0859C35.7898 97.0859 36.0111 97.0703 36.2247 97.0391C36.4382 97.0026 36.6075 96.9661 36.7325 96.9297V97.9219C36.5919 97.9896 36.3835 98.0443 36.1075 98.0859C35.8367 98.1328 35.5919 98.1562 35.3731 98.1562C33.7169 98.1562 32.8888 97.2839 32.8888 95.5391V90.4453H31.6622V89.8203L32.8888 89.2812L33.4356 87.4531H34.1856V89.4375H36.67V90.4453H34.1856V95.4844C34.1856 96 34.308 96.3958 34.5528 96.6719C34.7976 96.9479 35.1335 97.0859 35.5606 97.0859ZM40.2281 98H38.9313V89.4375H40.2281V98ZM38.8219 87.1172C38.8219 86.8203 38.8948 86.6042 39.0406 86.4688C39.1865 86.3281 39.3688 86.2578 39.5875 86.2578C39.7958 86.2578 39.9755 86.3281 40.1266 86.4688C40.2776 86.6094 40.3531 86.8255 40.3531 87.1172C40.3531 87.4089 40.2776 87.6276 40.1266 87.7734C39.9755 87.9141 39.7958 87.9844 39.5875 87.9844C39.3688 87.9844 39.1865 87.9141 39.0406 87.7734C38.8948 87.6276 38.8219 87.4089 38.8219 87.1172ZM46.88 98.1562C45.6404 98.1562 44.6795 97.776 43.9972 97.0156C43.3201 96.25 42.9816 95.1693 42.9816 93.7734C42.9816 92.3411 43.3253 91.2344 44.0128 90.4531C44.7055 89.6719 45.6899 89.2812 46.9659 89.2812C47.3774 89.2812 47.7889 89.3255 48.2003 89.4141C48.6118 89.5026 48.9347 89.6068 49.1691 89.7266L48.7706 90.8281C48.4842 90.7135 48.1717 90.6198 47.8331 90.5469C47.4946 90.4688 47.1951 90.4297 46.9347 90.4297C45.1951 90.4297 44.3253 91.5391 44.3253 93.7578C44.3253 94.8099 44.5363 95.6172 44.9581 96.1797C45.3852 96.7422 46.0154 97.0234 46.8488 97.0234C47.5623 97.0234 48.2941 96.8698 49.0441 96.5625V97.7109C48.4711 98.0078 47.7498 98.1562 46.88 98.1562ZM57.0866 95.6641C57.0866 96.4609 56.7897 97.0755 56.1959 97.5078C55.6022 97.9401 54.7689 98.1562 53.6959 98.1562C52.5605 98.1562 51.6751 97.9766 51.0397 97.6172V96.4141C51.4511 96.6224 51.8913 96.7865 52.36 96.9062C52.834 97.026 53.2897 97.0859 53.7272 97.0859C54.4043 97.0859 54.9251 96.9792 55.2897 96.7656C55.6543 96.5469 55.8366 96.2161 55.8366 95.7734C55.8366 95.4401 55.6907 95.1562 55.3991 94.9219C55.1126 94.6823 54.5501 94.401 53.7116 94.0781C52.9147 93.7812 52.347 93.5234 52.0084 93.3047C51.6751 93.0807 51.4251 92.8281 51.2584 92.5469C51.097 92.2656 51.0163 91.9297 51.0163 91.5391C51.0163 90.8411 51.3001 90.2917 51.8678 89.8906C52.4355 89.4844 53.2142 89.2812 54.2038 89.2812C55.1256 89.2812 56.0267 89.4688 56.9069 89.8438L56.4459 90.8984C55.5866 90.5443 54.8079 90.3672 54.11 90.3672C53.4954 90.3672 53.0319 90.4635 52.7194 90.6562C52.4069 90.849 52.2506 91.1146 52.2506 91.4531C52.2506 91.6823 52.3079 91.8776 52.4225 92.0391C52.5423 92.2005 52.7324 92.3542 52.9928 92.5C53.2532 92.6458 53.7532 92.8568 54.4928 93.1328C55.5084 93.5026 56.1933 93.875 56.5475 94.25C56.9069 94.625 57.0866 95.0964 57.0866 95.6641ZM63.3009 98.1562C62.0353 98.1562 61.0353 97.7708 60.3009 97C59.5718 96.2292 59.2072 95.1589 59.2072 93.7891C59.2072 92.4089 59.5457 91.3125 60.2228 90.5C60.9051 89.6875 61.8192 89.2812 62.965 89.2812C64.0379 89.2812 64.8869 89.6354 65.5119 90.3438C66.1369 91.0469 66.4494 91.9766 66.4494 93.1328V93.9531H60.5509C60.577 94.9583 60.8296 95.7214 61.3088 96.2422C61.7931 96.763 62.4728 97.0234 63.3478 97.0234C64.2697 97.0234 65.1811 96.8307 66.0822 96.4453V97.6016C65.6239 97.7995 65.189 97.9401 64.7775 98.0234C64.3713 98.112 63.8791 98.1562 63.3009 98.1562ZM62.9494 90.3672C62.2619 90.3672 61.7124 90.5911 61.3009 91.0391C60.8947 91.487 60.6551 92.1068 60.5822 92.8984H65.0588C65.0588 92.0807 64.8765 91.4557 64.5119 91.0234C64.1473 90.5859 63.6265 90.3672 62.9494 90.3672ZM74.4137 98L74.1559 96.7812H74.0934C73.6664 97.3177 73.2393 97.6823 72.8122 97.875C72.3903 98.0625 71.8617 98.1562 71.2262 98.1562C70.3773 98.1562 69.7106 97.9375 69.2262 97.5C68.7471 97.0625 68.5075 96.4401 68.5075 95.6328C68.5075 93.9036 69.8903 92.9974 72.6559 92.9141L74.1091 92.8672V92.3359C74.1091 91.6641 73.9632 91.1693 73.6716 90.8516C73.3851 90.5286 72.9242 90.3672 72.2887 90.3672C71.5752 90.3672 70.7679 90.5859 69.8669 91.0234L69.4684 90.0312C69.8903 89.8021 70.3512 89.6224 70.8512 89.4922C71.3565 89.362 71.8617 89.2969 72.3669 89.2969C73.3877 89.2969 74.1429 89.5234 74.6325 89.9766C75.1273 90.4297 75.3747 91.1562 75.3747 92.1562V98H74.4137ZM71.4841 97.0859C72.2914 97.0859 72.9242 96.8646 73.3825 96.4219C73.846 95.9792 74.0778 95.3594 74.0778 94.5625V93.7891L72.7809 93.8438C71.7497 93.8802 71.0049 94.0417 70.5466 94.3281C70.0934 94.6094 69.8669 95.0495 69.8669 95.6484C69.8669 96.1172 70.0075 96.474 70.2887 96.7188C70.5752 96.9635 70.9736 97.0859 71.4841 97.0859ZM82.4406 89.2812C82.8208 89.2812 83.162 89.3125 83.4641 89.375L83.2844 90.5781C82.9302 90.5 82.6177 90.4609 82.3469 90.4609C81.6542 90.4609 81.0604 90.7422 80.5656 91.3047C80.076 91.8672 79.8313 92.5677 79.8313 93.4062V98H78.5344V89.4375H79.6047L79.7531 91.0234H79.8156C80.1333 90.4661 80.5161 90.0365 80.9641 89.7344C81.412 89.4323 81.9042 89.2812 82.4406 89.2812ZM88.9675 98.1562C87.7279 98.1562 86.767 97.776 86.0847 97.0156C85.4076 96.25 85.0691 95.1693 85.0691 93.7734C85.0691 92.3411 85.4128 91.2344 86.1003 90.4531C86.793 89.6719 87.7774 89.2812 89.0534 89.2812C89.4649 89.2812 89.8764 89.3255 90.2878 89.4141C90.6993 89.5026 91.0222 89.6068 91.2566 89.7266L90.8581 90.8281C90.5717 90.7135 90.2592 90.6198 89.9206 90.5469C89.5821 90.4688 89.2826 90.4297 89.0222 90.4297C87.2826 90.4297 86.4128 91.5391 86.4128 93.7578C86.4128 94.8099 86.6237 95.6172 87.0456 96.1797C87.4727 96.7422 88.1029 97.0234 88.9362 97.0234C89.6498 97.0234 90.3816 96.8698 91.1316 96.5625V97.7109C90.5586 98.0078 89.8373 98.1562 88.9675 98.1562ZM99.51 98V92.4609C99.51 91.763 99.3511 91.2422 99.0334 90.8984C98.7157 90.5547 98.2183 90.3828 97.5413 90.3828C96.6402 90.3828 95.9814 90.6276 95.5647 91.1172C95.1532 91.6068 94.9475 92.4089 94.9475 93.5234V98H93.6506V85.8438H94.9475V89.5234C94.9475 89.9661 94.9267 90.3333 94.885 90.625H94.9631C95.2183 90.2135 95.5803 89.8906 96.0491 89.6562C96.523 89.4167 97.0621 89.2969 97.6663 89.2969C98.7131 89.2969 99.497 89.5469 100.018 90.0469C100.544 90.5417 100.807 91.3307 100.807 92.4141V98H99.51Z" fill="white"/>
</svg>
