<svg width="80" height="104" viewBox="0 0 80 104" fill="none" xmlns="http://www.w3.org/2000/svg">
<path fill-rule="evenodd" clip-rule="evenodd" d="M44.7872 60.4316C43.5363 61.5859 42.67 62.1579 42.67 62.1579C42.338 62.5938 42.0668 63.1044 41.9538 63.6819C41.8685 64.0658 41.8108 64.5325 41.7733 65.0366C41.7 66.0216 41.7038 67.1493 41.7293 68.0806C41.7485 68.7825 41.7801 69.3728 41.8003 69.7065C41.8116 69.8936 41.8194 70 41.8194 70L40.2062 69.4623C40.2062 69.4623 40.4777 67.693 39.9694 65.1478C39.8155 64.3775 39.5903 63.5361 39.2644 62.6512C39.2644 62.6512 26.2705 53.6893 27.0322 37.9164C27.794 22.1434 37.0248 14.3913 38.8171 12.9574C38.9923 12.7758 39.143 12.6111 39.273 12.4584C40.0409 11.5561 40.0848 11.073 40.1614 10C40.1614 10 40.6972 11.3931 41.3546 12.605C41.5473 12.9604 41.7506 13.3002 41.9538 13.5848C42.1368 13.9812 42.6632 14.5228 43.4045 15.2855C45.9315 17.8853 50.955 23.0537 53.3803 33.7939C55.8371 48.1647 48.5616 56.9489 44.7872 60.4316ZM51.6214 34.1424C53.1519 43.1677 50.6284 49.7901 47.7536 54.167C46.3056 56.3716 44.762 58.0142 43.5868 59.1004C43.0001 59.6427 42.5081 60.0437 42.1701 60.3043C42.0012 60.4345 41.8711 60.5293 41.7872 60.589C41.7453 60.6188 41.715 60.6398 41.6972 60.652L41.6825 60.662L41.6811 60.663L41.6801 60.6636L41.6788 60.6645L41.4284 60.8298L41.2439 61.072C41.0981 61.2635 40.9556 61.4724 40.8235 61.6983L40.75 61.4985L40.2839 61.177L40.2831 61.1765L40.2825 61.1761L40.282 61.1757L40.2648 61.1635C40.247 61.1509 40.2174 61.1297 40.177 61.1001C40.096 61.0409 39.9714 60.948 39.8096 60.8218C39.4859 60.5694 39.0142 60.1849 38.4456 59.6727C37.3067 58.6468 35.7903 57.1186 34.2975 55.1245C31.3105 51.1345 28.4676 45.3521 28.8225 38.0028C29.5484 22.9737 38.3217 15.6492 39.9368 14.357L40.0271 14.2848L40.1074 14.2016C40.1285 14.1797 40.1494 14.1579 40.1702 14.1361C40.2502 14.2652 40.3318 14.3909 40.4146 14.5114C40.642 14.9303 40.9626 15.3037 41.2165 15.5854C41.4759 15.873 41.7957 16.2019 42.1295 16.5454C42.203 16.6209 42.2771 16.6972 42.3514 16.7738C43.2002 17.6495 44.2511 18.7589 45.3684 20.2229C47.586 23.1289 50.1139 27.498 51.6214 34.1424Z" fill="white"/>
<path d="M7.625 98L3.75 87.875H3.6875C3.76042 88.6771 3.79688 89.6302 3.79688 90.7344V98H2.57031V86.5781H4.57031L8.1875 96H8.25L11.8984 86.5781H13.8828V98H12.5547V90.6406C12.5547 89.7969 12.5911 88.8802 12.6641 87.8906H12.6016L8.69531 98H7.625ZM24.6987 93.7109C24.6987 95.1068 24.3472 96.1979 23.6441 96.9844C22.9409 97.7656 21.9696 98.1562 20.73 98.1562C19.9644 98.1562 19.2847 97.9766 18.6909 97.6172C18.0972 97.2578 17.6389 96.7422 17.3159 96.0703C16.993 95.3984 16.8316 94.612 16.8316 93.7109C16.8316 92.3151 17.1805 91.2292 17.8784 90.4531C18.5764 89.6719 19.5451 89.2812 20.7847 89.2812C21.9826 89.2812 22.9331 89.6797 23.6362 90.4766C24.3446 91.2734 24.6987 92.3516 24.6987 93.7109ZM18.1753 93.7109C18.1753 94.8047 18.3941 95.638 18.8316 96.2109C19.2691 96.7839 19.9123 97.0703 20.7612 97.0703C21.6102 97.0703 22.2534 96.7865 22.6909 96.2188C23.1336 95.6458 23.355 94.8099 23.355 93.7109C23.355 92.6224 23.1336 91.7969 22.6909 91.2344C22.2534 90.6667 21.605 90.3828 20.7456 90.3828C19.8967 90.3828 19.256 90.6615 18.8237 91.2188C18.3915 91.776 18.1753 92.6068 18.1753 93.7109ZM33.3194 98V92.4609C33.3194 91.763 33.1605 91.2422 32.8428 90.8984C32.5251 90.5547 32.0277 90.3828 31.3506 90.3828C30.4548 90.3828 29.7985 90.625 29.3819 91.1094C28.9652 91.5938 28.7569 92.3932 28.7569 93.5078V98H27.46V89.4375H28.5147L28.7256 90.6094H28.7881C29.0537 90.1875 29.4261 89.862 29.9053 89.6328C30.3845 89.3984 30.9183 89.2812 31.5069 89.2812C32.5381 89.2812 33.3142 89.5312 33.835 90.0312C34.3558 90.526 34.6162 91.3203 34.6162 92.4141V98H33.3194ZM44.7759 89.4375V90.2578L43.19 90.4453C43.3358 90.6276 43.466 90.8672 43.5806 91.1641C43.6952 91.4557 43.7525 91.7865 43.7525 92.1562C43.7525 92.9948 43.466 93.6641 42.8931 94.1641C42.3202 94.6641 41.5337 94.9141 40.5337 94.9141C40.2785 94.9141 40.039 94.8932 39.815 94.8516C39.2629 95.1432 38.9869 95.5104 38.9869 95.9531C38.9869 96.1875 39.0832 96.362 39.2759 96.4766C39.4686 96.5859 39.7994 96.6406 40.2681 96.6406H41.7837C42.7108 96.6406 43.4218 96.8359 43.9166 97.2266C44.4166 97.6172 44.6666 98.1849 44.6666 98.9297C44.6666 99.8776 44.2864 100.599 43.5259 101.094C42.7655 101.594 41.6561 101.844 40.1978 101.844C39.078 101.844 38.2134 101.635 37.6041 101.219C36.9999 100.802 36.6978 100.214 36.6978 99.4531C36.6978 98.9323 36.8645 98.4818 37.1978 98.1016C37.5311 97.7214 37.9999 97.4635 38.6041 97.3281C38.3853 97.2292 38.2004 97.0755 38.0494 96.8672C37.9035 96.6589 37.8306 96.4167 37.8306 96.1406C37.8306 95.8281 37.914 95.5547 38.0806 95.3203C38.2473 95.0859 38.5103 94.8594 38.8697 94.6406C38.427 94.4583 38.065 94.1484 37.7837 93.7109C37.5077 93.2734 37.3697 92.7734 37.3697 92.2109C37.3697 91.2734 37.6509 90.5521 38.2134 90.0469C38.7759 89.5365 39.5728 89.2812 40.6041 89.2812C41.052 89.2812 41.4556 89.3333 41.815 89.4375H44.7759ZM37.9478 99.4375C37.9478 99.901 38.1431 100.253 38.5337 100.492C38.9244 100.732 39.4843 100.852 40.2134 100.852C41.302 100.852 42.1067 100.688 42.6275 100.359C43.1535 100.036 43.4166 99.5964 43.4166 99.0391C43.4166 98.5755 43.2733 98.2526 42.9869 98.0703C42.7004 97.8932 42.1614 97.8047 41.3697 97.8047H39.815C39.2265 97.8047 38.7681 97.9453 38.44 98.2266C38.1119 98.5078 37.9478 98.9115 37.9478 99.4375ZM38.6509 92.1797C38.6509 92.7786 38.8202 93.2318 39.1587 93.5391C39.4973 93.8464 39.9686 94 40.5728 94C41.8384 94 42.4712 93.3854 42.4712 92.1562C42.4712 90.8698 41.8306 90.2266 40.5494 90.2266C39.94 90.2266 39.4712 90.3906 39.1431 90.7188C38.815 91.0469 38.6509 91.5339 38.6509 92.1797ZM54.4044 93.7109C54.4044 95.1068 54.0528 96.1979 53.3497 96.9844C52.6466 97.7656 51.6752 98.1562 50.4356 98.1562C49.67 98.1562 48.9903 97.9766 48.3966 97.6172C47.8028 97.2578 47.3445 96.7422 47.0216 96.0703C46.6986 95.3984 46.5372 94.612 46.5372 93.7109C46.5372 92.3151 46.8861 91.2292 47.5841 90.4531C48.282 89.6719 49.2507 89.2812 50.4903 89.2812C51.6882 89.2812 52.6387 89.6797 53.3419 90.4766C54.0502 91.2734 54.4044 92.3516 54.4044 93.7109ZM47.8809 93.7109C47.8809 94.8047 48.0997 95.638 48.5372 96.2109C48.9747 96.7839 49.6179 97.0703 50.4669 97.0703C51.3158 97.0703 51.9591 96.7865 52.3966 96.2188C52.8393 95.6458 53.0606 94.8099 53.0606 93.7109C53.0606 92.6224 52.8393 91.7969 52.3966 91.2344C51.9591 90.6667 51.3106 90.3828 50.4512 90.3828C49.6023 90.3828 48.9617 90.6615 48.5294 91.2188C48.0971 91.776 47.8809 92.6068 47.8809 93.7109ZM66.4781 92.1797C66.4781 94.0651 65.9651 95.5078 64.9391 96.5078C63.9182 97.5026 62.4469 98 60.525 98H57.3609V86.5781H60.8609C62.637 86.5781 64.0172 87.0703 65.0016 88.0547C65.9859 89.0391 66.4781 90.4141 66.4781 92.1797ZM65.0719 92.2266C65.0719 90.737 64.6969 89.6146 63.9469 88.8594C63.2021 88.1042 62.0927 87.7266 60.6188 87.7266H58.6891V96.8516H60.3063C61.8896 96.8516 63.0797 96.4635 63.8766 95.6875C64.6734 94.9062 65.0719 93.7526 65.0719 92.2266ZM69.5128 86.5781H72.7394C74.255 86.5781 75.3514 86.8047 76.0284 87.2578C76.7055 87.7109 77.0441 88.4271 77.0441 89.4062C77.0441 90.0833 76.854 90.6432 76.4737 91.0859C76.0987 91.5234 75.5493 91.8073 74.8253 91.9375V92.0156C76.5597 92.3125 77.4269 93.224 77.4269 94.75C77.4269 95.7708 77.0805 96.5677 76.3878 97.1406C75.7003 97.7135 74.7368 98 73.4972 98H69.5128V86.5781ZM70.8409 91.4688H73.0284C73.9659 91.4688 74.6404 91.3229 75.0519 91.0312C75.4633 90.7344 75.6691 90.237 75.6691 89.5391C75.6691 88.8984 75.4399 88.4375 74.9816 88.1562C74.5232 87.8698 73.7941 87.7266 72.7941 87.7266H70.8409V91.4688ZM70.8409 92.5938V96.8672H73.2237C74.1456 96.8672 74.8383 96.6901 75.3019 96.3359C75.7706 95.9766 76.005 95.4167 76.005 94.6562C76.005 93.9479 75.7654 93.4271 75.2862 93.0938C74.8123 92.7604 74.0883 92.5938 73.1144 92.5938H70.8409Z" fill="white"/>
</svg>
