<svg width="91" height="104" viewBox="0 0 91 104" fill="none" xmlns="http://www.w3.org/2000/svg">
<path fill-rule="evenodd" clip-rule="evenodd" d="M55.713 18.0008C59.033 17.9691 63.2751 18.901 66.3201 22.7929C67.0047 23.6674 67.2085 24.9456 67.1848 26.5205C67.1591 28.0935 66.8682 29.9771 66.336 32.0408C65.3032 36.0375 63.3523 40.6971 60.604 44.8778C60.7011 44.9468 60.806 45.0039 60.9166 45.048C61.4904 45.2854 62.7983 45.4892 65.408 44.953C66.0649 44.8145 66.5457 44.7215 67.0443 45.1014C67.1655 45.2041 67.2612 45.3335 67.324 45.4793C67.3869 45.6252 67.415 45.7837 67.4064 45.9423C67.3798 46.1825 67.2911 46.4116 67.1492 46.6071C66.6446 47.3649 65.6494 48.0831 64.3732 48.6747C63.2435 49.201 61.623 49.476 60.1865 49.4919C59.4663 49.4998 58.8015 49.4444 58.2376 49.2683L58.202 49.2544C57.9844 51.3517 57.4838 55.4929 57.1573 57.3824C56.8962 58.906 56.4391 60.1168 55.5666 61.023C54.696 61.9292 53.4633 62.4753 51.8053 62.8315C49.7515 63.2727 48.2537 62.7978 47.2882 61.9846C46.3246 61.1734 45.8834 60.0971 45.6183 59.4382C45.4362 58.9831 45.3413 58.3935 45.2502 57.606C45.1592 56.8185 45.092 55.855 45.0464 54.7687C44.9858 53.1055 44.966 51.441 44.9871 49.7768C44.1292 50.5625 43.0631 51.0846 41.9163 51.2805C40.5531 51.512 39.3363 51.2845 38.6101 51.1024C38.2522 51.0125 37.9066 50.879 37.5813 50.7047C37.2449 50.5247 36.9244 50.3209 36.7107 49.9192C36.5851 49.6892 36.5452 49.4221 36.5979 49.1654C36.6648 48.9052 36.8166 48.6747 37.0292 48.5105C37.421 48.1919 37.9394 48.0139 38.7209 47.8516C40.1435 47.5588 40.6401 47.359 40.9429 47.1195C41.1152 46.9817 41.3026 46.7498 41.5621 46.4285C41.6901 46.2701 41.8355 46.0901 42.0054 45.8889C42.0029 45.8619 42.0009 45.8348 41.9994 45.8077C41.0788 45.7818 40.1772 45.5392 39.3679 45.0994C39.0711 45.412 37.5555 47.0147 35.7075 49.2386C34.93 50.1685 34.0713 50.7028 33.1651 50.7403C32.2589 50.7799 31.4397 50.3229 30.7433 49.6482C29.3523 48.2968 28.2424 45.972 27.2748 43.3444C26.3093 40.7169 25.5238 37.7905 24.9658 35.2975C24.4059 32.8045 24.0755 30.7943 24.028 29.8248C23.8202 25.7054 24.7838 22.9294 26.4359 21.1784C28.09 19.4273 30.3575 18.7645 32.5675 18.6379C36.5346 18.4103 40.3018 19.7934 41.0636 20.0902C42.5317 19.0929 44.4232 18.4717 46.7856 18.5112C47.9072 18.527 49.0232 18.6717 50.1116 18.9426L50.1512 18.9248C50.6303 18.7564 51.1184 18.615 51.6134 18.5014C52.9572 18.1879 54.3312 18.0213 55.711 18.0047L55.713 18.0008ZM55.7248 19.3264H56.0137C59.0251 19.3502 62.6182 20.2128 65.2735 23.6081C65.6118 24.0394 65.8769 25.0722 65.8572 26.4968C65.8334 27.9214 65.5624 29.7199 65.0519 31.7044C64.0982 35.3905 62.3096 39.7137 59.8284 43.6214C59.7532 43.5264 59.682 43.4315 59.6029 43.3365C60.5407 41.7794 60.7148 40.1925 60.6436 38.7482C60.5684 37.2108 60.2617 35.8021 60.3013 34.603C60.3527 32.949 60.7821 31.7737 60.7227 30.0404C60.7247 30.0345 60.7346 30.0206 60.7346 30.0147C60.7663 29.8821 60.7623 29.805 60.7584 29.7298C60.7485 29.5794 60.7208 29.435 60.6792 29.2629C60.5961 28.9206 60.4497 28.4793 60.2321 27.957C59.6567 26.5973 58.9035 25.3198 57.9923 24.1581C56.6805 22.4803 54.8187 20.7985 52.3533 19.7063C53.462 19.4695 54.5913 19.3422 55.7248 19.3264ZM41.2476 21.6038C42.5198 20.5452 44.1976 19.8389 46.5363 19.8329V19.8369H46.7639C51.738 19.918 54.9572 22.4387 56.9456 24.9812C57.7823 26.0492 58.4748 27.2227 59.0053 28.4714C59.0893 28.6706 59.1344 28.8156 59.1788 28.9586C59.1962 29.0144 59.2134 29.07 59.2329 29.1283C56.8863 28.8909 55.3232 29.3143 54.4328 30.3352C53.4277 31.4848 53.4851 33.1152 53.8769 34.6901C54.2706 36.267 55.0284 37.8855 55.7248 39.2211C56.0315 39.8082 56.3259 40.3387 56.5715 40.7812C56.6048 40.8412 56.6372 40.8996 56.6686 40.9563C56.8486 41.2691 57.0182 41.5879 57.1771 41.9119C57.509 42.6966 57.9529 43.429 58.4949 44.0864C58.6624 44.2952 58.8227 44.5097 58.9757 44.7294C58.8312 44.771 58.6551 44.8284 58.4672 44.9134C58.0912 45.0836 57.6559 45.3982 57.375 45.9126C57.1019 46.4132 56.9753 47.0701 57.0149 47.9248C56.9278 49.0586 56.2076 55.0833 55.8495 57.1608C55.6101 58.5478 55.2361 59.454 54.6109 60.105C53.9837 60.7559 53.0458 61.209 51.5263 61.5355C49.7733 61.9114 48.8137 61.5355 48.1449 60.9736C47.4761 60.4097 47.1061 59.5806 46.8529 58.9475C46.7757 58.7576 46.655 58.1956 46.57 57.4576C46.4849 56.7176 46.4176 55.7798 46.3721 54.7153C46.2799 52.251 46.2714 49.7843 46.3464 47.3194C46.3495 47.2339 46.336 47.1485 46.3068 47.0681C46.2791 46.8722 46.2316 46.6823 46.1663 46.5062C45.915 45.8335 45.4501 45.2439 44.7734 44.9629C44.5518 44.8679 44.1798 44.7096 43.705 44.7492C43.6369 44.7555 43.5688 44.772 43.5008 44.7885C43.4838 44.7926 43.4667 44.7967 43.4497 44.8007C43.6308 44.121 43.8494 43.4518 44.1046 42.7963C44.206 42.5239 44.3335 42.2382 44.4722 41.9273C45.2545 40.1742 46.3938 37.6211 45.2107 32.1476C44.9198 30.8061 44.1185 29.9217 43.149 29.5458C42.1795 29.1699 41.1091 29.2411 40.1158 29.4686C39.1226 29.6981 38.1946 30.0939 37.4883 30.4896L37.4625 30.5054C37.5555 29.3103 37.791 27.5494 38.4776 25.7291C39.0553 24.1957 39.9358 22.6979 41.2476 21.6038ZM32.6427 19.9576C32.892 19.9437 33.1433 19.9358 33.3946 19.9358C33.6453 19.9362 33.894 19.9427 34.1445 19.9556C36.4792 20.0704 38.6358 20.6798 39.8507 21.0794C38.6141 22.2903 37.789 23.7861 37.235 25.2582C36.4589 27.3997 36.0625 29.6621 36.0637 31.9399L36.0657 31.9517V31.9616C36.0653 31.9742 36.0653 31.9867 36.0657 31.9992C36.0657 32.1953 36.0808 32.4443 36.0996 32.7543C36.1228 33.1355 36.1515 33.6089 36.1646 34.1895C36.1883 35.2698 36.1606 36.637 35.9568 38.0992C35.7876 39.2484 35.9104 40.4216 36.314 41.5109C36.7175 42.6001 37.3888 43.5702 38.2658 44.3317C37.0297 45.6444 35.8354 46.9958 34.6846 48.3839C34.0535 49.1417 33.537 49.389 33.1077 49.4088C32.6803 49.4266 32.2094 49.2149 31.6673 48.6905C30.5909 47.6419 29.4572 45.4259 28.5213 42.8794C27.5874 40.333 26.8099 37.4502 26.2618 35.0007C25.7118 32.5513 25.3912 30.4896 25.3536 29.7535C25.1597 25.8656 26.0501 23.5171 27.4034 22.0846C28.7548 20.6521 30.6444 20.0723 32.6427 19.9576ZM55.432 31.2038C55.8277 30.7507 56.5816 30.4045 57.925 30.3867C58.4146 30.387 58.9037 30.4188 59.3892 30.4817C59.375 31.1032 59.2919 31.6778 59.203 32.2918C59.1057 32.964 59.0016 33.6835 58.9737 34.5635C58.9452 35.4259 59.0495 36.282 59.1525 37.1287C59.2216 37.6961 59.2902 38.2593 59.318 38.8174C59.3714 39.9413 59.2784 41.0196 58.758 42.1177C58.6353 41.9001 58.5146 41.6666 58.4058 41.4014C58.301 41.1482 58.1377 40.8565 57.9185 40.4649C57.8893 40.4129 57.8592 40.3591 57.8281 40.3033C57.8037 40.2595 57.7788 40.2148 57.7534 40.1692C57.5044 39.7221 57.2073 39.1888 56.9021 38.6018C56.2294 37.3097 55.5131 35.7546 55.1669 34.3636C54.8187 32.9747 54.8721 31.8469 55.432 31.2038ZM40.4146 30.7606C40.8142 30.6672 41.223 30.6181 41.6334 30.6142C41.9862 30.6064 42.3375 30.6628 42.6702 30.7804C43.2637 31.0099 43.6951 31.4175 43.9127 32.4266C45.0142 37.523 44.1229 39.4841 43.3273 41.2348C43.161 41.6006 42.999 41.9573 42.8601 42.3314C42.8273 42.4192 42.7945 42.5066 42.7619 42.5934C42.519 43.24 42.2862 43.86 42.1379 44.4722C39.2532 44.4682 36.7977 41.6666 37.2706 38.2832C37.4883 36.7261 37.516 35.2876 37.4922 34.1598C37.475 33.414 37.4403 32.8411 37.4178 32.4719C37.4093 32.3309 37.4025 32.2196 37.3992 32.1397L37.4428 32.1001C37.6595 31.9302 37.8905 31.7792 38.1333 31.649C38.8509 31.2529 39.6181 30.9542 40.4146 30.7606ZM59.7453 45.881L59.7513 45.879C59.9495 46.0426 60.1708 46.174 60.4081 46.2727C61.3638 46.6665 62.9229 46.8188 65.6791 46.249C65.1184 46.7416 64.4901 47.1514 63.8133 47.4658C62.9882 47.8496 61.435 48.1445 60.1727 48.1583C59.5396 48.1682 58.9717 48.1009 58.6334 47.998C58.5289 47.9679 58.43 47.9212 58.3405 47.8595C58.3089 47.173 58.4157 46.7693 58.5404 46.5418C58.6409 46.3476 58.8092 46.197 59.0133 46.1184C59.1238 46.0696 59.2456 46.0345 59.381 45.9955C59.4928 45.9633 59.6138 45.9284 59.7453 45.881ZM43.8197 46.065H43.8613V46.0689C44.0014 46.0862 44.1378 46.1263 44.2649 46.1876C44.4786 46.2767 44.7813 46.5952 44.9198 46.9652C45.0563 47.3352 45.0385 47.6795 44.8723 47.913C43.9088 49.2643 42.779 49.7847 41.6928 49.9707C40.6065 50.1547 39.5658 49.9707 38.9326 49.8124C38.7091 49.755 38.4321 49.6502 38.2164 49.5314C38.1566 49.5002 38.1406 49.4848 38.1179 49.4628C38.1076 49.4528 38.0958 49.4414 38.0779 49.4266C38.256 49.3415 38.5231 49.2366 38.99 49.1417C40.4641 48.8389 41.2021 48.5975 41.7699 48.1464C42.1169 47.8695 42.342 47.5808 42.6218 47.2221C42.7998 46.9937 42.9999 46.737 43.2677 46.4369C43.5625 46.1105 43.7149 46.0749 43.8197 46.065Z" fill="white"/>
<path d="M41.8253 31.3503C41.9302 31.3503 42.041 31.3601 42.1538 31.376C42.4565 31.4175 42.7256 31.4986 42.9313 31.6174C43.0317 31.6697 43.121 31.741 43.1945 31.8271C43.2345 31.8728 43.2646 31.9262 43.283 31.9841C43.3014 32.042 43.3076 32.1031 43.3013 32.1635C43.2823 32.2772 43.2308 32.383 43.1529 32.4682C43.072 32.5675 42.9766 32.6542 42.87 32.7254C42.6127 32.9077 42.2966 32.9874 41.9836 32.9489C41.6637 32.8964 41.3709 32.7374 41.1526 32.4978C41.0597 32.4014 40.9811 32.2921 40.9191 32.1733C40.8539 32.0689 40.8254 31.9456 40.838 31.8231C40.8677 31.6095 41.0438 31.4986 41.2159 31.4373C41.412 31.3747 41.6178 31.3479 41.8233 31.3582L41.8253 31.3503Z" fill="white"/>
<path d="M57.2978 31.0179H57.3967C57.5273 31.0218 57.648 31.0357 57.7529 31.0614C57.8597 31.0851 57.9508 31.1207 58.0259 31.1702C58.0645 31.1941 58.0977 31.2258 58.1232 31.2633C58.1488 31.3008 58.1662 31.3432 58.1743 31.3878L58.1724 31.4037C58.1762 31.4976 58.1521 31.5906 58.1031 31.6708C58.0448 31.7794 57.9715 31.8793 57.8855 31.9676C57.6847 32.1886 57.4159 32.3362 57.1217 32.387C56.8354 32.4216 56.5465 32.349 56.3105 32.1832C56.2139 32.1183 56.1273 32.0396 56.0533 31.9498C55.9893 31.8792 55.9461 31.7922 55.9286 31.6985C55.9245 31.6528 55.9297 31.6068 55.944 31.5633C55.9583 31.5197 55.9814 31.4796 56.0117 31.4452C56.0767 31.3715 56.1553 31.311 56.2432 31.2672C56.4332 31.1603 56.6904 31.0812 56.9812 31.0376C57.0901 31.0218 57.1969 31.0139 57.2978 31.0119V31.0179Z" fill="white"/>
<path d="M8.8125 89.9062C8.8125 91.0625 8.41667 91.9531 7.625 92.5781C6.83854 93.1979 5.71094 93.5078 4.24219 93.5078H2.89844V98H1.57031V86.5781H4.53125C7.38542 86.5781 8.8125 87.6875 8.8125 89.9062ZM2.89844 92.3672H4.09375C5.27083 92.3672 6.1224 92.1771 6.64844 91.7969C7.17448 91.4167 7.4375 90.8073 7.4375 89.9688C7.4375 89.2135 7.1901 88.651 6.69531 88.2812C6.20052 87.9115 5.42969 87.7266 4.38281 87.7266H2.89844V92.3672ZM18.8862 93.7109C18.8862 95.1068 18.5347 96.1979 17.8316 96.9844C17.1284 97.7656 16.1571 98.1562 14.9175 98.1562C14.1519 98.1562 13.4722 97.9766 12.8784 97.6172C12.2847 97.2578 11.8264 96.7422 11.5034 96.0703C11.1805 95.3984 11.0191 94.612 11.0191 93.7109C11.0191 92.3151 11.368 91.2292 12.0659 90.4531C12.7639 89.6719 13.7326 89.2812 14.9722 89.2812C16.1701 89.2812 17.1206 89.6797 17.8237 90.4766C18.5321 91.2734 18.8862 92.3516 18.8862 93.7109ZM12.3628 93.7109C12.3628 94.8047 12.5816 95.638 13.0191 96.2109C13.4566 96.7839 14.0998 97.0703 14.9487 97.0703C15.7977 97.0703 16.4409 96.7865 16.8784 96.2188C17.3211 95.6458 17.5425 94.8099 17.5425 93.7109C17.5425 92.6224 17.3211 91.7969 16.8784 91.2344C16.4409 90.6667 15.7925 90.3828 14.9331 90.3828C14.0842 90.3828 13.4435 90.6615 13.0112 91.2188C12.579 91.776 12.3628 92.6068 12.3628 93.7109ZM27.1709 95.6641C27.1709 96.4609 26.8741 97.0755 26.2803 97.5078C25.6866 97.9401 24.8532 98.1562 23.7803 98.1562C22.6449 98.1562 21.7595 97.9766 21.1241 97.6172V96.4141C21.5355 96.6224 21.9756 96.7865 22.4444 96.9062C22.9183 97.026 23.3741 97.0859 23.8116 97.0859C24.4886 97.0859 25.0095 96.9792 25.3741 96.7656C25.7386 96.5469 25.9209 96.2161 25.9209 95.7734C25.9209 95.4401 25.7751 95.1562 25.4834 94.9219C25.197 94.6823 24.6345 94.401 23.7959 94.0781C22.9991 93.7812 22.4314 93.5234 22.0928 93.3047C21.7595 93.0807 21.5095 92.8281 21.3428 92.5469C21.1814 92.2656 21.1006 91.9297 21.1006 91.5391C21.1006 90.8411 21.3845 90.2917 21.9522 89.8906C22.5199 89.4844 23.2985 89.2812 24.2881 89.2812C25.21 89.2812 26.111 89.4688 26.9912 89.8438L26.5303 90.8984C25.6709 90.5443 24.8923 90.3672 24.1944 90.3672C23.5798 90.3672 23.1162 90.4635 22.8037 90.6562C22.4912 90.849 22.335 91.1146 22.335 91.4531C22.335 91.6823 22.3923 91.8776 22.5069 92.0391C22.6267 92.2005 22.8168 92.3542 23.0772 92.5C23.3376 92.6458 23.8376 92.8568 24.5772 93.1328C25.5928 93.5026 26.2777 93.875 26.6319 94.25C26.9912 94.625 27.1709 95.0964 27.1709 95.6641ZM32.5338 97.0859C32.7629 97.0859 32.9843 97.0703 33.1978 97.0391C33.4114 97.0026 33.5806 96.9661 33.7056 96.9297V97.9219C33.565 97.9896 33.3567 98.0443 33.0806 98.0859C32.8098 98.1328 32.565 98.1562 32.3463 98.1562C30.69 98.1562 29.8619 97.2839 29.8619 95.5391V90.4453H28.6353V89.8203L29.8619 89.2812L30.4088 87.4531H31.1588V89.4375H33.6431V90.4453H31.1588V95.4844C31.1588 96 31.2811 96.3958 31.5259 96.6719C31.7707 96.9479 32.1067 97.0859 32.5338 97.0859ZM42.9122 89.4375V90.2578L41.3262 90.4453C41.4721 90.6276 41.6023 90.8672 41.7169 91.1641C41.8315 91.4557 41.8887 91.7865 41.8887 92.1562C41.8887 92.9948 41.6023 93.6641 41.0294 94.1641C40.4565 94.6641 39.67 94.9141 38.67 94.9141C38.4148 94.9141 38.1752 94.8932 37.9512 94.8516C37.3992 95.1432 37.1231 95.5104 37.1231 95.9531C37.1231 96.1875 37.2195 96.362 37.4122 96.4766C37.6049 96.5859 37.9356 96.6406 38.4044 96.6406H39.92C40.8471 96.6406 41.558 96.8359 42.0528 97.2266C42.5528 97.6172 42.8028 98.1849 42.8028 98.9297C42.8028 99.8776 42.4226 100.599 41.6622 101.094C40.9018 101.594 39.7924 101.844 38.3341 101.844C37.2143 101.844 36.3497 101.635 35.7403 101.219C35.1361 100.802 34.8341 100.214 34.8341 99.4531C34.8341 98.9323 35.0007 98.4818 35.3341 98.1016C35.6674 97.7214 36.1361 97.4635 36.7403 97.3281C36.5216 97.2292 36.3367 97.0755 36.1856 96.8672C36.0398 96.6589 35.9669 96.4167 35.9669 96.1406C35.9669 95.8281 36.0502 95.5547 36.2169 95.3203C36.3835 95.0859 36.6466 94.8594 37.0059 94.6406C36.5632 94.4583 36.2012 94.1484 35.92 93.7109C35.644 93.2734 35.5059 92.7734 35.5059 92.2109C35.5059 91.2734 35.7872 90.5521 36.3497 90.0469C36.9122 89.5365 37.7091 89.2812 38.7403 89.2812C39.1882 89.2812 39.5919 89.3333 39.9512 89.4375H42.9122ZM36.0841 99.4375C36.0841 99.901 36.2794 100.253 36.67 100.492C37.0606 100.732 37.6205 100.852 38.3497 100.852C39.4382 100.852 40.2429 100.688 40.7637 100.359C41.2898 100.036 41.5528 99.5964 41.5528 99.0391C41.5528 98.5755 41.4096 98.2526 41.1231 98.0703C40.8367 97.8932 40.2976 97.8047 39.5059 97.8047H37.9512C37.3627 97.8047 36.9044 97.9453 36.5762 98.2266C36.2481 98.5078 36.0841 98.9115 36.0841 99.4375ZM36.7872 92.1797C36.7872 92.7786 36.9565 93.2318 37.295 93.5391C37.6335 93.8464 38.1049 94 38.7091 94C39.9747 94 40.6075 93.3854 40.6075 92.1562C40.6075 90.8698 39.9669 90.2266 38.6856 90.2266C38.0762 90.2266 37.6075 90.3906 37.2794 90.7188C36.9512 91.0469 36.7872 91.5339 36.7872 92.1797ZM49.0563 89.2812C49.4365 89.2812 49.7776 89.3125 50.0797 89.375L49.9 90.5781C49.5458 90.5 49.2333 90.4609 48.9625 90.4609C48.2698 90.4609 47.676 90.7422 47.1813 91.3047C46.6917 91.8672 46.4469 92.5677 46.4469 93.4062V98H45.15V89.4375H46.2203L46.3688 91.0234H46.4313C46.749 90.4661 47.1318 90.0365 47.5797 89.7344C48.0276 89.4323 48.5198 89.2812 49.0563 89.2812ZM55.7784 98.1562C54.5128 98.1562 53.5128 97.7708 52.7784 97C52.0493 96.2292 51.6847 95.1589 51.6847 93.7891C51.6847 92.4089 52.0232 91.3125 52.7003 90.5C53.3826 89.6875 54.2967 89.2812 55.4425 89.2812C56.5154 89.2812 57.3644 89.6354 57.9894 90.3438C58.6144 91.0469 58.9269 91.9766 58.9269 93.1328V93.9531H53.0284C53.0545 94.9583 53.3071 95.7214 53.7863 96.2422C54.2706 96.763 54.9503 97.0234 55.8253 97.0234C56.7472 97.0234 57.6586 96.8307 58.5597 96.4453V97.6016C58.1014 97.7995 57.6665 97.9401 57.255 98.0234C56.8488 98.112 56.3566 98.1562 55.7784 98.1562ZM55.4269 90.3672C54.7394 90.3672 54.1899 90.5911 53.7784 91.0391C53.3722 91.487 53.1326 92.1068 53.0597 92.8984H57.5363C57.5363 92.0807 57.354 91.4557 56.9894 91.0234C56.6248 90.5859 56.104 90.3672 55.4269 90.3672ZM68.2663 94.9609C68.2663 95.9661 67.9017 96.75 67.1725 97.3125C66.4433 97.875 65.4538 98.1562 64.2038 98.1562C62.8496 98.1562 61.8079 97.9818 61.0788 97.6328V96.3516C61.5475 96.5495 62.0579 96.7057 62.61 96.8203C63.1621 96.9349 63.709 96.9922 64.2506 96.9922C65.136 96.9922 65.8027 96.8255 66.2506 96.4922C66.6985 96.1536 66.9225 95.6849 66.9225 95.0859C66.9225 94.6901 66.8418 94.3672 66.6803 94.1172C66.5241 93.862 66.2584 93.6276 65.8834 93.4141C65.5136 93.2005 64.9485 92.9583 64.1881 92.6875C63.1256 92.3073 62.3652 91.8568 61.9069 91.3359C61.4538 90.8151 61.2272 90.1354 61.2272 89.2969C61.2272 88.4167 61.5579 87.7161 62.2194 87.1953C62.8808 86.6745 63.7558 86.4141 64.8444 86.4141C65.9798 86.4141 67.0241 86.6224 67.9772 87.0391L67.5631 88.1953C66.6204 87.7995 65.7038 87.6016 64.8131 87.6016C64.11 87.6016 63.5605 87.7526 63.1647 88.0547C62.7689 88.3568 62.5709 88.776 62.5709 89.3125C62.5709 89.7083 62.6439 90.0339 62.7897 90.2891C62.9355 90.5391 63.1803 90.7708 63.5241 90.9844C63.873 91.1927 64.4043 91.4245 65.1178 91.6797C66.3157 92.1068 67.1386 92.5651 67.5866 93.0547C68.0397 93.5443 68.2663 94.1797 68.2663 94.9609ZM80.9962 92.2734C80.9962 93.737 80.702 94.9531 80.1134 95.9219C79.5249 96.8906 78.6942 97.5469 77.6212 97.8906L80.34 100.719H78.4103L76.1837 98.1406L75.7541 98.1562C74.0718 98.1562 72.7723 97.6432 71.8556 96.6172C70.9442 95.5859 70.4884 94.1328 70.4884 92.2578C70.4884 90.3984 70.9468 88.9583 71.8634 87.9375C72.7801 86.9115 74.0822 86.3984 75.7697 86.3984C77.4103 86.3984 78.6916 86.9193 79.6134 87.9609C80.5353 89.0026 80.9962 90.4401 80.9962 92.2734ZM71.8947 92.2734C71.8947 93.8203 72.2228 94.9948 72.8791 95.7969C73.5405 96.5938 74.4989 96.9922 75.7541 96.9922C77.0197 96.9922 77.9754 96.5938 78.6212 95.7969C79.2671 95 79.59 93.8255 79.59 92.2734C79.59 90.737 79.2671 89.5729 78.6212 88.7812C77.9806 87.9844 77.0301 87.5859 75.7697 87.5859C74.5041 87.5859 73.5405 87.987 72.8791 88.7891C72.2228 89.5859 71.8947 90.7474 71.8947 92.2734ZM84.0309 98V86.5781H85.3591V96.7969H90.3981V98H84.0309Z" fill="white"/>
</svg>
