<svg width="80" height="104" viewBox="0 0 80 104" fill="none" xmlns="http://www.w3.org/2000/svg">
<path d="M62.3177 61.9299C62.0181 61.6303 61.6757 61.3734 61.4188 61.031C60.5199 59.8325 59.407 58.7196 58.2085 57.8635C57.224 57.1786 54.9982 56.2369 54.6557 55.0812C54.6557 55.0812 54.6558 55.0812 54.5701 54.9956C55.255 54.91 56.0255 54.696 56.7532 54.5247C57.8233 54.2251 58.765 54.3107 59.9207 54.0539C60.3915 53.9255 60.9052 53.7543 61.376 53.6259C61.376 53.5402 61.376 53.4118 61.376 53.3262C60.8196 52.7698 60.3915 51.9993 59.8351 51.4856C58.2085 50.0731 56.4535 48.7462 54.6557 47.6332C53.6712 46.9912 52.4299 46.5631 51.4454 46.0923C51.103 45.8783 50.4609 45.7927 50.2469 45.5358C49.6904 44.851 49.348 43.9093 49.0056 43.1388C48.1067 41.3838 47.2506 39.5004 46.3945 37.6598C45.8381 36.4613 45.4956 35.22 44.768 34.1071C41.5576 28.7993 38.0477 25.5462 32.6543 22.4215C31.4558 21.7794 30.1289 21.5226 28.6735 21.1802C27.903 21.1802 27.1326 21.0946 26.3621 21.0518C25.8912 20.8377 25.3776 20.1957 24.9067 19.9388C23.1518 18.8259 18.5289 16.3861 17.202 19.5964C16.3459 21.6082 18.4433 23.6628 19.171 24.6473C19.7274 25.3322 20.3695 26.1883 20.7975 26.9587C21.0115 27.5152 21.0971 28.0717 21.2684 28.6281C21.7392 30.0407 22.2529 31.496 22.8949 32.8229C23.2374 33.465 23.5798 34.1499 24.0935 34.7919C24.3931 35.1344 24.7783 35.2628 24.8639 35.8621C24.4359 36.5041 24.3931 37.403 24.1791 38.1735C23.0662 41.6834 23.4942 46.0923 25.078 48.6605C25.5488 49.431 26.7473 51.186 28.3739 50.5011C29.7864 49.9447 29.4868 48.1897 29.8292 46.5631C29.9148 46.2207 29.8292 45.9211 30.0433 45.7071V45.7927C30.4713 46.6487 30.8993 47.5476 31.2846 48.4037C32.2691 49.9447 33.9385 51.5712 35.351 52.5986C36.1215 53.155 36.6779 54.1395 37.6624 54.4819V54.3963C37.6624 54.3963 37.6624 54.3963 37.5768 54.3963C37.3628 54.0967 37.106 53.9683 36.8919 53.7543C36.3355 53.1978 35.6934 52.5129 35.2654 51.8709C33.9384 50.1159 32.8255 48.1469 31.7554 46.1779C31.2846 45.1934 30.8565 44.1661 30.4285 43.1816C30.2145 42.8392 30.2145 42.2827 29.9577 42.0687C29.4868 42.7535 28.7591 43.31 28.5023 44.1661C27.9458 45.493 27.8602 47.1624 27.6462 48.8746C27.5178 48.8746 27.5606 48.8746 27.5178 48.9602C26.5333 48.6606 26.1909 47.7189 25.7628 46.7772C24.8639 44.5513 24.6499 40.9558 25.4632 38.4303C25.6772 37.7882 26.6617 35.6908 26.2337 35.0488C26.0196 34.4923 25.3776 34.1499 25.0352 33.6362C24.6071 33.0798 24.1791 32.3093 23.9222 31.6244C23.1518 29.8694 22.8093 27.9004 21.9532 26.1455C21.6108 25.2894 20.8831 24.4761 20.4123 23.7484C19.8558 22.8923 19.171 22.2931 18.6573 21.3086C18.5289 20.9661 18.3149 20.4097 18.5289 20.0673C18.6145 19.7676 18.7429 19.7248 18.9569 19.6392C19.385 19.2968 20.4979 19.7248 20.9259 19.9388C22.1245 20.4097 23.0234 20.8377 24.0079 21.4798C24.4359 21.7794 24.9067 22.3787 25.4632 22.5499C25.6772 22.5499 25.8912 22.5499 26.1053 22.5499C27.0898 22.7639 28.2027 22.6355 29.1872 22.8923C30.8565 23.4488 32.3547 24.2193 33.6816 25.0754C37.748 27.6864 41.1724 31.3676 43.3982 35.7764C43.7406 36.4613 43.9547 37.189 44.2543 37.8739C44.8964 39.4148 45.7096 40.9558 46.3517 42.4967C46.9938 43.9521 47.593 45.4502 48.5775 46.6916C49.0484 47.3336 50.889 47.676 51.7879 48.0185C52.4299 48.3181 53.4144 48.5749 53.9709 48.8746C55.041 49.5166 56.0683 50.2871 57.1384 50.972C57.5236 51.3572 59.1502 52.1277 59.2358 52.7698C56.7104 52.6842 54.827 52.9838 53.1576 53.6259C52.6867 53.8399 51.9591 53.8399 51.9163 54.3963C52.2159 54.696 52.2159 55.0384 52.3871 55.3808C52.7296 56.0229 53.4572 56.8362 54.0137 57.2642C54.6557 57.7351 55.3406 58.2487 56.0255 58.7196C57.224 59.49 58.6365 59.9181 59.7923 60.6886C60.4771 61.1166 61.2048 61.6731 61.8041 62.1439C62.1465 62.4435 62.3605 62.786 62.7886 63V62.9144C62.5745 62.6148 62.4889 62.2295 62.3177 61.9299Z" fill="white"/>
<path d="M26.1133 25.8031C26.1133 25.8031 26.1133 25.8031 26.1133 25.8887C26.1133 25.8887 26.1133 25.8887 26.1989 25.8887C26.4985 26.3596 26.8838 26.7448 27.1834 27.13C27.483 27.6009 27.6542 28.1145 27.8683 28.5854L27.9539 28.4998C28.3819 28.2001 28.5959 27.6437 28.5959 26.9588C28.3819 26.7448 28.3819 26.5308 28.2535 26.3167C27.9967 26.0171 27.5686 25.8887 27.3546 25.6747C26.7981 25.6747 26.4557 25.7603 26.1133 25.8031Z" fill="white"/>
<path d="M17.625 98L13.75 87.875H13.6875C13.7604 88.6771 13.7969 89.6302 13.7969 90.7344V98H12.5703V86.5781H14.5703L18.1875 96H18.25L21.8984 86.5781H23.8828V98H22.5547V90.6406C22.5547 89.7969 22.5911 88.8802 22.6641 87.8906H22.6016L18.6953 98H17.625ZM25.9487 89.4375H27.3394L29.2144 94.3203C29.6258 95.4349 29.881 96.2396 29.98 96.7344H30.0425C30.1102 96.4688 30.2508 96.0156 30.4644 95.375C30.6831 94.7292 31.3915 92.75 32.5894 89.4375H33.98L30.3003 99.1875C29.9357 100.151 29.5086 100.833 29.0191 101.234C28.5347 101.641 27.9383 101.844 27.23 101.844C26.8342 101.844 26.4435 101.799 26.0581 101.711V100.672C26.3446 100.734 26.6649 100.766 27.0191 100.766C27.9097 100.766 28.5451 100.266 28.9253 99.2656L29.4019 98.0469L25.9487 89.4375ZM47.1275 94.9609C47.1275 95.9661 46.7629 96.75 46.0338 97.3125C45.3046 97.875 44.315 98.1562 43.065 98.1562C41.7108 98.1562 40.6692 97.9818 39.94 97.6328V96.3516C40.4088 96.5495 40.9192 96.7057 41.4713 96.8203C42.0233 96.9349 42.5702 96.9922 43.1119 96.9922C43.9973 96.9922 44.664 96.8255 45.1119 96.4922C45.5598 96.1536 45.7838 95.6849 45.7838 95.0859C45.7838 94.6901 45.703 94.3672 45.5416 94.1172C45.3853 93.862 45.1197 93.6276 44.7447 93.4141C44.3749 93.2005 43.8098 92.9583 43.0494 92.6875C41.9869 92.3073 41.2265 91.8568 40.7681 91.3359C40.315 90.8151 40.0884 90.1354 40.0884 89.2969C40.0884 88.4167 40.4192 87.7161 41.0806 87.1953C41.7421 86.6745 42.6171 86.4141 43.7056 86.4141C44.841 86.4141 45.8853 86.6224 46.8384 87.0391L46.4244 88.1953C45.4817 87.7995 44.565 87.6016 43.6744 87.6016C42.9713 87.6016 42.4218 87.7526 42.0259 88.0547C41.6301 88.3568 41.4322 88.776 41.4322 89.3125C41.4322 89.7083 41.5051 90.0339 41.6509 90.2891C41.7968 90.5391 42.0416 90.7708 42.3853 90.9844C42.7343 91.1927 43.2655 91.4245 43.9791 91.6797C45.177 92.1068 45.9999 92.5651 46.4478 93.0547C46.9009 93.5443 47.1275 94.1797 47.1275 94.9609ZM59.8575 92.2734C59.8575 93.737 59.5632 94.9531 58.9747 95.9219C58.3861 96.8906 57.5554 97.5469 56.4825 97.8906L59.2012 100.719H57.2716L55.045 98.1406L54.6153 98.1562C52.933 98.1562 51.6335 97.6432 50.7169 96.6172C49.8054 95.5859 49.3497 94.1328 49.3497 92.2578C49.3497 90.3984 49.808 88.9583 50.7247 87.9375C51.6414 86.9115 52.9434 86.3984 54.6309 86.3984C56.2716 86.3984 57.5528 86.9193 58.4747 87.9609C59.3966 89.0026 59.8575 90.4401 59.8575 92.2734ZM50.7559 92.2734C50.7559 93.8203 51.0841 94.9948 51.7403 95.7969C52.4018 96.5938 53.3601 96.9922 54.6153 96.9922C55.8809 96.9922 56.8367 96.5938 57.4825 95.7969C58.1283 95 58.4512 93.8255 58.4512 92.2734C58.4512 90.737 58.1283 89.5729 57.4825 88.7812C56.8419 87.9844 55.8914 87.5859 54.6309 87.5859C53.3653 87.5859 52.4018 87.987 51.7403 88.7891C51.0841 89.5859 50.7559 90.7474 50.7559 92.2734ZM62.8922 98V86.5781H64.2203V96.7969H69.2594V98H62.8922Z" fill="white"/>
</svg>
